<svg width="90" height="90" viewBox="0 0 90 90" fill="none" xmlns="http://www.w3.org/2000/svg">
<path d="M22.3466 18.1395C27.32 17.6497 31.3771 18.4504 34.4908 20.5254C37.8156 22.7662 39.7878 26.2412 40.4133 31.0044C41.0818 36.0958 36.8462 41.2398 33.6645 44.577L35.4486 50.6943C33.1767 50.4885 31.016 50.492 28.9084 50.6825C27.8542 50.7777 26.7881 50.8882 25.7095 51.011C24.6316 51.1337 23.5411 51.2684 22.4378 51.4118C21.8724 51.4853 21.3261 51.5674 20.7986 51.6577C12.8832 53.0127 9.24061 56.2595 9.91466 61.3927C9.94972 61.6596 9.99483 61.9176 10.0494 62.167L42.487 60.9038L42.8671 67.7839L2.76944 72.6923C1.98377 69.5789 0.596714 66.3162 0.181973 63.1578C-0.486353 58.066 4.78174 52.6467 7.96353 49.3097L5.14634 43.4683C5.71434 43.5197 6.27557 43.5581 6.83055 43.5838C8.49551 43.6611 10.1061 43.6229 11.6869 43.4801C13.7944 43.2897 15.95 43.0374 18.1571 42.7505C27.2072 41.5742 31.3995 38.2451 30.6806 32.7699C30.3785 30.4708 29.3493 28.8226 27.6427 27.7916C26.149 26.8894 24.2089 26.5153 21.8247 26.6855L20.7754 26.7918C20.369 26.8447 19.9719 26.9033 19.5849 26.971C16.8726 27.4457 14.6352 28.2881 12.857 29.5178C10.8211 30.8962 9.37937 32.533 8.50577 34.4285C8.49186 34.4257 6.57516 34.0421 6.04377 32.353L6.01502 32.1337C5.97224 29.8841 6.38389 27.8815 7.27898 26.1504C8.39616 23.9729 10.1851 22.2096 12.5663 20.8979C14.6472 19.7259 17.1631 18.9231 20.0705 18.4406C20.4854 18.3718 20.909 18.31 21.3397 18.254L22.3466 18.1395Z" fill="url(#paint0_linear_2002_3338)"/>
<path d="M54.7506 43.6567L71.1112 43.1452L68.6205 19.1376L84.2922 21.6523L82.9368 42.7759L89.4669 42.5719L89.8755 49.4486L82.4477 50.3952L81.042 72.3048L74.1036 71.9841L72.0017 51.7267L47.9219 54.7959L44.1428 19.5693L55.093 18.4848L54.7506 43.6567Z" fill="url(#paint1_linear_2002_3338)"/>
<defs>
<linearGradient id="paint0_linear_2002_3338" x1="35.9582" y1="18" x2="35.9582" y2="72.6923" gradientUnits="userSpaceOnUse">
<stop stop-color="#FB6262"/>
<stop offset="1" stop-color="#FB6262" stop-opacity="0.2"/>
</linearGradient>
<linearGradient id="paint1_linear_2002_3338" x1="35.9582" y1="18" x2="35.9582" y2="72.6923" gradientUnits="userSpaceOnUse">
<stop stop-color="#FB6262"/>
<stop offset="1" stop-color="#FB6262" stop-opacity="0.2"/>
</linearGradient>
</defs>
</svg>
