<svg width="90" height="90" viewBox="0 0 90 90" fill="none" xmlns="http://www.w3.org/2000/svg">
<path d="M50.1689 11.9004C50.5863 12.0806 51.1677 12.3946 52.2725 12.9297C54.9725 14.2375 51.7271 18.4254 56.3887 20.8857L62.1035 9.26855L75.4619 15.2148L73.3516 21.5293L65.4014 20.25L59.498 37.9141L55.8418 26.0107C54.9781 25.5234 53.8268 24.8916 52.2725 24.0469C50.382 22.9442 48.3389 22.3926 46.1436 22.3926C43.1554 22.3926 40.838 22.9747 39.1914 24.1387C37.5448 25.2415 36.7217 26.9571 36.7217 29.2852C36.7217 31.0619 37.2704 32.5017 38.3682 33.6045C39.4659 34.7073 40.8994 35.6567 42.668 36.4531C44.4974 37.2495 46.479 38.0159 48.6133 38.751C50.8087 39.4861 52.974 40.3135 55.1084 41.2324C57.3039 42.1514 59.2861 43.346 61.0547 44.8164C62.8843 46.2868 64.3485 48.1856 65.4463 50.5137C66.544 52.7805 67.0928 55.5991 67.0928 58.9688C67.0928 64.9728 64.9883 69.6902 60.7803 73.1211C57.9616 75.4529 54.4244 76.9903 50.1689 77.7373V86.5381H41.4785V78.1309C34.9317 77.2609 35.3534 72.3789 34.0625 69.6289L32.3008 69.3428L27.8965 79.6797L14.5381 73.7334L16.6484 67.4199L24.5986 68.6982L30.502 51.0342L34.71 64.7383C35.0698 65.0016 35.4349 65.2538 35.8066 65.4932C38.2461 66.9636 41.0822 67.6992 44.3145 67.6992C47.6074 67.6992 50.1993 67.0254 52.0898 65.6777C53.9804 64.3299 54.9258 62.4301 54.9258 59.9795C54.9258 58.0191 54.3769 56.4264 53.2793 55.2012C52.1816 53.9759 50.7181 52.9339 48.8887 52.0762C47.1201 51.2184 45.1677 50.4522 43.0332 49.7783C40.8988 49.0432 38.7642 48.2168 36.6299 47.2979C34.4954 46.3789 32.5132 45.2453 30.6836 43.8975C28.915 42.4884 27.4815 40.7117 26.3838 38.5674C25.347 36.3618 24.8291 33.6043 24.8291 30.2959C24.8291 26.3751 25.7438 23.0362 27.5732 20.2793C29.4638 17.5224 32.0256 15.4089 35.2578 13.9385C37.1851 13.078 39.2588 12.4702 41.4785 12.1133V3.46191H50.1689V11.9004Z" fill="url(#paint0_linear_2002_3329)"/>
<defs>
<linearGradient id="paint0_linear_2002_3329" x1="38.8625" y1="3.46191" x2="38.8625" y2="86.5381" gradientUnits="userSpaceOnUse">
<stop stop-color="#FB6262"/>
<stop offset="1" stop-color="#FB6262" stop-opacity="0.2"/>
</linearGradient>
</defs>
</svg>
