<svg width="1170" height="151" viewBox="0 0 1170 151" fill="none" xmlns="http://www.w3.org/2000/svg">
<mask id="mask0_62_196" style="mask-type:alpha" maskUnits="userSpaceOnUse" x="0" y="0" width="1170" height="151">
<rect width="1170" height="151" fill="#D9D9D9"/>
</mask>
<g mask="url(#mask0_62_196)">
<path d="M2385.32 1580.02C2390.39 1566.3 2396.35 1558.79 2391.08 1573.96C2390.09 1576.69 2391.93 1567.65 2390.46 1571.05C2387.78 1577.25 2388.42 1582.29 2384.72 1588.37C2384.07 1589.46 2385.05 1580.8 2385.32 1580C2385.32 1580 2385.32 1580.01 2385.32 1580.02Z" fill="url(#paint0_linear_62_196)"/>
<path fill-rule="evenodd" clip-rule="evenodd" d="M1303.88 82.0753C1307.97 81.9345 1313.16 81.9848 1317.3 82.2804C1319.31 82.4228 1316.61 83.2166 1318.64 83.3438C1323.37 83.6416 1328.44 83.708 1333.3 83.5596C1335.37 83.4944 1332.25 82.5481 1334.94 82.5372C1353.24 82.4433 1371.23 82.28 1389.73 83.5059C1391 83.5903 1392.11 85.5143 1394.81 85.1456C1395.01 84.6116 1395 83.9829 1395.09 83.4122C1421.74 83.1047 1448.12 83.7719 1474.85 83.8751C1475.97 83.8791 1474.03 82.8596 1476.21 82.8624C1488.84 82.8774 1501.1 82.5952 1514.01 83.6085C1515.29 83.7077 1514.64 85.5008 1518.41 85.2296C1519.08 85.18 1524.77 84.941 1526.24 84.5518C1526.44 84.4927 1525.4 83.6553 1527.23 83.6309C1537.89 83.5038 1549.05 83.6956 1559.68 84.2071C1561.4 84.2913 1559.57 85.1822 1560.79 85.2501C1568.49 85.6701 1576.78 85.1848 1584.34 85.6358C1587.24 85.0543 1585.66 84.1559 1590.93 83.8311C1604.15 83.0411 1620.38 82.8835 1633.68 83.0313C1637.53 83.0823 1635.58 83.6762 1638.28 83.7384C1643.52 83.8618 1649.09 83.5073 1654.26 83.7052C1655.97 83.7738 1653.85 84.6795 1655.65 84.7315C1665.41 85.0117 1675.78 84.7289 1685.66 84.9151C1736.77 85.8492 1786.3 87.4725 1837.68 90.7227C1854.87 91.8059 1875.04 93.9482 1892.63 94.9884C1894.65 95.1062 1893.51 94.2407 1893.9 94.2071C1900.02 93.7163 1897.89 95.1124 1901.83 95.6436C1917.57 97.7623 1934.95 99.4651 1950.16 100.772C1956.64 101.329 1950.32 99.1073 1956.74 100.666C1957.19 100.773 1955.46 101.413 1957.22 101.692C1961.18 102.317 1968.76 103.024 1971.84 103.452C1977.79 104.278 1978.78 104.389 1984.43 105.089C1992.18 106.06 2001.25 107.644 2009.54 108.591C2011.31 108.791 2009.09 107.635 2011.92 107.88C2014.75 108.122 2022.19 109.251 2024.68 109.817C2027.16 110.381 2025.99 110.881 2026.42 111.096C2029.89 112.893 2038.73 112.444 2039.85 112.577C2060.11 114.969 2077.23 118.971 2096.01 122.587C2110.28 125.336 2125.61 128.224 2139.05 131.346C2155.25 135.121 2168.44 138.878 2184.1 143.05C2185.74 143.49 2184.08 142.01 2186.09 142.547C2207.22 148.231 2228.15 154.807 2248.57 162.774C2250.63 163.578 2247.66 163.443 2249.69 164.296C2262.15 169.422 2281.11 178.846 2289.93 178.58C2298.18 182.254 2308.23 187.017 2315.26 191.297C2319.76 194.047 2314.78 192.644 2320.71 195.139C2322.04 195.706 2320.74 194.121 2322.71 195.032C2330.88 198.808 2339.85 203.955 2347.88 208.127C2349.52 208.977 2349.46 208.085 2349.98 208.232C2354.35 209.518 2359.57 214.834 2360.93 215.855C2370.91 223.308 2378.18 227.856 2387.38 234.784C2389.51 236.4 2387.6 233.697 2389.66 235.23C2400.31 243.176 2410.61 252.166 2419.52 261.66C2421.48 263.76 2419.02 262.496 2419.92 263.529C2422.62 266.638 2424.41 267.567 2426.46 269.265C2427.45 270.096 2428.49 271.096 2429.67 272.567C2430.46 273.546 2429.44 273.507 2429.54 273.731C2430.98 277.208 2434.27 278.335 2434.88 278.999C2442.38 287.078 2445.69 294.559 2451.72 303.263C2452.48 304.38 2451.61 301.314 2453.69 304.494C2467.31 325.131 2476.99 350.476 2479.41 374.912C2479.8 378.707 2478.76 376.096 2478.71 376.346C2477.87 380.352 2479.85 382.644 2480.02 383.881C2481.32 393.666 2479.63 402.718 2481.32 409.476C2477.85 450.974 2462.88 490.401 2442.61 525.415C2442.36 525.864 2442 524.637 2441.49 525.532C2435.26 536.281 2437.59 534.746 2435.08 542.778C2434.44 544.815 2429.58 549.286 2429.18 549.684C2427.71 551.163 2427.61 548.699 2427.18 549.232C2423.68 553.659 2427.9 555.036 2424.05 561.596C2423.92 561.797 2423.74 560.533 2423.35 561.042C2422.12 562.633 2421.41 564.452 2420.19 565.97C2417.38 569.43 2414.78 569.686 2412.32 576.091C2412.01 576.9 2414.78 577.082 2411.16 582.762C2409.73 585.022 2403.47 595.193 2401.57 597.916C2399.67 600.653 2400.21 598.298 2400.05 598.48C2394.4 605.523 2395.84 602.41 2392.14 605.391C2388.44 608.373 2392.22 609.281 2391.59 611.049C2390.96 612.82 2386.72 617.92 2385.61 619.127C2384.49 620.333 2385.14 618.361 2384.23 619.484C2378.22 626.947 2383.55 623.992 2382.37 626.958C2379.6 633.96 2374.24 637.378 2370.45 642.988C2369.42 644.509 2370.73 643.565 2369.92 644.983C2366.71 650.602 2363.96 653.444 2360.82 660.137C2360.3 661.236 2358.65 667.167 2355.66 669.846C2355.24 670.223 2355.44 668.551 2353.91 670.834C2351.64 674.214 2347.76 680.61 2345.79 684.544C2344.34 687.455 2347.15 684.767 2344.84 688.152C2343.82 689.657 2344.89 686.405 2343.02 689.262C2341.13 692.128 2336.97 699.817 2335.46 702.741C2333.95 705.661 2335.54 704.466 2335.47 704.727C2335.01 706.278 2332.44 712.153 2332.2 712.646C2319.94 737.146 2308.77 760.184 2302.69 786.113C2302.52 786.84 2302.36 787.569 2302.2 788.299C2301.73 790.415 2302.94 789.218 2302.87 789.543C2301.57 796.831 2300.55 790.609 2298.64 795.498C2300.58 795.158 2299.58 798.069 2298.76 803.2C2298.37 805.672 2299.32 804.471 2299.35 804.709C2299.69 808.538 2297.89 810.809 2297.49 811.416C2296.04 813.665 2296.81 816.528 2295.86 818.072C2294.91 819.625 2294.5 815.636 2293.74 820.599C2294.18 822.083 2296.41 818.675 2296.12 822.461C2294.84 836.648 2291.45 863.072 2291.19 874.602C2290.79 886.066 2290.99 889.773 2290.85 896.459C2290.72 908.548 2291.88 904.088 2292.77 911.542C2293.73 919.007 2290.45 915.536 2289.84 916.652C2289.23 917.753 2289.99 918.874 2289.7 920.218C2289.42 921.56 2288.78 918.733 2288.85 921.846C2288.9 924.966 2290.77 933.361 2291.58 934.392C2293.27 936.576 2294.44 932.636 2294.68 940.841C2294.7 941.312 2293.73 939.875 2293.83 941.675C2294.64 955.985 2296.64 970.796 2298.46 985.037C2298.71 986.998 2297.52 985.407 2297.66 986.551C2299.13 998.479 2299.92 993.972 2302.77 1000.1C2300.28 999.07 2299.54 1002.89 2301.32 1011.83C2302.4 1017.2 2303.18 1016.09 2304.58 1019.4C2305.01 1020.39 2305.15 1024.3 2305.75 1024.89C2307.73 1026.82 2308.6 1022.91 2309.97 1032.18C2310.02 1032.58 2308.93 1031.49 2309.19 1032.89C2310.9 1041.9 2312.7 1042.62 2315.22 1052.18C2317.19 1059.67 2319.68 1073.3 2321.84 1081.87C2319.32 1082.35 2322.07 1090.28 2324.67 1093.08C2326.13 1098.64 2327.9 1104.58 2329.19 1109.98C2329.64 1111.84 2328.59 1110.84 2328.58 1111.09C2328.39 1114.99 2330.73 1116.92 2331.14 1118.09C2335.5 1130.82 2337.39 1141.67 2342.3 1153.6C2342.48 1154.02 2344.38 1154.22 2344.14 1157.88C2344.12 1158.11 2342.12 1154.29 2343.81 1160.09C2345.5 1165.88 2347.9 1177.05 2351.13 1184.83C2351.91 1186.71 2354.78 1191.2 2354.9 1195.46C2354.92 1196.03 2354.26 1195.6 2354.22 1196.44C2354.1 1199.15 2356.22 1199.98 2355.64 1203.3C2355.06 1206.63 2355.79 1212.95 2359.22 1220.72C2359.33 1220.97 2361.26 1222.47 2362 1225.04C2363.18 1229.13 2364.61 1234.99 2365.87 1239.24C2366.47 1241.27 2366.93 1239.72 2367.05 1240.07C2371.52 1253.6 2373.57 1263.61 2377.27 1278.45C2377.95 1281.17 2381.2 1288.65 2381.63 1294.13C2382.1 1300.14 2376.44 1295.28 2380.76 1308.3C2382.49 1313.55 2389.46 1318.99 2388.9 1329.36C2393.81 1347.99 2395.79 1365.66 2399.67 1384.6C2399.85 1385.45 2401.76 1387.94 2402.03 1389.97C2402.42 1392.97 2401.93 1394.71 2402.16 1396.84C2403.12 1405.9 2404.61 1414.07 2405.23 1422.77C2405.46 1426.1 2404.64 1424.99 2404.89 1428.95C2405.12 1432.9 2406.26 1435.48 2406.04 1440.84C2405.86 1444.89 2404.02 1449 2403.87 1454.34C2405.83 1454.52 2405.88 1458.2 2406.35 1464.75C2406.44 1466.01 2407.13 1464.67 2407.21 1465.26C2407.54 1467.7 2406.93 1469.92 2407.25 1472.25C2407.33 1472.81 2407.99 1472.86 2408.09 1473.32C2408.98 1477.28 2407.14 1483.67 2406.81 1484.74C2405.56 1488.91 2406.28 1490.93 2405.62 1494.13C2404.95 1497.33 2404.88 1492.46 2404.31 1496.21C2403.14 1503.95 2402.01 1513.93 2400.68 1521.74C2400.15 1524.86 2401.39 1522.88 2401.33 1523.33C2400.47 1529.84 2398.21 1536.14 2399.15 1540.09C2393.64 1543.53 2398.79 1544.05 2395.55 1552.95C2395.29 1553.65 2392.95 1553.99 2393.35 1551.18C2393.76 1548.38 2395.44 1544.4 2395.8 1540.48C2395.9 1539.54 2395.01 1533.94 2395.02 1533.21C2395.17 1527.51 2398.47 1527.31 2398.71 1527.05C2401.23 1524.03 2400.08 1517.25 2400.16 1515.55C2400.59 1507.72 2401.76 1501.2 2401.83 1494.65C2401.87 1490.37 2399.76 1489.81 2400.05 1486.49C2400.92 1475.5 2403.99 1471.61 2401.46 1461.15C2400.9 1458.9 2398.63 1461.16 2400.34 1453.12C2400.46 1452.63 2401.99 1446.56 2400.78 1443.19C2400.63 1442.76 2399.95 1442.8 2399.87 1442.24C2399.33 1438.45 2399.74 1435.88 2399.21 1431.74C2398.68 1427.6 2397.9 1422.6 2397.7 1417.88C2397.57 1415.03 2398.45 1411.24 2398.61 1409.84C2399.08 1405.87 2397.12 1401.89 2397.89 1399.36C2398.66 1396.8 2400.91 1401.31 2400.77 1394.89C2398.99 1394.89 2397.13 1394.59 2395.32 1394.46C2393.51 1380.68 2391.76 1367.03 2388.96 1353.26C2388.61 1351.55 2388.02 1353.49 2387.62 1351.66C2385.93 1343.99 2385.16 1337.18 2383.09 1329.24C2381.47 1323.07 2378.91 1316.66 2377.07 1310.29C2378.07 1305.88 2374.99 1296.51 2373.34 1289.59C2372.76 1287.17 2373.32 1287.19 2373.03 1285.42C2371.92 1278.77 2371.01 1282.27 2370.26 1280.57C2367.02 1273.24 2370.75 1271.56 2368.12 1262.61C2367.99 1262.14 2364.27 1256.92 2363.91 1256.16C2361.6 1251.32 2364.38 1255.11 2363.62 1251.88C2362.22 1245.99 2361.55 1241.85 2358.93 1235.23C2358.17 1233.3 2355.47 1228.93 2355.31 1224.78C2355.29 1224.23 2356.06 1224.31 2355.98 1223.89C2354.44 1216.34 2352.23 1216.78 2350.24 1212.8C2348.24 1208.81 2347.75 1201.85 2347.77 1200.4C2347.81 1196.59 2349.05 1202.91 2349.21 1203.07C2351.17 1204.88 2349.5 1200.19 2348.51 1196.54C2350.45 1195.38 2348.78 1190.36 2347.47 1192.76C2347.33 1193.03 2348.38 1195.79 2348.51 1196.54C2345.49 1193.99 2343.53 1188.51 2343.57 1181.77C2343.6 1178.61 2345.48 1181.02 2342.43 1172.38C2341.05 1168.46 2340.07 1170.43 2338.61 1167.05C2335.28 1159.31 2333.48 1148.47 2330.81 1140.26C2329.84 1137.28 2329.92 1140.44 2329.23 1138.41C2327.4 1133.02 2326.58 1128.03 2324.68 1122.63C2324.5 1122.14 2324.02 1123.6 2323.52 1121.9C2319.67 1108.96 2317.01 1097.52 2313.37 1083.9C2311.6 1077.33 2308.08 1065.65 2306.48 1058.76C2303.68 1046.86 2301.52 1031.86 2299.08 1021.71C2297.49 1015.08 2296.96 1016.71 2295.79 1013.96C2293.53 1008.62 2293.7 998.399 2293.79 997.024C2293.81 997.095 2295.05 1002.69 2294.92 999.558C2295.5 997.606 2293.81 997.092 2293.79 997.024C2293.81 996.135 2291.99 984.502 2291.48 982.223C2291.19 980.985 2290.5 981.816 2290.36 981.167C2287.15 965.771 2284.93 950.064 2283.92 934.079C2283.91 933.797 2284.86 934.14 2284.83 933.478C2284.46 924.215 2282.97 918.404 2281.95 910.768C2280.94 903.14 2281.04 897.025 2282.57 892.483C2282.29 886.714 2283.08 878.428 2283.65 873.686C2284.22 868.945 2282.48 868.21 2282.46 867.787C2281.92 854.635 2283.51 847.103 2285.21 833.604C2286 827.213 2287.64 814.425 2288.76 807.501C2289.61 802.038 2290.68 798.85 2291.51 793.792C2291.62 793.108 2290.7 793.62 2290.71 793.407C2291.03 787.6 2292.34 790.721 2292.93 789.647C2293.99 787.774 2294.84 786.249 2295.57 784.36C2296.35 782.34 2297 779.908 2297.73 776.167C2298.04 774.522 2296.77 768.936 2297.57 765.922C2298.61 762.039 2299.09 763.793 2300.21 759.732C2300.31 759.385 2299.69 759.253 2300.58 756.8C2304.74 745.389 2310.13 733.456 2315.36 722.167C2316.08 720.618 2314.25 722.184 2315.29 719.936C2320.1 709.467 2325.97 698.263 2331.76 688.701C2333.19 686.34 2332.96 688.188 2333.43 687.762C2336.29 685.122 2337.25 679.795 2337.65 679.023C2347.04 660.841 2356.56 648.457 2366.84 630.523C2367.39 629.545 2370.36 621.192 2373.81 618.812C2374.04 618.646 2377.5 616.32 2378.32 612.857C2378.37 612.643 2376.37 614.186 2378.66 610.731C2380.94 607.275 2384 601.331 2387.83 597.026C2389.04 595.662 2392.72 592.96 2394.42 587.702C2394.53 587.35 2396.32 578.726 2399.64 577.321C2400.18 577.096 2401.81 578.681 2404.17 572.653C2404.62 571.494 2403.04 573.132 2404.45 570.221C2406.61 565.757 2410.47 560.499 2412.68 554.806C2413.06 553.805 2414.04 549.181 2416.81 546.654C2417.24 546.258 2417.35 547.55 2418.36 545.952C2423.17 538.391 2427.33 529.861 2431.99 522.059C2433.65 519.272 2433.95 521.292 2435.78 518.441C2437.62 515.579 2440.89 509.714 2441.93 506.249C2442.96 502.831 2439.6 505.479 2441.69 500.669C2450.7 479.8 2459.7 459.206 2464.62 437.397C2465.32 434.175 2464.12 436.704 2465.04 431.965C2469 414.333 2468.59 383.813 2466.43 368.582C2465.05 356.334 2469.17 371.318 2467.6 361.958C2466.78 357.389 2463.2 353.175 2462.83 352.216C2458.95 342.249 2456.97 335.067 2452.3 326.401C2451.31 324.612 2451.43 326.803 2450.59 325.282C2447.82 320.296 2445.11 314.879 2441.92 310.098C2440.49 307.977 2440.22 308.806 2439 306.898C2436.06 302.374 2433.39 298.246 2430.43 293.469C2430.17 293.044 2432.91 295.124 2430.4 291.913C2427 287.589 2422.9 282.078 2417.97 277.188C2417.14 276.37 2416.3 275.578 2415.43 274.819C2413.71 273.323 2412.57 274.351 2409.87 270.142C2409.29 269.267 2411.57 268.813 2406.29 266.012C2405.44 265.535 2396.73 260.515 2394.16 256.538C2393.47 255.458 2392.03 252.238 2389.73 250.684C2389.41 250.479 2390.04 252.073 2388.22 250.702C2381.79 245.872 2374.89 240.637 2368.03 236.223C2366.18 235.032 2368.39 237.608 2365.64 235.817C2358.06 230.89 2348.42 224.603 2340.96 219.983C2338.17 218.257 2340.49 218.763 2340.33 218.576C2337.63 215.548 2334.77 215.935 2333.6 215.4C2326.27 212.032 2321.33 208.544 2314.71 205.469C2312.88 204.62 2313.79 205.993 2313.4 205.88C2309.35 204.676 2312.79 204.726 2310.48 203.415C2304.03 199.749 2296.28 196.245 2289.49 193.389C2286.96 192.326 2289.41 194.433 2287.14 193.473C2273.65 187.788 2259.46 182.133 2246.13 176.799C2243.61 175.789 2245.46 175.674 2244.99 175.325C2241.71 172.905 2235.69 172.524 2234.44 172.261C2228.63 171.023 2226.64 169.689 2221.61 168.184C2196.78 160.735 2166.38 152.096 2142.66 146.317C2111.83 138.797 2087.71 133.405 2057.75 128.51C2055.84 128.202 2057.6 129.486 2055.96 129.233C2034.78 125.943 2013.86 122.508 1992.55 120.058C1990.8 119.856 1993.21 121.096 1990.38 120.802C1984.58 120.204 1977.27 119.263 1971.47 118.289C1968.64 117.816 1972.55 117.471 1969.7 117.012C1963.06 115.942 1955.98 115.091 1949.03 114.508C1946.09 114.265 1950.42 115.67 1946.6 115.282C1920.71 112.682 1895.41 110.679 1869.08 107.63C1867.28 107.422 1865.83 105.393 1862 105.509C1861.68 106.023 1861.65 106.651 1861.49 107.212C1823.6 105.03 1786.16 102.768 1748.14 101.815C1746.52 101.775 1749.3 102.854 1746.16 102.783C1728.33 102.386 1710.84 102.455 1692.39 101.399C1690.55 101.296 1691.47 99.5014 1686.09 99.7706C1685.12 99.8173 1677.19 100.069 1675.22 100.47C1674.91 100.53 1676.48 101.36 1673.75 101.397C1658.15 101.594 1642.51 101.609 1627.43 101.432C1624.9 101.404 1627.57 100.452 1625.77 100.425C1615.65 100.261 1604.77 100.977 1594.5 101.039C1594.41 101.124 1594.28 101.2 1594.09 101.261C1592.92 101.63 1591.64 100.878 1589.7 101.312C1587.77 101.751 1588.62 102.773 1584.76 102.894C1575.79 103.167 1564.04 102.874 1555.11 102.473C1552.31 102.348 1553.73 101.792 1551.79 101.681C1548.02 101.464 1544.49 101.737 1540.76 101.48C1539.52 101.391 1541.06 100.51 1539.76 100.438C1532.65 100.048 1525.92 100.272 1518.72 100.085C1483.23 99.1604 1448.35 98.8295 1412.43 98.4278C1400.58 98.2961 1386.18 97.4959 1373.95 97.8458C1372.52 97.8874 1373.37 98.6606 1373.1 98.7247C1368.84 99.701 1370.26 98.1394 1367.47 97.9317C1356.43 97.1122 1344.15 97.0413 1333.52 97.3399C1329 97.4692 1333.53 99.0063 1328.98 98.1436C1328.66 98.0853 1329.81 97.2636 1328.57 97.1759C1325.76 96.9787 1320.42 97.1247 1318.24 97.0596C1314.04 96.93 1313.35 96.9391 1309.37 96.9298C1303.94 96.9098 1297.48 96.5014 1291.66 96.6876C1290.41 96.7298 1292.06 97.5715 1290.08 97.7149C1288.09 97.858 1282.84 97.7865 1281.07 97.588C1279.3 97.3893 1280.05 96.7271 1279.74 96.5753C1277.16 95.2944 1271.08 97.0683 1270.3 97.1124C1256.05 97.8599 1243.82 96.8498 1230.44 96.8526C1220.29 96.8569 1209.43 97.1904 1199.76 97.1446C1188.25 97.0868 1178.49 96.6306 1167.3 96.7091C1166.12 96.7165 1167.51 97.7067 1166.06 97.7179C1150.75 97.8331 1135.53 97.7254 1120.28 97.0567C1118.75 96.9887 1120.72 96.1191 1119.2 95.9991C1109.84 95.2844 1095.03 93.5674 1089.48 97.3536C1083.14 97.2057 1075.44 97.0533 1069.77 96.2901C1066.12 95.7989 1069.67 94.8508 1065.18 95.255C1064.17 95.345 1065.48 96.1748 1063.96 96.2471C1057.57 96.5509 1050.58 96.2814 1044.26 96.71C1042.97 96.7992 1043.32 97.5427 1042.96 97.6768C1039.89 98.7609 1034.79 96.9685 1033.68 96.838C1025.21 95.8669 1019.03 96.2494 1011.14 96.2257C1009.31 96.2199 1011.47 97.2179 1009.71 97.2481C1000.57 97.3912 991.11 97.3055 982.165 96.8624C980.175 96.7614 982.004 95.9113 981.054 95.8194C976.861 95.4252 975.932 97.0316 971.911 96.6846C971.063 96.6136 971.54 95.8861 971.386 95.8057C968.966 94.5505 966.863 96.3287 966.24 96.3682C958.366 96.9048 953.333 95.0477 945.726 95.3106C944.817 95.344 946.868 96.2654 944.31 96.3028C927.268 96.5572 909.245 96.3034 892.376 95.5665C889.753 95.4532 891.624 94.7614 891.46 94.6759C888.77 93.3432 887.03 95.1285 886.175 95.1964C879.428 95.6806 873.125 94.1831 868.541 96.3106C839.968 95.5723 811.526 96.7665 783.189 94.8604C782.829 94.838 783.474 93.9598 782.757 93.919C774.102 93.4251 775.763 94.7918 770.037 96.4639C768.595 96.8837 764.208 94.8658 763.817 94.7169C762.403 94.1716 763.869 92.8627 763.395 92.7569C759.476 91.928 760.114 96.2564 754.826 96.2579C754.662 96.2495 755.355 95.4545 754.912 95.3751C753.533 95.1264 752.166 95.4422 750.816 95.168C747.728 94.5334 746.628 92.4304 741.911 93.6544C741.315 93.814 742.225 96.2683 737.505 96.1524C735.623 96.1041 727.292 96.1465 724.956 95.9874C722.624 95.8285 724.224 95.0376 724.058 95.003C717.775 93.9568 720.157 93.5236 717.009 91.9747C713.861 90.4319 714.734 94.111 713.451 94.5225C712.166 94.9321 707.559 94.0688 706.426 93.7686C705.294 93.4684 706.705 92.9659 705.699 92.796C699.027 91.6861 702.77 94.6229 700.572 95.2071C695.389 96.5901 691.352 93.8603 686.607 93.5929C685.324 93.5207 686.371 94.1419 685.228 94.2003C680.701 94.4223 677.976 93.5708 672.825 94.3516C671.982 94.4794 667.818 96.12 665.123 94.9161C664.741 94.7425 665.826 94.0617 663.896 93.9093C661.014 93.6806 655.82 93.5325 652.721 93.7598C650.433 93.928 653.055 95.0483 650.176 94.7003C648.896 94.5448 651.267 93.8898 648.863 93.6524C646.472 93.4151 640.356 93.4433 638.029 93.4659C635.708 93.4891 636.977 94.3389 636.79 94.3966C635.654 94.7246 631.198 95.1348 630.803 95.1339C610.933 95.2376 592.61 93.8041 573.265 94.2784C571.747 94.3145 572.757 95.2105 572.526 95.2257C567.329 95.6013 571.426 93.2178 567.796 92.42C568.321 94.2392 566.177 93.91 562.516 94.1095C560.755 94.2069 561.71 94.9098 561.553 94.9835C558.937 96.0532 557.115 94.6719 556.645 94.3888C554.913 93.3489 553.026 94.5778 551.848 93.8829C550.669 93.193 553.381 92.1696 549.87 92.1827C548.885 92.8339 551.491 94.5357 548.826 94.8116C538.768 95.8548 519.993 94.5197 511.906 94.3809C503.835 94.2424 501.228 94.3624 496.525 94.127C488.03 93.7015 491.143 94.9641 485.868 95.5421C480.578 96.1198 483.15 93.0137 482.389 92.3458C481.643 91.6783 480.828 92.365 479.899 91.9981C478.974 91.6313 480.977 91.1779 478.801 91.0401C476.622 90.9025 470.668 92.0898 469.895 92.7882C468.264 94.2676 470.946 95.82 465.183 95.2745C464.852 95.242 465.927 94.4256 464.659 94.3429C454.579 93.714 444.105 93.6754 434.037 93.1192C432.653 93.0414 433.89 92.1329 433.085 92.0772C424.693 91.496 427.692 93.0275 423.094 94.7296C424.126 92.4646 421.582 91.0789 415.214 91.0655C411.386 91.0567 412.044 92.046 409.568 92.7432C408.825 92.9534 406.116 92.2743 405.625 92.7393C404.007 94.2602 406.557 95.963 399.992 95.2852C399.704 95.253 400.62 94.4209 399.626 94.3702C393.191 94.0402 392.421 95.6306 385.466 95.8233C380.014 95.9745 370.317 95.0046 364.109 94.8468C364.239 92.3003 358.377 92.8831 355.998 94.6388C351.969 94.5669 347.617 94.6666 343.723 94.4239C342.384 94.3412 343.263 93.6034 343.095 93.5235C340.504 92.2741 338.753 93.9811 337.883 94.0489C328.458 94.6999 320.778 93.4057 311.784 94.671C311.465 94.7166 310.947 96.485 308.543 95.1934C308.388 95.1043 311.357 94.2997 307.127 94.2374C302.895 94.175 294.917 93.2273 289.042 94.047C287.62 94.2443 284.024 95.6797 281.138 94.5577C280.754 94.4052 281.174 93.8986 280.619 93.6163C278.825 92.7167 277.845 94.5044 275.736 92.9854C273.627 91.4664 269.24 90.329 263.315 91.377C263.126 91.4083 261.724 92.824 259.861 92.8018C256.887 92.7648 252.664 92.4704 249.558 92.4796C248.071 92.4845 249.022 93.3635 248.764 93.38C238.766 93.8731 231.65 93.0886 220.938 92.7481C218.975 92.6841 213.332 93.8843 209.531 92.9356C205.357 91.897 209.646 87.5764 200.053 88.6055C196.183 89.0172 191.284 94.4987 184.33 91.6593C170.843 92.3629 158.37 90.9094 144.846 91.9141C144.237 91.9592 142.314 93.4886 140.885 93.4679C138.762 93.434 137.597 92.7181 136.081 92.671C129.73 92.4557 123.918 93.0679 117.795 92.9727C115.47 92.9381 116.283 92.1987 113.511 92.1573C110.74 92.1167 108.892 93.0903 105.137 92.6202C102.3 92.2618 99.4645 90.2721 95.7 90.0401C95.5565 92.0028 92.9709 91.9625 88.3758 92.4805C87.4933 92.5811 88.4391 93.2636 88.0223 93.3468C86.322 93.6988 84.748 93.1328 83.1336 93.5157C82.7411 93.6077 82.7217 94.278 82.4012 94.3917C79.671 95.3787 75.173 93.8713 74.3993 93.6085C71.4383 92.6115 70.0541 93.4833 67.7831 93.0909C65.5154 92.6983 68.9051 92.2071 66.2567 91.9688C60.7663 91.4761 53.7116 91.5846 48.1356 91.5538C45.9111 91.5456 47.4277 92.44 47.1102 92.46C42.5097 92.687 37.8566 91.7356 35.3055 93.5177C32.1156 88.9095 32.5311 93.9645 25.9549 93.0421C25.437 92.9665 24.779 90.7877 26.7674 90.4679C28.7562 90.1484 31.7722 90.8298 34.5311 90.3311C35.1856 90.2132 38.928 88.1716 39.4383 88.0479C43.4361 87.0821 44.0046 90.3347 44.2166 90.5167C46.6165 92.4466 51.1904 90.2472 52.3954 90.0948C57.9056 89.3983 62.5883 89.8566 67.1971 89.3595C70.211 89.038 70.506 86.9056 72.8729 86.9708C80.7412 87.1866 83.4885 90.1622 90.9032 87.5821C92.4927 87.0317 90.9138 84.7001 96.6102 86.5333C96.9719 86.6504 101.199 88.325 103.641 87.2647C103.948 87.1303 103.939 86.4519 104.343 86.3946C107.055 86.0254 108.865 86.5669 111.82 86.3077C114.775 86.0485 118.327 85.6623 121.701 85.8927C123.734 86.0305 126.343 87.2965 127.316 87.6065C130.064 88.4992 133.011 87.0354 134.714 88.1163C136.43 89.2029 133.075 90.8527 137.577 91.5548C137.744 89.7896 138.126 87.9774 138.394 86.2022C148.261 86.2644 157.969 86.8359 167.868 86.7579C169.095 86.7464 167.841 85.7976 169.156 85.7608C174.707 85.6101 179.556 86.2861 185.312 86.0167C189.768 85.8045 194.654 84.8001 199.313 84.547C202.16 86.5669 209.074 85.8809 214.097 86.0655C215.855 86.1293 215.739 86.6687 216.989 86.8448C221.709 87.4957 219.498 85.7108 220.792 85.4298C226.344 84.231 226.82 88.2707 233.365 88.171C233.713 88.1664 237.95 86.0146 238.535 85.88C242.244 85.0055 239.149 86.6289 241.471 86.7882C245.709 87.079 248.655 87.5937 253.629 86.963C255.079 86.776 258.558 85.4335 261.375 86.4718C261.745 86.6081 261.541 87.3197 261.839 87.3614C267.236 88.0561 267.378 85.8191 270.463 85.0616C273.548 84.3044 278.313 85.849 279.282 86.294C281.817 87.4447 277.342 86.7863 277.201 86.8985C275.587 88.243 279.062 88.0115 281.718 88.1251C282.102 90.3181 285.815 90.1867 284.471 88.2345C284.317 88.0212 282.251 88.2252 281.718 88.1251C284.048 85.9734 288.129 85.6983 292.637 87.7091C294.746 88.6515 292.753 89.7497 299.162 89.3477C302.07 89.1661 300.947 87.6559 303.514 87.2442C309.378 86.305 316.999 87.7142 323.045 87.4923C325.238 87.4116 323.102 86.5846 324.601 86.5011C328.581 86.2768 332.091 86.8969 336.088 86.5792C336.45 86.5491 335.566 85.684 336.808 85.6729C346.231 85.5725 354.436 86.1273 364.274 86.1427C369.028 86.1497 377.526 85.6717 382.45 85.7677C390.985 85.9289 401.484 87.1875 408.774 86.8819C413.529 86.6862 412.487 85.8202 414.524 85.2305C418.456 84.0877 425.416 86.1352 426.353 86.4522C426.362 86.4636 422.295 86.6682 424.473 87.1114C425.743 88.0365 426.307 86.4562 426.353 86.4522C426.972 86.657 435.142 86.854 436.765 86.6886C437.647 86.5981 437.154 85.7778 437.614 85.7462C448.544 85.0124 459.493 84.8042 470.579 85.1876C470.774 85.2046 470.48 86.121 470.939 86.1485C477.357 86.5563 481.466 85.4348 486.76 84.7686C492.052 84.1028 496.249 84.3259 499.382 85.9005C503.375 85.7023 509.104 86.398 512.4 86.8204C515.697 87.2427 516.157 85.4572 516.447 85.422C525.494 84.2923 530.724 85.3146 540.11 85.4737C544.572 85.5524 553.425 85.293 558.257 85.0977C562.075 84.9405 564.375 85.3584 567.893 85.0909C568.369 85.055 567.889 84.2602 568.034 84.2296C571.96 83.2786 570.074 85.2223 570.885 85.5694C573.824 86.8316 575.641 87.504 580.669 86.9102C581.829 86.7733 585.207 83.9763 587.321 83.8126C590.07 83.605 589.033 84.6073 591.911 84.3643C592.157 84.3442 592.107 83.7257 593.883 83.753C602.129 83.8715 611.119 84.232 619.688 84.17C620.858 84.1637 619.358 83.1823 621.05 83.1573C628.985 83.041 637.684 83.0768 645.415 83.5362C647.317 83.6525 646.125 84.34 646.538 84.544C649.074 85.7782 652.67 83.9848 653.264 83.9503C667.419 83.0882 678.253 84.7115 692.681 83.9386C693.467 83.8926 699.511 81.9711 702.208 83.6202C702.394 83.7309 705.062 85.4171 707.421 84.2638C707.565 84.1905 705.906 83.3228 708.806 83.4112C711.707 83.4995 716.378 82.9196 720.366 83.8741C721.629 84.175 724.614 85.8573 728.38 84.5157C728.628 84.4208 734.44 81.389 736.516 83.4815C736.852 83.8262 736.5 86.0411 740.996 84.9054C741.854 84.6851 740.296 84.1914 742.558 83.8829C746.025 83.4074 750.62 84.0005 754.882 83.0138C755.626 82.8386 758.79 81.3357 761.327 82.4766C761.724 82.6557 760.97 83.3949 762.309 83.4776C768.683 83.8746 775.358 83.38 781.829 83.8917C784.12 84.0716 782.949 85.2666 785.338 85.587C787.728 85.9073 792.542 86.2154 795.043 85.669C797.543 85.1223 794.812 83.217 798.558 83.0645C814.847 82.4024 830.982 83.5202 847.246 83.6837C849.658 83.7081 847.659 83.0267 851.214 83.0138C864.32 82.963 886.948 82.3238 898.32 83.7725C907.432 84.9329 895.966 85.816 902.929 86.2882C906.289 86.5134 909.924 84.2983 910.735 84.2286C918.659 83.5202 924.166 84.5013 931.298 84.2003C932.77 84.1377 931.326 83.2406 932.58 83.1973C936.861 83.0417 941.361 83.4415 945.452 83.3682C947.287 83.3332 946.949 82.6484 948.638 82.7013C952.679 82.82 956.253 83.1083 960.192 83.7511C960.548 83.8104 958.132 84.6627 961.12 84.6944C965.959 84.7434 971.965 85.3765 977.532 84.7218C979.184 84.5246 979.249 82.9578 982.8 84.0401C983.544 84.2667 982.595 86.1484 986.73 84.5225C987.428 84.2518 994.374 82.0594 997.783 83.4727C998.683 83.8449 1000.98 85.3847 1002.97 85.1427C1003.23 85.1032 1002.16 84.2618 1003.8 84.1798C1009.6 83.905 1015.68 83.9952 1021.64 83.7315C1023.23 83.6593 1020.86 82.7877 1023.24 82.7081C1029.76 82.4879 1037.9 82.7098 1044.28 82.9825C1046.63 83.0847 1045.01 83.8063 1045.18 83.8848C1047.93 85.1621 1049.56 83.4385 1050.47 83.338C1056.15 82.7361 1060.47 83.5454 1065.71 83.3311C1067.15 83.2741 1066.13 82.4523 1066.42 82.379C1069.4 81.663 1067.18 83.139 1069.07 83.3018C1074.36 83.7626 1080.25 83.6969 1085.6 83.5919C1087.57 83.5519 1085.36 82.599 1087.12 82.5743C1097.56 82.41 1108.41 82.501 1118.59 83.0264C1120.51 83.1271 1119.3 83.8604 1119.7 84.0284C1122.46 85.2012 1126.49 83.6017 1127.42 83.4493C1131.65 82.7536 1133.29 83.4025 1137.02 83.2813C1155.24 82.6781 1177.74 83.1085 1194.94 83.3741C1217.35 83.7159 1234.75 84.4138 1256.12 84.2325C1257.48 84.2218 1256.11 83.2454 1257.28 83.2237C1272.4 82.9883 1287.29 83.37 1302.44 83.088C1303.68 83.0663 1301.89 82.1407 1303.88 82.0753ZM2404.61 1483.09C2405.33 1481.06 2404.88 1475.06 2404.02 1477.6C2403.35 1479.64 2403.72 1485.62 2404.61 1483.09ZM2402.63 1424.79C2403.17 1418.07 2398.64 1417.46 2400.13 1424.42C2400.21 1424.82 2402.6 1425.19 2402.63 1424.79ZM2393.98 1366.69C2394.34 1360.88 2391.6 1357.43 2391.29 1361.56C2390.97 1365.67 2393.86 1368.46 2393.98 1366.69ZM2286.64 852.421C2287.84 848.115 2284.76 847.2 2285.13 852.016C2285.16 852.249 2286.58 852.643 2286.64 852.421ZM2290.95 846.554C2290.12 844.575 2289.43 851.601 2290.6 850.204C2290.64 850.112 2290.98 846.641 2290.95 846.554ZM2370.24 640.08C2369.43 639.772 2367.77 642.895 2369.05 642.336C2369.13 642.297 2370.49 640.175 2370.24 640.08ZM2449.96 508.978C2450.35 504.467 2443 519.151 2446.11 516.669C2446.28 516.554 2449.93 509.27 2449.96 508.978ZM1598.65 96.5606C1598.64 96.5418 1597.84 96.5529 1596.96 96.5733C1596.97 96.8342 1597 97.0947 1597.06 97.3546C1598.33 97.2711 1599.42 96.9931 1598.65 96.5606ZM795.751 94.0919C798.716 92.4616 787.223 92.2892 789.745 94.002C789.888 94.0905 795.565 94.1734 795.751 94.0919ZM531.571 92.5206C532.897 91.5237 527.963 91.4434 529.002 92.4805C529.064 92.522 531.502 92.5613 531.571 92.5206ZM688.262 91.8848C688.141 91.0329 685.679 91.2726 686.479 92.0596C686.528 92.1064 688.295 92.1489 688.262 91.8848ZM79.3065 90.4747C77.8503 89.8721 73.654 90.5671 75.4676 91.3165C76.9239 91.9185 81.1144 91.2237 79.3065 90.4747ZM116.532 90.2159C121.196 91.3076 121.929 86.8549 116.934 87.755C116.644 87.8066 116.259 90.1525 116.532 90.2159ZM161.82 87.4835C159.005 86.4148 156.698 88.7843 157.914 89.2042C161.904 90.589 164.635 88.5533 161.82 87.4835ZM527.244 88.7081C530.296 89.5654 530.746 86.4256 527.445 87.1768C527.286 87.2193 527.087 88.6648 527.244 88.7081Z" fill="url(#paint1_linear_62_196)"/>
<path d="M2321.81 1082.02C2323.76 1085.44 2325.07 1089.8 2324.67 1093.07C2323.73 1089.4 2322.73 1085.71 2321.81 1082.02Z" fill="url(#paint2_linear_62_196)"/>
<path d="M356.01 94.6397C358.666 94.7066 361.34 94.7167 364.012 94.7784C361.338 95.7814 358.141 95.8992 356.01 94.6397Z" fill="url(#paint3_linear_62_196)"/>
<path d="M5.67368 91.3682C15.9849 91.536 22.2364 95.214 11.0077 94.7989C8.97465 94.7238 15.3895 93.6257 12.8026 93.294C8.06647 92.6898 4.92145 94.9994 0.0887174 93.7618C-0.786107 93.5353 5.08238 91.3508 5.69126 91.3624C5.68521 91.364 5.6794 91.3666 5.67368 91.3682Z" fill="url(#paint4_linear_62_196)"/>
</g>
<defs>
<linearGradient id="paint0_linear_62_196" x1="2481.32" y1="835.233" x2="-0.000295796" y2="835.233" gradientUnits="userSpaceOnUse">
<stop stop-color="#E7FB62"/>
<stop offset="1" stop-color="#FB6262"/>
</linearGradient>
<linearGradient id="paint1_linear_62_196" x1="2481.32" y1="835.233" x2="-0.000295796" y2="835.233" gradientUnits="userSpaceOnUse">
<stop stop-color="#E7FB62"/>
<stop offset="1" stop-color="#FB6262"/>
</linearGradient>
<linearGradient id="paint2_linear_62_196" x1="2481.32" y1="835.233" x2="-0.000295796" y2="835.233" gradientUnits="userSpaceOnUse">
<stop stop-color="#E7FB62"/>
<stop offset="1" stop-color="#FB6262"/>
</linearGradient>
<linearGradient id="paint3_linear_62_196" x1="2481.32" y1="835.233" x2="-0.000295796" y2="835.233" gradientUnits="userSpaceOnUse">
<stop stop-color="#E7FB62"/>
<stop offset="1" stop-color="#FB6262"/>
</linearGradient>
<linearGradient id="paint4_linear_62_196" x1="2481.32" y1="835.233" x2="-0.000295796" y2="835.233" gradientUnits="userSpaceOnUse">
<stop stop-color="#E7FB62"/>
<stop offset="1" stop-color="#FB6262"/>
</linearGradient>
</defs>
</svg>
