<svg width="1592" height="511" viewBox="0 0 1592 511" fill="none" xmlns="http://www.w3.org/2000/svg">
<path d="M1495.32 1498.02C1500.39 1484.3 1506.35 1476.79 1501.08 1491.96C1500.09 1494.69 1501.93 1485.65 1500.46 1489.05C1497.78 1495.25 1498.42 1500.29 1494.72 1506.37C1494.07 1507.46 1495.05 1498.8 1495.32 1498C1495.32 1498 1495.32 1498.01 1495.32 1498.02Z" fill="url(#paint0_linear_62_202)"/>
<path fill-rule="evenodd" clip-rule="evenodd" d="M413.882 0.0752743C417.974 -0.0655148 423.159 -0.015187 427.297 0.280352C429.315 0.422783 426.609 1.21664 428.64 1.34383C433.37 1.64162 438.442 1.70805 443.301 1.55965C445.368 1.49442 442.249 0.548114 444.936 0.537188C463.245 0.443265 481.226 0.279998 499.727 1.50594C500.996 1.59027 502.109 3.51434 504.806 3.14559C505.009 2.61162 504.998 1.98291 505.087 1.41219C531.739 1.10474 558.12 1.77195 584.848 1.87508C585.974 1.87909 584.027 0.859584 586.209 0.862384C598.836 0.877449 611.098 0.595186 624.014 1.60848C625.295 1.7077 624.638 3.50082 628.415 3.22957C629.084 3.17998 634.769 2.94105 636.239 2.55184C636.438 2.49271 635.402 1.65533 637.234 1.63094C647.886 1.50382 659.048 1.69561 669.681 2.20711C671.396 2.29133 669.569 3.18224 670.791 3.25008C678.485 3.67005 686.779 3.18479 694.339 3.63582C697.244 3.05429 695.661 2.15588 700.933 1.83113C714.15 1.04105 730.377 0.883542 743.677 1.03133C747.526 1.08232 745.583 1.67623 748.284 1.73836C753.516 1.86184 759.086 1.50733 764.263 1.70516C765.967 1.77385 763.854 2.6795 765.645 2.73152C775.413 3.01174 785.783 2.72888 795.658 2.91512C846.767 3.84923 896.296 5.47248 947.682 8.72274C964.87 9.80586 985.036 11.9482 1002.63 12.9884C1004.65 13.1062 1003.51 12.2407 1003.9 12.2071C1010.02 11.7163 1007.89 13.1124 1011.83 13.6436C1027.57 15.7623 1044.95 17.4651 1060.16 18.7716C1066.64 19.3291 1060.32 17.1073 1066.74 18.6661C1067.19 18.7733 1065.46 19.4126 1067.22 19.6925C1071.18 20.3174 1078.76 21.0242 1081.84 21.4522C1087.79 22.2783 1088.78 22.3892 1094.43 23.0889C1102.18 24.0598 1111.25 25.6438 1119.54 26.5909C1121.31 26.7907 1119.09 25.635 1121.92 25.88C1124.75 26.1224 1132.19 27.2509 1134.68 27.8175C1137.16 28.3806 1135.99 28.8806 1136.42 29.0958C1139.89 30.8935 1148.73 30.4437 1149.85 30.5772C1170.11 32.9695 1187.23 36.9706 1206.01 40.587C1220.28 43.3362 1235.61 46.2236 1249.05 49.3458C1265.25 53.1213 1278.44 56.8775 1294.1 61.0499C1295.74 61.4897 1294.08 60.01 1296.09 60.547C1317.22 66.231 1338.15 72.8074 1358.57 80.7735C1360.63 81.5778 1357.66 81.4432 1359.69 82.296C1372.15 87.4217 1391.11 96.8458 1399.93 96.5802C1408.18 100.254 1418.23 105.017 1425.26 109.297C1429.76 112.047 1424.78 110.644 1430.71 113.139C1432.04 113.706 1430.74 112.121 1432.71 113.032C1440.88 116.808 1449.85 121.955 1457.88 126.127C1459.52 126.977 1459.46 126.085 1459.98 126.232C1464.35 127.518 1469.57 132.834 1470.93 133.855C1480.91 141.308 1488.18 145.856 1497.38 152.784C1499.51 154.4 1497.6 151.697 1499.66 153.23C1510.31 161.176 1520.61 170.166 1529.52 179.66C1531.48 181.76 1529.02 180.496 1529.92 181.529C1532.62 184.638 1534.41 185.567 1536.46 187.265C1537.45 188.096 1538.49 189.096 1539.67 190.567C1540.46 191.546 1539.44 191.507 1539.54 191.731C1540.98 195.208 1544.27 196.335 1544.88 196.999C1552.38 205.078 1555.69 212.559 1561.72 221.263C1562.48 222.38 1561.61 219.314 1563.69 222.494C1577.31 243.131 1586.99 268.476 1589.41 292.912C1589.8 296.707 1588.76 294.096 1588.71 294.346C1587.87 298.352 1589.85 300.644 1590.02 301.881C1591.32 311.666 1589.63 320.718 1591.32 327.476C1587.85 368.974 1572.88 408.401 1552.61 443.415C1552.36 443.864 1552 442.637 1551.49 443.532C1545.26 454.281 1547.59 452.746 1545.08 460.778C1544.44 462.815 1539.58 467.286 1539.18 467.684C1537.71 469.163 1537.61 466.699 1537.18 467.232C1533.68 471.659 1537.9 473.036 1534.05 479.596C1533.92 479.797 1533.74 478.533 1533.35 479.042C1532.12 480.633 1531.41 482.452 1530.19 483.97C1527.38 487.43 1524.78 487.686 1522.32 494.091C1522.01 494.9 1524.78 495.082 1521.16 500.762C1519.73 503.022 1513.47 513.193 1511.57 515.916C1509.67 518.653 1510.21 516.298 1510.05 516.48C1504.4 523.523 1505.84 520.41 1502.14 523.391C1498.44 526.373 1502.22 527.281 1501.59 529.049C1500.96 530.82 1496.72 535.92 1495.61 537.127C1494.49 538.333 1495.14 536.361 1494.23 537.484C1488.22 544.947 1493.55 541.992 1492.37 544.958C1489.6 551.96 1484.24 555.378 1480.45 560.988C1479.42 562.509 1480.73 561.565 1479.92 562.983C1476.71 568.602 1473.96 571.444 1470.82 578.137C1470.3 579.236 1468.65 585.167 1465.66 587.846C1465.24 588.223 1465.44 586.551 1463.91 588.834C1461.64 592.214 1457.76 598.61 1455.79 602.544C1454.34 605.455 1457.15 602.767 1454.84 606.152C1453.82 607.657 1454.89 604.405 1453.02 607.262C1451.13 610.128 1446.97 617.817 1445.46 620.741C1443.95 623.661 1445.54 622.466 1445.47 622.727C1445.01 624.278 1442.44 630.153 1442.2 630.646C1429.94 655.146 1418.77 678.184 1412.69 704.113C1412.52 704.84 1412.36 705.569 1412.2 706.299C1411.73 708.415 1412.94 707.218 1412.87 707.543C1411.57 714.831 1410.55 708.609 1408.64 713.498C1410.58 713.158 1409.58 716.069 1408.76 721.2C1408.37 723.672 1409.32 722.471 1409.35 722.709C1409.69 726.538 1407.89 728.809 1407.49 729.416C1406.04 731.665 1406.81 734.528 1405.86 736.072C1404.91 737.625 1404.5 733.636 1403.74 738.599C1404.18 740.083 1406.41 736.675 1406.12 740.461C1404.84 754.648 1401.45 781.072 1401.19 792.602C1400.79 804.066 1400.99 807.773 1400.85 814.459C1400.72 826.548 1401.88 822.088 1402.77 829.542C1403.73 837.007 1400.45 833.536 1399.84 834.652C1399.23 835.753 1399.99 836.874 1399.7 838.218C1399.42 839.56 1398.78 836.733 1398.85 839.846C1398.9 842.966 1400.77 851.361 1401.58 852.392C1403.27 854.576 1404.44 850.636 1404.68 858.841C1404.7 859.312 1403.73 857.875 1403.83 859.675C1404.64 873.985 1406.64 888.796 1408.46 903.037C1408.71 904.998 1407.52 903.407 1407.66 904.551C1409.13 916.479 1409.92 911.972 1412.77 918.101C1410.28 917.07 1409.54 920.89 1411.32 929.832C1412.4 935.201 1413.18 934.09 1414.58 937.398C1415.01 938.388 1415.15 942.305 1415.75 942.891C1417.73 944.82 1418.6 940.912 1419.97 950.177C1420.02 950.584 1418.93 949.492 1419.19 950.887C1420.9 959.905 1422.7 960.62 1425.22 970.177C1427.19 977.673 1429.68 991.297 1431.84 999.871C1429.32 1000.35 1432.07 1008.28 1434.67 1011.08C1436.13 1016.64 1437.9 1022.58 1439.19 1027.98C1439.64 1029.84 1438.59 1028.84 1438.58 1029.09C1438.39 1032.99 1440.73 1034.92 1441.14 1036.09C1445.5 1048.82 1447.39 1059.67 1452.3 1071.6C1452.48 1072.02 1454.38 1072.22 1454.14 1075.88C1454.12 1076.11 1452.12 1072.29 1453.81 1078.09C1455.5 1083.88 1457.9 1095.05 1461.13 1102.83C1461.91 1104.71 1464.78 1109.2 1464.9 1113.46C1464.92 1114.03 1464.26 1113.6 1464.22 1114.44C1464.1 1117.15 1466.22 1117.98 1465.64 1121.3C1465.06 1124.63 1465.79 1130.95 1469.22 1138.72C1469.33 1138.97 1471.26 1140.47 1472 1143.04C1473.18 1147.13 1474.61 1152.99 1475.87 1157.24C1476.47 1159.27 1476.93 1157.72 1477.05 1158.07C1481.52 1171.6 1483.57 1181.61 1487.27 1196.45C1487.95 1199.17 1491.2 1206.65 1491.63 1212.13C1492.1 1218.14 1486.44 1213.28 1490.76 1226.3C1492.49 1231.55 1499.46 1236.99 1498.9 1247.36C1503.81 1265.99 1505.79 1283.66 1509.67 1302.6C1509.85 1303.45 1511.76 1305.94 1512.03 1307.97C1512.42 1310.97 1511.93 1312.71 1512.16 1314.84C1513.12 1323.9 1514.61 1332.07 1515.23 1340.77C1515.46 1344.1 1514.64 1342.99 1514.89 1346.95C1515.12 1350.9 1516.26 1353.48 1516.04 1358.84C1515.86 1362.89 1514.02 1367 1513.87 1372.34C1515.83 1372.52 1515.88 1376.2 1516.35 1382.75C1516.44 1384.01 1517.13 1382.67 1517.21 1383.26C1517.54 1385.7 1516.93 1387.92 1517.25 1390.25C1517.33 1390.81 1517.99 1390.86 1518.09 1391.32C1518.98 1395.28 1517.14 1401.67 1516.81 1402.74C1515.56 1406.91 1516.28 1408.93 1515.62 1412.13C1514.95 1415.33 1514.88 1410.46 1514.31 1414.21C1513.14 1421.95 1512.01 1431.93 1510.68 1439.74C1510.15 1442.86 1511.39 1440.88 1511.33 1441.33C1510.47 1447.84 1508.21 1454.14 1509.15 1458.09C1503.64 1461.53 1508.79 1462.05 1505.55 1470.95C1505.29 1471.65 1502.95 1471.99 1503.35 1469.18C1503.76 1466.38 1505.44 1462.4 1505.8 1458.48C1505.9 1457.54 1505.01 1451.94 1505.02 1451.21C1505.17 1445.51 1508.47 1445.31 1508.71 1445.05C1511.23 1442.03 1510.08 1435.25 1510.16 1433.55C1510.59 1425.72 1511.76 1419.2 1511.83 1412.65C1511.87 1408.37 1509.76 1407.81 1510.05 1404.49C1510.92 1393.5 1513.99 1389.61 1511.46 1379.15C1510.9 1376.9 1508.63 1379.16 1510.34 1371.12C1510.46 1370.63 1511.99 1364.56 1510.78 1361.19C1510.63 1360.76 1509.95 1360.8 1509.87 1360.24C1509.33 1356.45 1509.74 1353.88 1509.21 1349.74C1508.68 1345.6 1507.9 1340.6 1507.7 1335.88C1507.57 1333.03 1508.45 1329.24 1508.61 1327.84C1509.08 1323.87 1507.12 1319.89 1507.89 1317.36C1508.66 1314.8 1510.91 1319.31 1510.77 1312.89C1508.99 1312.89 1507.13 1312.59 1505.32 1312.46C1503.51 1298.68 1501.76 1285.03 1498.96 1271.26C1498.61 1269.55 1498.02 1271.49 1497.62 1269.66C1495.93 1261.99 1495.16 1255.18 1493.09 1247.24C1491.47 1241.07 1488.91 1234.66 1487.07 1228.29C1488.07 1223.88 1484.99 1214.51 1483.34 1207.59C1482.76 1205.17 1483.32 1205.19 1483.03 1203.42C1481.92 1196.77 1481.01 1200.27 1480.26 1198.57C1477.02 1191.24 1480.75 1189.56 1478.12 1180.61C1477.99 1180.14 1474.27 1174.92 1473.91 1174.16C1471.6 1169.32 1474.38 1173.11 1473.62 1169.88C1472.22 1163.99 1471.55 1159.85 1468.93 1153.23C1468.17 1151.3 1465.47 1146.93 1465.31 1142.78C1465.29 1142.23 1466.06 1142.31 1465.98 1141.89C1464.44 1134.34 1462.23 1134.78 1460.24 1130.8C1458.24 1126.81 1457.75 1119.85 1457.77 1118.4C1457.81 1114.59 1459.05 1120.91 1459.21 1121.07C1461.17 1122.88 1459.5 1118.19 1458.51 1114.54C1460.45 1113.38 1458.78 1108.36 1457.47 1110.76C1457.33 1111.03 1458.38 1113.79 1458.51 1114.54C1455.49 1111.99 1453.53 1106.51 1453.57 1099.77C1453.6 1096.61 1455.48 1099.02 1452.43 1090.38C1451.05 1086.46 1450.07 1088.43 1448.61 1085.05C1445.28 1077.31 1443.48 1066.47 1440.81 1058.26C1439.84 1055.28 1439.92 1058.44 1439.23 1056.41C1437.4 1051.02 1436.58 1046.03 1434.68 1040.63C1434.5 1040.14 1434.02 1041.6 1433.52 1039.9C1429.67 1026.96 1427.01 1015.52 1423.37 1001.9C1421.6 995.328 1418.08 983.653 1416.48 976.764C1413.68 964.86 1411.52 949.862 1409.08 939.715C1407.49 933.085 1406.96 934.709 1405.79 931.955C1403.53 926.624 1403.7 916.399 1403.79 915.024C1403.81 915.095 1405.05 920.688 1404.92 917.558C1405.5 915.606 1403.81 915.092 1403.79 915.024C1403.81 914.135 1401.99 902.502 1401.48 900.223C1401.19 898.985 1400.5 899.816 1400.36 899.167C1397.15 883.771 1394.93 868.064 1393.92 852.079C1393.91 851.797 1394.86 852.14 1394.83 851.478C1394.46 842.215 1392.97 836.404 1391.95 828.768C1390.94 821.14 1391.04 815.025 1392.57 810.483C1392.29 804.714 1393.08 796.428 1393.65 791.686C1394.22 786.945 1392.48 786.21 1392.46 785.787C1391.92 772.635 1393.51 765.103 1395.21 751.604C1396 745.213 1397.64 732.425 1398.76 725.501C1399.61 720.038 1400.68 716.85 1401.51 711.792C1401.62 711.108 1400.7 711.62 1400.71 711.407C1401.03 705.6 1402.34 708.721 1402.93 707.647C1403.99 705.774 1404.84 704.249 1405.57 702.36C1406.35 700.34 1407 697.908 1407.73 694.167C1408.04 692.522 1406.77 686.936 1407.57 683.922C1408.61 680.039 1409.09 681.793 1410.21 677.732C1410.31 677.385 1409.69 677.253 1410.58 674.8C1414.74 663.389 1420.13 651.456 1425.36 640.167C1426.08 638.618 1424.25 640.184 1425.29 637.936C1430.1 627.467 1435.97 616.263 1441.76 606.701C1443.19 604.34 1442.96 606.188 1443.43 605.762C1446.29 603.122 1447.25 597.795 1447.65 597.023C1457.04 578.841 1466.56 566.457 1476.84 548.523C1477.39 547.545 1480.36 539.192 1483.81 536.812C1484.04 536.646 1487.5 534.32 1488.32 530.857C1488.37 530.643 1486.37 532.186 1488.66 528.731C1490.94 525.275 1494 519.331 1497.83 515.026C1499.04 513.662 1502.72 510.96 1504.42 505.702C1504.53 505.35 1506.32 496.726 1509.64 495.321C1510.18 495.096 1511.81 496.681 1514.17 490.653C1514.62 489.494 1513.04 491.132 1514.45 488.221C1516.61 483.757 1520.47 478.499 1522.68 472.806C1523.06 471.805 1524.04 467.181 1526.81 464.654C1527.24 464.258 1527.35 465.55 1528.36 463.952C1533.17 456.391 1537.33 447.861 1541.99 440.059C1543.65 437.272 1543.95 439.292 1545.78 436.441C1547.62 433.579 1550.89 427.714 1551.93 424.249C1552.96 420.831 1549.6 423.479 1551.69 418.669C1560.7 397.8 1569.7 377.206 1574.62 355.397C1575.32 352.175 1574.12 354.704 1575.04 349.965C1579 332.333 1578.59 301.813 1576.43 286.582C1575.05 274.334 1579.17 289.318 1577.6 279.958C1576.78 275.389 1573.2 271.175 1572.83 270.216C1568.95 260.249 1566.97 253.067 1562.3 244.401C1561.31 242.612 1561.43 244.803 1560.59 243.282C1557.82 238.296 1555.11 232.879 1551.92 228.098C1550.49 225.977 1550.22 226.806 1549 224.898C1546.06 220.374 1543.39 216.246 1540.43 211.469C1540.17 211.044 1542.91 213.124 1540.4 209.913C1537 205.589 1532.9 200.078 1527.97 195.188C1527.14 194.37 1526.3 193.578 1525.43 192.819C1523.71 191.323 1522.57 192.351 1519.87 188.142C1519.29 187.267 1521.57 186.813 1516.29 184.012C1515.44 183.535 1506.73 178.515 1504.16 174.538C1503.47 173.458 1502.03 170.238 1499.73 168.684C1499.41 168.479 1500.04 170.073 1498.22 168.702C1491.79 163.872 1484.89 158.637 1478.03 154.223C1476.18 153.032 1478.39 155.608 1475.64 153.817C1468.06 148.89 1458.42 142.603 1450.96 137.983C1448.17 136.257 1450.49 136.763 1450.33 136.576C1447.63 133.548 1444.77 133.935 1443.6 133.4C1436.27 130.032 1431.33 126.544 1424.71 123.469C1422.88 122.62 1423.79 123.993 1423.4 123.88C1419.35 122.676 1422.79 122.726 1420.48 121.415C1414.03 117.749 1406.28 114.245 1399.49 111.389C1396.96 110.326 1399.41 112.433 1397.14 111.473C1383.65 105.788 1369.46 100.133 1356.13 94.7989C1353.61 93.7894 1355.46 93.6738 1354.99 93.3253C1351.71 90.9051 1345.69 90.5241 1344.44 90.2608C1338.63 89.0232 1336.64 87.6888 1331.61 86.1837C1306.78 78.7346 1276.38 70.0959 1252.66 64.3175C1221.83 56.7969 1197.71 51.4052 1167.75 46.5098C1165.84 46.202 1167.6 47.4856 1165.96 47.2335C1144.78 43.9434 1123.86 40.508 1102.55 38.0577C1100.8 37.8556 1103.21 39.0962 1100.38 38.8018C1094.58 38.2041 1087.27 37.2625 1081.47 36.2891C1078.64 35.8162 1082.55 35.471 1079.7 35.0118C1073.06 33.9415 1065.98 33.0912 1059.03 32.5079C1056.09 32.2645 1060.42 33.6705 1056.6 33.2823C1030.71 30.6816 1005.41 28.6795 979.076 25.63C977.284 25.4223 975.833 23.3928 971.999 23.5089C971.677 24.0227 971.652 24.6508 971.489 25.212C933.598 23.0304 896.156 20.7682 858.144 19.8145C856.523 19.7746 859.3 20.8545 856.165 20.7833C838.329 20.3855 820.836 20.4548 802.391 19.3985C800.548 19.2964 801.465 17.5014 796.093 17.7706C795.121 17.8173 787.188 18.0694 785.218 18.4698C784.91 18.5299 786.483 19.3604 783.749 19.3966C768.155 19.5937 752.514 19.6089 737.432 19.4317C734.902 19.4042 737.57 18.452 735.774 18.4249C725.645 18.2612 714.769 18.9774 704.499 19.0391C704.409 19.1235 704.278 19.2 704.086 19.2608C702.92 19.6299 701.638 18.8775 699.704 19.3116C697.771 19.7513 698.62 20.7727 694.76 20.8936C685.794 21.1672 674.041 20.8742 665.109 20.4727C662.31 20.3482 663.727 19.7918 661.795 19.6807C658.016 19.4643 654.494 19.7373 650.76 19.4796C649.522 19.3914 651.062 18.5099 649.765 18.4376C642.653 18.048 635.924 18.2724 628.72 18.085C593.232 17.1604 558.348 16.8295 522.427 16.4278C510.582 16.2961 496.184 15.4959 483.95 15.8458C482.522 15.8874 483.373 16.6606 483.101 16.7247C478.84 17.701 480.257 16.1394 477.474 15.9317C466.43 15.1122 454.149 15.0413 443.52 15.3399C438.999 15.4692 443.532 17.0063 438.979 16.1436C438.663 16.0853 439.81 15.2636 438.57 15.1759C435.758 14.9787 430.423 15.1247 428.243 15.0596C424.043 14.93 423.348 14.9391 419.375 14.9298C413.944 14.9098 407.483 14.5014 401.656 14.6876C400.412 14.7298 402.058 15.5715 400.075 15.7149C398.089 15.858 392.837 15.7865 391.066 15.588C389.296 15.3893 390.049 14.7271 389.736 14.5753C387.158 13.2944 381.082 15.0683 380.3 15.1124C366.046 15.8599 353.823 14.8498 340.444 14.8526C330.287 14.8569 319.426 15.1904 309.762 15.1446C298.247 15.0868 288.488 14.6306 277.303 14.7091C276.123 14.7165 277.505 15.7067 276.064 15.7179C260.746 15.8331 245.533 15.7254 230.281 15.0567C228.752 14.9887 230.722 14.1191 229.195 13.9991C219.839 13.2844 205.034 11.5674 199.476 15.3536C193.139 15.2057 185.444 15.0533 179.774 14.2901C176.119 13.7989 179.669 12.8508 175.179 13.255C174.166 13.345 175.482 14.1748 173.964 14.2471C167.569 14.5509 160.582 14.2814 154.256 14.71C152.969 14.7992 153.32 15.5427 152.956 15.6768C149.892 16.7609 144.791 14.9685 143.679 14.838C135.211 13.8669 129.026 14.2494 121.138 14.2257C119.308 14.2199 121.471 15.2179 119.71 15.2481C110.574 15.3912 101.11 15.3055 92.1649 14.8624C90.1751 14.7614 92.0042 13.9113 91.0536 13.8194C86.8613 13.4252 85.9316 15.0316 81.911 14.6846C81.0635 14.6136 81.54 13.8861 81.3856 13.8057C78.9658 12.5505 76.8629 14.3287 76.2401 14.3682C68.3664 14.9048 63.3329 13.0477 55.7264 13.3106C54.8167 13.344 56.8682 14.2654 54.3104 14.3028C37.2685 14.5572 19.2446 14.3034 2.37585 13.5665C-0.246704 13.4532 1.62408 12.7614 1.45984 12.6759C-1.22955 11.3432 -2.96991 13.1285 -3.82532 13.1964C-10.5719 13.6806 -16.8751 12.1831 -21.4591 14.3106C-50.0318 13.5723 -78.4741 14.7665 -106.811 12.8604C-107.171 12.838 -106.526 11.9598 -107.243 11.919C-115.898 11.4251 -114.237 12.7918 -119.963 14.4639C-121.405 14.8837 -125.792 12.8658 -126.183 12.7169C-127.597 12.1716 -126.131 10.8627 -126.605 10.7569C-130.524 9.92804 -129.886 14.2564 -135.174 14.2579C-135.338 14.2495 -134.645 13.4545 -135.088 13.3751C-136.467 13.1264 -137.834 13.4422 -139.184 13.168C-142.272 12.5334 -143.372 10.4304 -148.089 11.6544C-148.685 11.814 -147.775 14.2683 -152.495 14.1524C-154.377 14.1041 -162.708 14.1465 -165.044 13.9874C-167.376 13.8285 -165.776 13.0376 -165.942 13.003C-172.225 11.9568 -169.843 11.5236 -172.991 9.97469C-176.139 8.43187 -175.266 12.111 -176.549 12.5225C-177.834 12.9321 -182.441 12.0688 -183.574 11.7686C-184.706 11.4684 -183.295 10.9659 -184.301 10.796C-190.973 9.68608 -187.23 12.6229 -189.428 13.2071C-194.611 14.5901 -198.648 11.8603 -203.393 11.5929C-204.676 11.5207 -203.629 12.1419 -204.772 12.2003C-209.299 12.4223 -212.024 11.5708 -217.175 12.3516C-218.018 12.4794 -222.182 14.12 -224.877 12.9161C-225.259 12.7425 -224.174 12.0617 -226.104 11.9093C-228.986 11.6806 -234.18 11.5325 -237.279 11.7598C-239.567 11.928 -236.945 13.0483 -239.824 12.7003C-241.104 12.5448 -238.733 11.8898 -241.137 11.6524C-243.528 11.4151 -249.644 11.4433 -251.971 11.4659C-254.292 11.4891 -253.023 12.3389 -253.21 12.3966C-254.346 12.7246 -258.802 13.1348 -259.197 13.1339C-279.067 13.2376 -297.39 11.8041 -316.735 12.2784C-318.253 12.3145 -317.243 13.2105 -317.474 13.2257C-322.671 13.6013 -318.574 11.2178 -322.204 10.42C-321.679 12.2392 -323.823 11.91 -327.484 12.1095C-329.245 12.2069 -328.29 12.9098 -328.447 12.9835C-331.063 14.0532 -332.885 12.6719 -333.355 12.3888C-335.087 11.3489 -336.974 12.5778 -338.152 11.8829C-339.331 11.193 -336.619 10.1696 -340.13 10.1827C-341.115 10.8339 -338.509 12.5357 -341.174 12.8116C-351.232 13.8548 -370.007 12.5197 -378.094 12.3809C-386.165 12.2424 -388.772 12.3624 -393.475 12.127C-401.97 11.7015 -398.857 12.9641 -404.132 13.5421C-409.422 14.1198 -406.85 11.0137 -407.611 10.3458C-408.357 9.67827 -409.172 10.365 -410.101 9.99813C-411.026 9.63126 -409.023 9.1779 -411.199 9.04012C-413.378 8.9025 -419.332 10.0898 -420.105 10.7882C-421.736 12.2676 -419.054 13.82 -424.817 13.2745C-425.148 13.242 -424.073 12.4256 -425.341 12.3429C-435.421 11.714 -445.895 11.6754 -455.963 11.1192C-457.347 11.0414 -456.11 10.1329 -456.915 10.0772C-465.307 9.49603 -462.308 11.0275 -466.906 12.7296C-465.874 10.4646 -468.418 9.07891 -474.786 9.06551C-478.614 9.05669 -477.956 10.046 -480.432 10.7432C-481.175 10.9534 -483.884 10.2743 -484.375 10.7393C-485.993 12.2602 -483.443 13.963 -490.008 13.2852C-490.296 13.253 -489.38 12.4209 -490.374 12.3702C-496.809 12.0402 -497.579 13.6306 -504.534 13.8233C-509.986 13.9745 -519.683 13.0046 -525.891 12.8468C-525.761 10.3003 -531.623 10.8831 -534.002 12.6388C-538.031 12.5669 -542.383 12.6666 -546.277 12.4239C-547.616 12.3412 -546.737 11.6034 -546.905 11.5235C-549.496 10.2741 -551.247 11.9811 -552.117 12.0489C-561.542 12.6999 -569.222 11.4057 -578.216 12.671C-578.535 12.7166 -579.053 14.485 -581.457 13.1934C-581.612 13.1043 -578.643 12.2997 -582.873 12.2374C-587.105 12.175 -595.083 11.2273 -600.958 12.047C-602.38 12.2443 -605.976 13.6797 -608.862 12.5577C-609.246 12.4052 -608.826 11.8986 -609.381 11.6163C-611.175 10.7167 -612.155 12.5044 -614.264 10.9854C-616.373 9.46644 -620.76 8.32903 -626.685 9.37703C-626.874 9.40834 -628.276 10.824 -630.139 10.8018C-633.113 10.7648 -637.336 10.4704 -640.442 10.4796C-641.929 10.4845 -640.978 11.3635 -641.236 11.38C-651.234 11.8731 -658.35 11.0886 -669.062 10.7481C-671.025 10.6841 -676.668 11.8843 -680.469 10.9356C-684.643 9.89704 -680.354 5.57642 -689.947 6.60555C-693.817 7.01724 -698.716 12.4987 -705.67 9.65926C-719.157 10.3629 -731.63 8.90938 -745.154 9.91414C-745.763 9.95925 -747.686 11.4886 -749.115 11.4679C-751.238 11.434 -752.403 10.7181 -753.919 10.671C-760.27 10.4557 -766.082 11.0679 -772.205 10.9727C-774.53 10.9381 -773.717 10.1987 -776.489 10.1573C-779.26 10.1167 -781.108 11.0903 -784.863 10.6202C-787.7 10.2618 -790.536 8.27209 -794.3 8.04012C-794.444 10.0028 -797.029 9.96246 -801.624 10.4805C-802.507 10.5811 -801.561 11.2636 -801.978 11.3468C-803.678 11.6988 -805.252 11.1328 -806.866 11.5157C-807.259 11.6077 -807.278 12.278 -807.599 12.3917C-810.329 13.3787 -814.827 11.8713 -815.601 11.6085C-818.562 10.6115 -819.946 11.4833 -822.217 11.0909C-824.485 10.6983 -821.095 10.2071 -823.743 9.96883C-829.234 9.47613 -836.288 9.58459 -841.864 9.55379C-844.089 9.54564 -842.572 10.44 -842.89 10.46C-847.49 10.687 -852.143 9.73555 -854.694 11.5177C-857.884 6.90953 -857.469 11.9645 -864.045 11.0421C-864.563 10.9665 -865.221 8.7877 -863.233 8.46785C-861.244 8.14843 -858.228 8.82979 -855.469 8.33113C-854.814 8.21324 -851.072 6.1716 -850.562 6.04793C-846.564 5.08212 -845.995 8.33472 -845.783 8.51668C-843.384 10.4466 -838.81 8.2472 -837.605 8.09481C-832.094 7.39831 -827.412 7.85662 -822.803 7.35945C-819.789 7.038 -819.494 4.90564 -817.127 4.97078C-809.259 5.18663 -806.512 8.16224 -799.097 5.58211C-797.507 5.03167 -799.086 2.70009 -793.39 4.53328C-793.028 4.65038 -788.801 6.32501 -786.359 5.26473C-786.052 5.13028 -786.061 4.45187 -785.657 4.39461C-782.945 4.02544 -781.135 4.56694 -778.18 4.3077C-775.225 4.04845 -771.673 3.66226 -768.299 3.89266C-766.266 4.0305 -763.657 5.2965 -762.684 5.60652C-759.936 6.49925 -756.989 5.03538 -755.286 6.11629C-753.57 7.2029 -756.925 8.85269 -752.423 9.55477C-752.256 7.7896 -751.874 5.9774 -751.606 4.20223C-741.739 4.26439 -732.031 4.83586 -722.132 4.75789C-720.905 4.74638 -722.159 3.7976 -720.844 3.76082C-715.293 3.61007 -710.444 4.2861 -704.688 4.01668C-700.232 3.80449 -695.346 2.80014 -690.687 2.54695C-687.84 4.5669 -680.926 3.88091 -675.903 4.06551C-674.145 4.12932 -674.261 4.66874 -673.011 4.84481C-668.291 5.49566 -670.502 3.71084 -669.208 3.42977C-663.656 2.23096 -663.18 6.27072 -656.635 6.17098C-656.287 6.16643 -652.05 4.01459 -651.465 3.87996C-647.756 3.00554 -650.851 4.62888 -648.529 4.78817C-644.291 5.07896 -641.345 5.5937 -636.371 4.96297C-634.921 4.77605 -631.442 3.43347 -628.625 4.47176C-628.255 4.60809 -628.459 5.31974 -628.161 5.36141C-622.764 6.05614 -622.622 3.81913 -619.537 3.0616C-616.452 2.30438 -611.687 3.84901 -610.718 4.29402C-608.183 5.44468 -612.658 4.7863 -612.799 4.89852C-614.413 6.24301 -610.938 6.01147 -608.282 6.12508C-607.898 8.31814 -604.185 8.18669 -605.529 6.23445C-605.683 6.0212 -607.749 6.22519 -608.282 6.12508C-605.952 3.97341 -601.871 3.69825 -597.363 5.70906C-595.254 6.65151 -597.247 7.74972 -590.838 7.34774C-587.93 7.16609 -589.053 5.65591 -586.486 5.24422C-580.622 4.30499 -573.001 5.71422 -566.955 5.49227C-564.762 5.4116 -566.898 4.58461 -565.399 4.50106C-561.419 4.27683 -557.909 4.89689 -553.912 4.57918C-553.55 4.5491 -554.434 3.68396 -553.192 3.67293C-543.769 3.57247 -535.564 4.12729 -525.726 4.14266C-520.972 4.14965 -512.474 3.67172 -507.55 3.76766C-499.015 3.92886 -488.516 5.18754 -481.226 4.88192C-476.471 4.68623 -477.513 3.82024 -475.476 3.23055C-471.544 2.08772 -464.584 4.13519 -463.647 4.45223C-463.638 4.46364 -467.705 4.66821 -465.527 5.11141C-464.257 6.03654 -463.693 4.45624 -463.647 4.45223C-463.028 4.65699 -454.858 4.85395 -453.235 4.68856C-452.353 4.59806 -452.846 3.77781 -452.386 3.74617C-441.456 3.01236 -430.507 2.80417 -419.421 3.18758C-419.226 3.20458 -419.52 4.12103 -419.061 4.14852C-412.643 4.55628 -408.534 3.43481 -403.24 2.76863C-397.948 2.10277 -393.751 2.32585 -390.618 3.90047C-386.625 3.70225 -380.896 4.39799 -377.6 4.82039C-374.303 5.24272 -373.843 3.45725 -373.553 3.42195C-364.506 2.29226 -359.276 3.31465 -349.89 3.47371C-345.428 3.55238 -336.575 3.29298 -331.743 3.09774C-327.925 2.94052 -325.625 3.3584 -322.107 3.0909C-321.631 3.05501 -322.111 2.26018 -321.966 2.22957C-318.04 1.27856 -319.926 3.22232 -319.115 3.56941C-316.176 4.83156 -314.359 5.504 -309.331 4.91024C-308.171 4.77334 -304.793 1.97631 -302.679 1.81258C-299.93 1.60499 -300.967 2.60727 -298.089 2.36434C-297.843 2.34422 -297.893 1.72573 -296.117 1.75301C-287.871 1.87152 -278.881 2.23201 -270.312 2.17C-269.142 2.16374 -270.642 1.18227 -268.95 1.15731C-261.015 1.04097 -252.316 1.07681 -244.585 1.53621C-242.683 1.65245 -243.875 2.33999 -243.462 2.54402C-240.926 3.77822 -237.33 1.98481 -236.736 1.95027C-222.581 1.08823 -211.747 2.71148 -197.319 1.93856C-196.533 1.89259 -190.489 -0.0288688 -187.792 1.6202C-187.606 1.73094 -184.938 3.4171 -182.579 2.26375C-182.435 2.19047 -184.094 1.3228 -181.194 1.41121C-178.293 1.49954 -173.622 0.919637 -169.634 1.8741C-168.371 2.17504 -165.386 3.85734 -161.62 2.5157C-161.372 2.4208 -155.56 -0.61103 -153.484 1.48152C-153.148 1.82621 -153.5 4.04107 -149.004 2.90535C-148.146 2.68513 -149.704 2.19139 -147.442 1.88289C-143.975 1.40743 -139.38 2.00053 -135.118 1.01375C-134.374 0.838555 -131.21 -0.664315 -128.673 0.476641C-128.276 0.655694 -129.03 1.39488 -127.691 1.47762C-121.317 1.87459 -114.642 1.38 -108.171 1.89168C-105.88 2.07164 -107.051 3.26658 -104.662 3.58699C-102.272 3.90726 -97.4575 4.21535 -94.9572 3.66902C-92.457 3.12231 -95.1879 1.217 -91.4415 1.06453C-75.1534 0.40236 -59.0182 1.52016 -42.754 1.68367C-40.342 1.70806 -42.3409 1.02669 -38.7863 1.01375C-25.68 0.963012 -3.05249 0.323809 8.32019 1.77254C17.432 2.93293 5.96558 3.81596 12.9286 4.28817C16.2885 4.51335 19.9241 2.29834 20.7352 2.22859C28.6589 1.52022 34.1658 2.50133 41.2977 2.20027C42.7702 2.13774 41.3265 1.2406 42.58 1.19734C46.8611 1.04169 51.361 1.44155 55.452 1.36824C57.2869 1.33322 56.9493 0.648424 58.6376 0.701251C62.6786 0.819997 66.2529 1.10833 70.1923 1.75106C70.5483 1.8104 68.1317 2.6627 71.12 2.69441C75.9587 2.74338 81.9651 3.37652 87.5321 2.72176C89.1838 2.52463 89.249 0.957806 92.7997 2.04012C93.5439 2.26666 92.5947 4.14839 96.7303 2.52254C97.4276 2.25181 104.374 0.0593736 107.783 1.47274C108.683 1.8449 110.979 3.38467 112.966 3.14266C113.233 3.10319 112.157 2.26184 113.802 2.17977C119.603 1.90503 125.683 1.9952 131.642 1.73152C133.233 1.65934 130.864 0.787691 133.235 0.708087C139.758 0.487907 147.902 0.709834 154.28 0.982501C156.631 1.08471 155.006 1.80632 155.178 1.88484C157.929 3.16209 159.557 1.4385 160.47 1.33797C166.149 0.73611 170.474 1.54544 175.71 1.33113C177.154 1.27407 176.13 0.452281 176.418 0.378985C179.4 -0.336988 177.179 1.13896 179.066 1.30184C184.356 1.76261 190.252 1.69692 195.601 1.59188C197.565 1.55193 195.358 0.598994 197.121 0.574298C207.557 0.41005 218.406 0.500956 228.591 1.02645C230.507 1.12712 229.303 1.86037 229.701 2.0284C232.456 3.20122 236.494 1.60169 237.423 1.4493C241.646 0.753567 243.287 1.40248 247.017 1.28133C265.24 0.678147 287.739 1.10851 304.939 1.3741C327.353 1.71592 344.747 2.41381 366.121 2.2325C367.479 2.22183 366.11 1.24539 367.281 1.22371C382.401 0.988329 397.286 1.37 412.435 1.08797C413.677 1.06629 411.887 0.140748 413.882 0.0752743ZM1514.61 1401.09C1515.33 1399.06 1514.88 1393.06 1514.02 1395.6C1513.35 1397.64 1513.72 1403.62 1514.61 1401.09ZM1512.63 1342.79C1513.17 1336.07 1508.64 1335.46 1510.13 1342.42C1510.21 1342.82 1512.6 1343.19 1512.63 1342.79ZM1503.98 1284.69C1504.34 1278.88 1501.6 1275.43 1501.29 1279.56C1500.97 1283.67 1503.86 1286.46 1503.98 1284.69ZM1396.64 770.421C1397.84 766.115 1394.76 765.2 1395.13 770.016C1395.16 770.249 1396.58 770.643 1396.64 770.421ZM1400.95 764.554C1400.12 762.575 1399.43 769.601 1400.6 768.204C1400.64 768.112 1400.98 764.641 1400.95 764.554ZM1480.24 558.08C1479.43 557.772 1477.77 560.895 1479.05 560.336C1479.13 560.297 1480.49 558.175 1480.24 558.08ZM1559.96 426.978C1560.35 422.467 1553 437.151 1556.11 434.669C1556.28 434.554 1559.93 427.27 1559.96 426.978ZM708.653 14.5606C708.64 14.5418 707.837 14.5529 706.957 14.5733C706.968 14.8342 706.998 15.0947 707.056 15.3546C708.328 15.2711 709.416 14.9931 708.653 14.5606ZM-94.2491 12.0919C-91.284 10.4616 -102.777 10.2892 -100.255 12.002C-100.112 12.0905 -94.4345 12.1734 -94.2491 12.0919ZM-358.429 10.5206C-357.103 9.52368 -362.037 9.44344 -360.998 10.4805C-360.936 10.522 -358.498 10.5613 -358.429 10.5206ZM-201.738 9.88484C-201.859 9.03295 -204.321 9.27261 -203.521 10.0596C-203.472 10.1064 -201.705 10.1489 -201.738 9.88484ZM-810.694 8.47469C-812.15 7.87206 -816.346 8.56712 -814.532 9.31649C-813.076 9.91854 -808.886 9.22366 -810.694 8.47469ZM-773.468 8.2159C-768.804 9.30757 -768.071 4.85485 -773.066 5.75496C-773.356 5.80661 -773.741 8.15249 -773.468 8.2159ZM-728.18 5.48348C-730.995 4.41485 -733.302 6.78428 -732.086 7.20418C-728.096 8.589 -725.365 6.55329 -728.18 5.48348ZM-362.756 6.70809C-359.704 7.56541 -359.254 4.42561 -362.555 5.17684C-362.714 5.21926 -362.913 6.66483 -362.756 6.70809Z" fill="url(#paint1_linear_62_202)"/>
<path d="M1431.81 1000.02C1433.76 1003.44 1435.07 1007.8 1434.67 1011.07C1433.73 1007.4 1432.73 1003.71 1431.81 1000.02Z" fill="url(#paint2_linear_62_202)"/>
<path d="M-533.99 12.6397C-531.334 12.7066 -528.66 12.7167 -525.988 12.7784C-528.662 13.7814 -531.859 13.8992 -533.99 12.6397Z" fill="url(#paint3_linear_62_202)"/>
<path d="M-884.326 9.36824C-874.015 9.53598 -867.764 13.214 -878.992 12.7989C-881.025 12.7238 -874.611 11.6257 -877.197 11.294C-881.934 10.6898 -885.079 12.9994 -889.911 11.7618C-890.786 11.5353 -884.918 9.35078 -884.309 9.36238C-884.315 9.36403 -884.321 9.36658 -884.326 9.36824Z" fill="url(#paint4_linear_62_202)"/>
<defs>
<linearGradient id="paint0_linear_62_202" x1="1591.32" y1="753.233" x2="-890" y2="753.233" gradientUnits="userSpaceOnUse">
<stop stop-color="#E7FB62"/>
<stop offset="1" stop-color="#FB6262"/>
</linearGradient>
<linearGradient id="paint1_linear_62_202" x1="1591.32" y1="753.233" x2="-890" y2="753.233" gradientUnits="userSpaceOnUse">
<stop stop-color="#E7FB62"/>
<stop offset="1" stop-color="#FB6262"/>
</linearGradient>
<linearGradient id="paint2_linear_62_202" x1="1591.32" y1="753.233" x2="-890" y2="753.233" gradientUnits="userSpaceOnUse">
<stop stop-color="#E7FB62"/>
<stop offset="1" stop-color="#FB6262"/>
</linearGradient>
<linearGradient id="paint3_linear_62_202" x1="1591.32" y1="753.233" x2="-890" y2="753.233" gradientUnits="userSpaceOnUse">
<stop stop-color="#E7FB62"/>
<stop offset="1" stop-color="#FB6262"/>
</linearGradient>
<linearGradient id="paint4_linear_62_202" x1="1591.32" y1="753.233" x2="-890" y2="753.233" gradientUnits="userSpaceOnUse">
<stop stop-color="#E7FB62"/>
<stop offset="1" stop-color="#FB6262"/>
</linearGradient>
</defs>
</svg>
