<svg width="1600" height="880" viewBox="0 0 1600 880" fill="none" xmlns="http://www.w3.org/2000/svg">
<g opacity="0.15">
<mask id="path-1-outside-1_1_88" maskUnits="userSpaceOnUse" x="-1006.34" y="-59.8562" width="3611" height="940" fill="black">
<rect fill="white" x="-1006.34" y="-59.8562" width="3611" height="940"/>
<path d="M1780.67 254.033C1837.24 254.033 1880.14 273.383 1909.11 312.048C1938.07 350.486 1952.44 407.12 1952.21 481.941H1952.43L1952.26 495.246C1950.52 560.789 1935.8 610.947 1908.64 645.704C1899.52 657.301 1889.03 667.086 1877.17 675.045C1848.66 694.147 1811.94 699.37 1779.09 688.683C1767.46 684.816 1757.41 679.575 1748.29 672.979C1746.01 671.162 1743.72 669.338 1741.67 667.293C1725.71 652.738 1716.58 633.399 1714.07 609.522H1676.67L1706.1 486.717C1706.1 531.066 1714.76 564.734 1732.09 587.933C1745.78 606.127 1761.08 615.9 1783.66 619.539C1796.66 621.583 1810.35 618.396 1820.83 610.211C1822.43 609.075 1824.01 607.703 1825.38 606.568C1830.63 602.019 1835.66 596.8 1839.77 590.887C1857.79 566.325 1866.67 529.931 1866.9 481.719C1866.9 430.775 1858.23 392.333 1840.21 366.177C1822.42 340.021 1796.19 327.041 1761.29 327.041C1726.4 327.041 1701.77 338.43 1683.98 361.401C1676.45 371.181 1670.51 383.005 1666.4 396.651L1619.87 404.824L1608.47 321.133H1601.18L1619.43 866.994L1511.75 878.144L1540.26 256.098H1646.11L1658.21 339.79H1662.08C1665.96 312.727 1678.26 291.566 1699.01 276.555C1719.77 261.318 1746.92 253.807 1780.67 254.033Z"/>
<path d="M1254.34 250.768C1295.29 252.047 1327.41 262.896 1350.5 283.152C1375.14 304.986 1387.46 335.466 1387.46 375.039C1387.46 417.339 1347.54 454.861 1318.12 478.743L1326.09 530.606C1307.84 526.512 1290.28 524.247 1272.94 523.565C1264.27 523.224 1255.49 522.996 1246.59 522.854C1237.7 522.712 1228.69 522.654 1219.57 522.654C1214.9 522.654 1210.37 522.743 1205.98 522.921C1140.2 525.585 1107.13 548.241 1107.13 590.887C1107.13 609.989 1113.74 624.542 1126.51 634.776C1137.69 643.732 1153.06 648.85 1172.62 649.991C1175.41 650.154 1178.3 650.235 1181.26 650.235C1184.62 650.235 1187.91 650.178 1191.13 650.035C1213.68 649.038 1232.76 644.532 1248.53 636.375C1266.55 627.278 1280.01 615.438 1289.14 600.882C1296.92 588.346 1301.39 575.467 1302.39 562.235C1302.53 560.346 1302.59 558.451 1302.59 556.549L1336.36 563.589L1392.69 473.523V631.378L1460.43 642.75V699.144L1336.36 710.516L1323.35 620.45H1306.93V622.271C1304.88 640.693 1299.4 656.612 1290.27 669.803C1278.87 686.405 1262.45 698.908 1241.69 707.096C1220.93 715.51 1196.07 719.378 1167.56 719.378C1122.63 719.377 1087.72 708.467 1063.09 686.861C1038.46 665.027 1026.14 634.546 1026.14 594.974C1026.14 552.671 1074.74 513.996 1104.17 490.115L1087.5 439.407C1092.07 440.43 1096.59 441.339 1101.07 442.139C1114.52 444.538 1127.65 445.936 1140.65 446.448C1157.99 447.13 1175.78 447.359 1194.02 447.359C1268.84 447.359 1306.47 424.614 1306.47 379.126C1306.46 360.025 1299.86 345.47 1287.09 335.237C1275.91 326.281 1260.54 321.163 1240.98 320.022L1232.34 319.778C1228.98 319.778 1225.69 319.835 1222.47 319.978C1199.92 320.975 1180.83 325.481 1165.07 333.637C1147.05 342.735 1133.58 354.575 1124.46 369.131C1116.68 381.666 1112.2 394.547 1111.21 407.778C1111.06 409.671 1111 411.58 1111 413.487L1077.24 406.423L1020.9 496.49V338.657L953.166 327.285V270.869L1077.24 259.497L1090.24 349.563H1106.66V347.742C1108.71 329.321 1114.2 313.4 1123.32 300.21C1134.73 283.608 1151.15 271.104 1171.9 262.917C1190.07 255.553 1211.37 251.667 1235.52 250.812C1238.97 250.69 1242.47 250.634 1246.03 250.634L1254.34 250.768Z"/>
<path d="M2100.94 614.786C2114.89 616.437 2126.26 622.834 2135.07 633.977C2143.87 645.12 2147.46 657.65 2145.8 671.558C2144.71 680.761 2141.34 688.934 2135.71 696.079C2130.27 703.249 2123.39 708.731 2115.11 712.515C2107.03 716.132 2098.29 717.383 2088.87 716.269C2074.92 714.618 2063.55 708.221 2054.74 697.078C2045.94 685.935 2042.35 673.405 2044.01 659.497C2045.66 645.593 2052.08 634.247 2063.25 625.47C2074.43 616.692 2086.99 613.136 2100.94 614.786Z"/>
<path d="M-201.916 245.615C-156.982 245.615 -122.081 256.547 -97.4468 278.154C-72.8127 299.988 -60.493 330.467 -60.493 370.042C-60.4965 412.343 -100.412 449.865 -129.834 473.745L-121.838 525.608C-126.397 524.586 -130.923 523.676 -135.403 522.876C-148.854 520.477 -161.984 519.057 -174.985 518.545C-183.652 518.204 -192.441 517.977 -201.336 517.835C-210.233 517.692 -219.254 517.657 -228.378 517.657C-233.053 517.657 -237.582 517.746 -241.966 517.923C-307.741 520.59 -340.821 543.246 -340.821 585.889C-340.819 604.989 -334.191 619.546 -321.42 629.779C-308.648 640.009 -290.406 645.237 -266.691 645.238C-239.777 645.238 -217.417 640.702 -199.398 631.378C-181.379 622.28 -167.915 610.441 -158.792 595.885C-151.011 583.351 -146.556 570.467 -145.56 557.237C-145.418 555.343 -145.338 553.437 -145.338 551.529L-111.591 558.592L-55.2361 468.526V626.358L12.5015 637.73V694.147L-111.591 705.519L-124.578 615.453H-141.016V617.274C-143.07 635.693 -148.533 651.616 -157.656 664.806C-169.059 681.406 -185.484 693.911 -206.237 702.098C-224.399 709.462 -245.71 713.348 -269.854 714.203C-273.301 714.325 -276.806 714.381 -280.367 714.381C-283.174 714.381 -285.947 714.333 -288.676 714.248C-329.624 712.97 -361.741 702.119 -384.836 681.864C-409.469 660.03 -421.789 629.549 -421.79 589.976C-421.79 547.672 -373.208 508.999 -343.784 485.117L-360.423 434.409C-355.868 435.431 -351.356 436.343 -346.88 437.141C-333.43 439.541 -320.299 440.938 -307.298 441.45C-298.631 441.792 -289.841 442.019 -280.946 442.161C-272.05 442.303 -263.03 442.361 -253.905 442.361C-249.231 442.361 -244.701 442.272 -240.317 442.095C-174.54 439.428 -141.462 416.773 -141.462 374.128C-141.462 355.029 -148.074 340.473 -160.841 330.239C-172.017 321.284 -187.393 316.144 -206.95 315.002C-209.745 314.839 -212.626 314.758 -215.592 314.758C-218.96 314.758 -222.257 314.837 -225.482 314.98C-248.035 315.979 -267.119 320.482 -282.884 328.64C-300.903 337.738 -314.368 349.577 -323.491 364.133C-332.381 378.456 -336.944 393.235 -336.945 408.467L-370.692 401.426L-427.047 491.492V333.637L-494.784 322.265V265.871L-370.692 254.499L-357.705 344.565H-341.267V342.744C-339.214 324.324 -333.749 308.403 -324.627 295.212C-313.223 278.61 -296.801 266.085 -276.046 257.897C-255.291 249.483 -230.424 245.615 -201.916 245.615Z"/>
<path d="M-882.321 642.284H-874.324L-820.041 351.606L-733.815 383.679L-680.667 642.284H-672.916L-633.69 250.168L-542.007 271.091L-609.745 699.144L-720.829 712.115L-774.89 446.692L-790.17 462.595L-834.408 712.115L-948.009 699.144L-1004.34 250.168H-917.203L-882.321 642.284Z"/>
<path d="M2546.12 606.079C2560.06 604.363 2572.62 607.867 2583.84 616.585C2595.05 625.306 2601.53 636.608 2603.26 650.502C2604.4 659.703 2603.09 668.453 2599.34 676.733C2595.77 684.988 2590.42 691.943 2583.28 697.589C2576.31 703.023 2568.1 706.312 2558.69 707.473C2544.75 709.19 2532.19 705.686 2520.98 696.967C2509.76 688.246 2503.28 676.945 2501.55 663.051C2499.83 649.156 2503.34 636.608 2512.09 625.425C2520.83 614.242 2532.19 607.798 2546.12 606.079Z"/>
<path d="M441.091 288.393L437.215 345.01L186.089 631.378L429.686 615.208L441.091 705.297L91.421 694.147V637.73L337.312 345.01H90.5078L91.421 254.721L441.091 288.393Z"/>
<path d="M869.68 288.393L865.804 345.01L614.678 631.378L858.275 615.208L869.68 705.297L520.01 694.147V637.73L765.901 345.01H519.097L520.01 254.721L869.68 288.393Z"/>
<path d="M2329.7 498.777C2345.77 497.698 2359.96 502.512 2372.25 513.215C2384.54 523.92 2391.21 537.299 2392.29 553.328C2393.01 563.939 2390.97 573.869 2386.15 583.113C2381.53 592.345 2374.95 599.976 2366.41 605.991C2358.07 611.774 2348.47 615.033 2337.61 615.763C2321.54 616.845 2307.35 612.03 2295.07 601.326C2282.77 590.62 2276.08 577.242 2275 561.213C2273.91 545.186 2278.74 531.043 2289.47 518.79C2300.21 506.535 2313.63 499.859 2329.7 498.777Z"/>
<path d="M2196.59 138.935L2141.53 553.261L2075.93 545.487L2119.67 129.85L2196.59 138.935Z"/>
<path d="M2570.78 536.692L2505.25 544.777L2448.18 130.85L2525.01 121.366L2570.78 536.692Z"/>
<path d="M2362.4 420.861L2286.8 425.947L2247.91 -51.8814L2336.54 -57.8562L2362.4 420.861Z"/>
</mask>
<path d="M1780.67 254.033C1837.24 254.033 1880.14 273.383 1909.11 312.048C1938.07 350.486 1952.44 407.12 1952.21 481.941H1952.43L1952.26 495.246C1950.52 560.789 1935.8 610.947 1908.64 645.704C1899.52 657.301 1889.03 667.086 1877.17 675.045C1848.66 694.147 1811.94 699.37 1779.09 688.683C1767.46 684.816 1757.41 679.575 1748.29 672.979C1746.01 671.162 1743.72 669.338 1741.67 667.293C1725.71 652.738 1716.58 633.399 1714.07 609.522H1676.67L1706.1 486.717C1706.1 531.066 1714.76 564.734 1732.09 587.933C1745.78 606.127 1761.08 615.9 1783.66 619.539C1796.66 621.583 1810.35 618.396 1820.83 610.211C1822.43 609.075 1824.01 607.703 1825.38 606.568C1830.63 602.019 1835.66 596.8 1839.77 590.887C1857.79 566.325 1866.67 529.931 1866.9 481.719C1866.9 430.775 1858.23 392.333 1840.21 366.177C1822.42 340.021 1796.19 327.041 1761.29 327.041C1726.4 327.041 1701.77 338.43 1683.98 361.401C1676.45 371.181 1670.51 383.005 1666.4 396.651L1619.87 404.824L1608.47 321.133H1601.18L1619.43 866.994L1511.75 878.144L1540.26 256.098H1646.11L1658.21 339.79H1662.08C1665.96 312.727 1678.26 291.566 1699.01 276.555C1719.77 261.318 1746.92 253.807 1780.67 254.033Z" stroke="white" stroke-width="2" mask="url(#path-1-outside-1_1_88)"/>
<path d="M1254.34 250.768C1295.29 252.047 1327.41 262.896 1350.5 283.152C1375.14 304.986 1387.46 335.466 1387.46 375.039C1387.46 417.339 1347.54 454.861 1318.12 478.743L1326.09 530.606C1307.84 526.512 1290.28 524.247 1272.94 523.565C1264.27 523.224 1255.49 522.996 1246.59 522.854C1237.7 522.712 1228.69 522.654 1219.57 522.654C1214.9 522.654 1210.37 522.743 1205.98 522.921C1140.2 525.585 1107.13 548.241 1107.13 590.887C1107.13 609.989 1113.74 624.542 1126.51 634.776C1137.69 643.732 1153.06 648.85 1172.62 649.991C1175.41 650.154 1178.3 650.235 1181.26 650.235C1184.62 650.235 1187.91 650.178 1191.13 650.035C1213.68 649.038 1232.76 644.532 1248.53 636.375C1266.55 627.278 1280.01 615.438 1289.14 600.882C1296.92 588.346 1301.39 575.467 1302.39 562.235C1302.53 560.346 1302.59 558.451 1302.59 556.549L1336.36 563.589L1392.69 473.523V631.378L1460.43 642.75V699.144L1336.36 710.516L1323.35 620.45H1306.93V622.271C1304.88 640.693 1299.4 656.612 1290.27 669.803C1278.87 686.405 1262.45 698.908 1241.69 707.096C1220.93 715.51 1196.07 719.378 1167.56 719.378C1122.63 719.377 1087.72 708.467 1063.09 686.861C1038.46 665.027 1026.14 634.546 1026.14 594.974C1026.14 552.671 1074.74 513.996 1104.17 490.115L1087.5 439.407C1092.07 440.43 1096.59 441.339 1101.07 442.139C1114.52 444.538 1127.65 445.936 1140.65 446.448C1157.99 447.13 1175.78 447.359 1194.02 447.359C1268.84 447.359 1306.47 424.614 1306.47 379.126C1306.46 360.025 1299.86 345.47 1287.09 335.237C1275.91 326.281 1260.54 321.163 1240.98 320.022L1232.34 319.778C1228.98 319.778 1225.69 319.835 1222.47 319.978C1199.92 320.975 1180.83 325.481 1165.07 333.637C1147.05 342.735 1133.58 354.575 1124.46 369.131C1116.68 381.666 1112.2 394.547 1111.21 407.778C1111.06 409.671 1111 411.58 1111 413.487L1077.24 406.423L1020.9 496.49V338.657L953.166 327.285V270.869L1077.24 259.497L1090.24 349.563H1106.66V347.742C1108.71 329.321 1114.2 313.4 1123.32 300.21C1134.73 283.608 1151.15 271.104 1171.9 262.917C1190.07 255.553 1211.37 251.667 1235.52 250.812C1238.97 250.69 1242.47 250.634 1246.03 250.634L1254.34 250.768Z" stroke="white" stroke-width="2" mask="url(#path-1-outside-1_1_88)"/>
<path d="M2100.94 614.786C2114.89 616.437 2126.26 622.834 2135.07 633.977C2143.87 645.12 2147.46 657.65 2145.8 671.558C2144.71 680.761 2141.34 688.934 2135.71 696.079C2130.27 703.249 2123.39 708.731 2115.11 712.515C2107.03 716.132 2098.29 717.383 2088.87 716.269C2074.92 714.618 2063.55 708.221 2054.74 697.078C2045.94 685.935 2042.35 673.405 2044.01 659.497C2045.66 645.593 2052.08 634.247 2063.25 625.47C2074.43 616.692 2086.99 613.136 2100.94 614.786Z" stroke="white" stroke-width="2" mask="url(#path-1-outside-1_1_88)"/>
<path d="M-201.916 245.615C-156.982 245.615 -122.081 256.547 -97.4468 278.154C-72.8127 299.988 -60.493 330.467 -60.493 370.042C-60.4965 412.343 -100.412 449.865 -129.834 473.745L-121.838 525.608C-126.397 524.586 -130.923 523.676 -135.403 522.876C-148.854 520.477 -161.984 519.057 -174.985 518.545C-183.652 518.204 -192.441 517.977 -201.336 517.835C-210.233 517.692 -219.254 517.657 -228.378 517.657C-233.053 517.657 -237.582 517.746 -241.966 517.923C-307.741 520.59 -340.821 543.246 -340.821 585.889C-340.819 604.989 -334.191 619.546 -321.42 629.779C-308.648 640.009 -290.406 645.237 -266.691 645.238C-239.777 645.238 -217.417 640.702 -199.398 631.378C-181.379 622.28 -167.915 610.441 -158.792 595.885C-151.011 583.351 -146.556 570.467 -145.56 557.237C-145.418 555.343 -145.338 553.437 -145.338 551.529L-111.591 558.592L-55.2361 468.526V626.358L12.5015 637.73V694.147L-111.591 705.519L-124.578 615.453H-141.016V617.274C-143.07 635.693 -148.533 651.616 -157.656 664.806C-169.059 681.406 -185.484 693.911 -206.237 702.098C-224.399 709.462 -245.71 713.348 -269.854 714.203C-273.301 714.325 -276.806 714.381 -280.367 714.381C-283.174 714.381 -285.947 714.333 -288.676 714.248C-329.624 712.97 -361.741 702.119 -384.836 681.864C-409.469 660.03 -421.789 629.549 -421.79 589.976C-421.79 547.672 -373.208 508.999 -343.784 485.117L-360.423 434.409C-355.868 435.431 -351.356 436.343 -346.88 437.141C-333.43 439.541 -320.299 440.938 -307.298 441.45C-298.631 441.792 -289.841 442.019 -280.946 442.161C-272.05 442.303 -263.03 442.361 -253.905 442.361C-249.231 442.361 -244.701 442.272 -240.317 442.095C-174.54 439.428 -141.462 416.773 -141.462 374.128C-141.462 355.029 -148.074 340.473 -160.841 330.239C-172.017 321.284 -187.393 316.144 -206.95 315.002C-209.745 314.839 -212.626 314.758 -215.592 314.758C-218.96 314.758 -222.257 314.837 -225.482 314.98C-248.035 315.979 -267.119 320.482 -282.884 328.64C-300.903 337.738 -314.368 349.577 -323.491 364.133C-332.381 378.456 -336.944 393.235 -336.945 408.467L-370.692 401.426L-427.047 491.492V333.637L-494.784 322.265V265.871L-370.692 254.499L-357.705 344.565H-341.267V342.744C-339.214 324.324 -333.749 308.403 -324.627 295.212C-313.223 278.61 -296.801 266.085 -276.046 257.897C-255.291 249.483 -230.424 245.615 -201.916 245.615Z" stroke="white" stroke-width="2" mask="url(#path-1-outside-1_1_88)"/>
<path d="M-882.321 642.284H-874.324L-820.041 351.606L-733.815 383.679L-680.667 642.284H-672.916L-633.69 250.168L-542.007 271.091L-609.745 699.144L-720.829 712.115L-774.89 446.692L-790.17 462.595L-834.408 712.115L-948.009 699.144L-1004.34 250.168H-917.203L-882.321 642.284Z" stroke="white" stroke-width="2" mask="url(#path-1-outside-1_1_88)"/>
<path d="M2546.12 606.079C2560.06 604.363 2572.62 607.867 2583.84 616.585C2595.05 625.306 2601.53 636.608 2603.26 650.502C2604.4 659.703 2603.09 668.453 2599.34 676.733C2595.77 684.988 2590.42 691.943 2583.28 697.589C2576.31 703.023 2568.1 706.312 2558.69 707.473C2544.75 709.19 2532.19 705.686 2520.98 696.967C2509.76 688.246 2503.28 676.945 2501.55 663.051C2499.83 649.156 2503.34 636.608 2512.09 625.425C2520.83 614.242 2532.19 607.798 2546.12 606.079Z" stroke="white" stroke-width="2" mask="url(#path-1-outside-1_1_88)"/>
<path d="M441.091 288.393L437.215 345.01L186.089 631.378L429.686 615.208L441.091 705.297L91.421 694.147V637.73L337.312 345.01H90.5078L91.421 254.721L441.091 288.393Z" stroke="white" stroke-width="2" mask="url(#path-1-outside-1_1_88)"/>
<path d="M869.68 288.393L865.804 345.01L614.678 631.378L858.275 615.208L869.68 705.297L520.01 694.147V637.73L765.901 345.01H519.097L520.01 254.721L869.68 288.393Z" stroke="white" stroke-width="2" mask="url(#path-1-outside-1_1_88)"/>
<path d="M2329.7 498.777C2345.77 497.698 2359.96 502.512 2372.25 513.215C2384.54 523.92 2391.21 537.299 2392.29 553.328C2393.01 563.939 2390.97 573.869 2386.15 583.113C2381.53 592.345 2374.95 599.976 2366.41 605.991C2358.07 611.774 2348.47 615.033 2337.61 615.763C2321.54 616.845 2307.35 612.03 2295.07 601.326C2282.77 590.62 2276.08 577.242 2275 561.213C2273.91 545.186 2278.74 531.043 2289.47 518.79C2300.21 506.535 2313.63 499.859 2329.7 498.777Z" stroke="white" stroke-width="2" mask="url(#path-1-outside-1_1_88)"/>
<path d="M2196.59 138.935L2141.53 553.261L2075.93 545.487L2119.67 129.85L2196.59 138.935Z" stroke="white" stroke-width="2" mask="url(#path-1-outside-1_1_88)"/>
<path d="M2570.78 536.692L2505.25 544.777L2448.18 130.85L2525.01 121.366L2570.78 536.692Z" stroke="white" stroke-width="2" mask="url(#path-1-outside-1_1_88)"/>
<path d="M2362.4 420.861L2286.8 425.947L2247.91 -51.8814L2336.54 -57.8562L2362.4 420.861Z" stroke="white" stroke-width="2" mask="url(#path-1-outside-1_1_88)"/>
</g>
</svg>
