<svg width="912" height="1507" viewBox="0 0 912 1507" fill="none" xmlns="http://www.w3.org/2000/svg">
<path d="M815.321 1498.02C820.394 1484.3 826.347 1476.79 821.082 1491.96C820.094 1494.69 821.935 1485.65 820.463 1489.05C817.777 1495.25 818.421 1500.29 814.721 1506.37C814.073 1507.46 815.053 1498.8 815.325 1498C815.324 1498 815.322 1498.01 815.321 1498.02Z" fill="url(#paint0_linear_62_207)"/>
<path fill-rule="evenodd" clip-rule="evenodd" d="M-266.118 0.0752743C-262.026 -0.0655148 -256.841 -0.015187 -252.703 0.280352C-250.685 0.422783 -253.391 1.21664 -251.36 1.34383C-246.63 1.64162 -241.558 1.70805 -236.699 1.55965C-234.632 1.49442 -237.751 0.548114 -235.064 0.537188C-216.755 0.443265 -198.774 0.279998 -180.273 1.50594C-179.004 1.59027 -177.891 3.51434 -175.194 3.14559C-174.991 2.61162 -175.002 1.98291 -174.913 1.41219C-148.261 1.10474 -121.88 1.77195 -95.1525 1.87508C-94.026 1.87909 -95.9727 0.859584 -93.7911 0.862384C-81.1642 0.877449 -68.9025 0.595186 -55.9865 1.60848C-54.7051 1.7077 -55.3616 3.50082 -51.5851 3.22957C-50.9163 3.17998 -45.2312 2.94105 -43.7609 2.55184C-43.5619 2.49271 -44.5981 1.65533 -42.7657 1.63094C-32.1144 1.50382 -20.9523 1.69561 -10.3195 2.20711C-8.604 2.29133 -10.4305 3.18224 -9.20911 3.25008C-1.51465 3.67005 6.77881 3.18479 14.3387 3.63582C17.2439 3.05429 15.6613 2.15588 20.9335 1.83113C34.15 1.04105 50.3773 0.883542 63.6766 1.03133C67.526 1.08232 65.5831 1.67623 68.2841 1.73836C73.5155 1.86184 79.0863 1.50733 84.2626 1.70516C85.967 1.77385 83.8542 2.6795 85.6454 2.73152C95.4127 3.01174 105.783 2.72888 115.658 2.91512C166.767 3.84923 216.296 5.47248 267.682 8.72274C284.87 9.80586 305.036 11.9482 322.626 12.9884C324.651 13.1062 323.507 12.2407 323.896 12.2071C330.019 11.7163 327.886 13.1124 331.825 13.6436C347.57 15.7623 364.948 17.4651 380.162 18.7716C386.64 19.3291 380.318 17.1073 386.743 18.6661C387.189 18.7733 385.459 19.4126 387.224 19.6925C391.182 20.3174 398.755 21.0242 401.844 21.4522C407.792 22.2783 408.781 22.3892 414.432 23.0889C422.185 24.0598 431.255 25.6438 439.538 26.5909C441.306 26.7907 439.087 25.635 441.918 25.88C444.752 26.1224 452.193 27.2509 454.677 27.8175C457.16 28.3806 455.995 28.8806 456.417 29.0958C459.892 30.8935 468.73 30.4437 469.848 30.5772C490.111 32.9695 507.234 36.9706 526.006 40.587C540.276 43.3362 555.613 46.2236 569.047 49.3458C585.252 53.1213 598.444 56.8775 614.102 61.0499C615.74 61.4897 614.084 60.01 616.086 60.547C637.224 66.231 658.146 72.8074 678.573 80.7735C680.629 81.5778 677.66 81.4432 679.693 82.296C692.146 87.4217 711.114 96.8458 719.929 96.5802C728.178 100.254 738.234 105.017 745.262 109.297C749.763 112.047 744.783 110.644 750.713 113.139C752.044 113.706 750.737 112.121 752.707 113.032C760.875 116.808 769.853 121.955 777.877 126.127C779.516 126.977 779.456 126.085 779.975 126.232C784.348 127.518 789.571 132.834 790.927 133.855C800.905 141.308 808.178 145.856 817.385 152.784C819.507 154.4 817.598 151.697 819.662 153.23C830.311 161.176 840.605 170.166 849.523 179.66C851.484 181.76 849.016 180.496 849.918 181.529C852.621 184.638 854.41 185.567 856.463 187.265C857.451 188.096 858.492 189.096 859.673 190.567C860.458 191.546 859.445 191.507 859.538 191.731C860.975 195.208 864.268 196.335 864.883 196.999C872.382 205.078 875.69 212.559 881.721 221.263C882.483 222.38 881.605 219.314 883.693 222.494C897.309 243.131 906.992 268.476 909.414 292.912C909.797 296.707 908.758 294.096 908.706 294.346C907.873 298.352 909.848 300.644 910.02 301.881C911.316 311.666 909.632 320.718 911.32 327.476C907.85 368.974 892.88 408.401 872.615 443.415C872.356 443.864 872.004 442.637 871.492 443.532C865.265 454.281 867.592 452.746 865.08 460.778C864.436 462.815 859.584 467.286 859.18 467.684C857.706 469.163 857.608 466.699 857.181 467.232C853.68 471.659 857.896 473.036 854.049 479.596C853.922 479.797 853.741 478.533 853.349 479.042C852.124 480.633 851.413 482.452 850.189 483.97C847.382 487.43 844.782 487.686 842.319 494.091C842.01 494.9 844.785 495.082 841.165 500.762C839.73 503.022 833.467 513.193 831.567 515.916C829.667 518.653 830.208 516.298 830.053 516.48C824.404 523.523 825.841 520.41 822.138 523.391C818.438 526.373 822.216 527.281 821.588 529.049C820.956 530.82 816.721 535.92 815.606 537.127C814.492 538.333 815.139 536.361 814.23 537.484C808.218 544.947 813.55 541.992 812.374 544.958C809.605 551.96 804.244 555.378 800.446 560.988C799.418 562.509 800.734 561.565 799.924 562.983C796.71 568.602 793.961 571.444 790.821 578.137C790.302 579.236 788.646 585.167 785.665 587.846C785.24 588.223 785.438 586.551 783.912 588.834C781.644 592.214 777.758 598.61 775.795 602.544C774.34 605.455 777.145 602.767 774.838 606.152C773.816 607.657 774.887 604.405 773.015 607.262C771.126 610.128 766.969 617.817 765.464 620.741C763.948 623.661 765.54 622.466 765.468 622.727C765.011 624.278 762.445 630.153 762.204 630.646C749.938 655.146 738.772 678.184 732.693 704.113C732.525 704.84 732.359 705.569 732.197 706.299C731.729 708.415 732.937 707.218 732.875 707.543C731.571 714.831 730.55 708.609 728.639 713.498C730.582 713.158 729.577 716.069 728.756 721.2C728.367 723.672 729.323 722.471 729.349 722.709C729.691 726.538 727.89 728.809 727.494 729.416C726.038 731.665 726.808 734.528 725.858 736.072C724.915 737.625 724.503 733.636 723.743 738.599C724.176 740.083 726.415 736.675 726.121 740.461C724.84 754.648 721.452 781.072 721.191 792.602C720.786 804.066 720.994 807.773 720.853 814.459C720.722 826.548 721.881 822.088 722.77 829.542C723.73 837.007 720.45 833.536 719.838 834.652C719.232 835.753 719.987 836.874 719.705 838.218C719.424 839.56 718.785 836.733 718.849 839.846C718.9 842.966 720.77 851.361 721.577 852.392C723.266 854.576 724.437 850.636 724.683 858.841C724.698 859.312 723.733 857.875 723.831 859.675C724.644 873.985 726.642 888.796 728.463 903.037C728.713 904.998 727.524 903.407 727.661 904.551C729.132 916.479 729.917 911.972 732.771 918.101C730.283 917.07 729.543 920.89 731.317 929.832C732.395 935.201 733.183 934.09 734.585 937.398C735.005 938.388 735.148 942.305 735.753 942.891C737.734 944.82 738.599 940.912 739.966 950.177C740.024 950.584 738.925 949.492 739.187 950.887C740.901 959.905 742.701 960.62 745.216 970.177C747.187 977.673 749.683 991.297 751.836 999.871C749.323 1000.35 752.071 1008.28 754.673 1011.08C756.13 1016.64 757.902 1022.58 759.194 1027.98C759.639 1029.84 758.588 1028.84 758.576 1029.09C758.391 1032.99 760.728 1034.92 761.136 1036.09C765.502 1048.82 767.389 1059.67 772.303 1071.6C772.479 1072.02 774.385 1072.22 774.14 1075.88C774.119 1076.11 772.122 1072.29 773.809 1078.09C775.495 1083.88 777.904 1095.05 781.133 1102.83C781.913 1104.71 784.781 1109.2 784.904 1113.46C784.917 1114.03 784.258 1113.6 784.218 1114.44C784.102 1117.15 786.221 1117.98 785.642 1121.3C785.063 1124.63 785.793 1130.95 789.219 1138.72C789.326 1138.97 791.255 1140.47 791.998 1143.04C793.18 1147.13 794.612 1152.99 795.866 1157.24C796.467 1159.27 796.929 1157.72 797.049 1158.07C801.519 1171.6 803.575 1181.61 807.267 1196.45C807.946 1199.17 811.195 1206.65 811.631 1212.13C812.101 1218.14 806.435 1213.28 810.762 1226.3C812.486 1231.55 819.461 1236.99 818.897 1247.36C823.808 1265.99 825.789 1283.66 829.675 1302.6C829.849 1303.45 831.764 1305.94 832.028 1307.97C832.417 1310.97 831.927 1312.71 832.159 1314.84C833.117 1323.9 834.606 1332.07 835.231 1340.77C835.463 1344.1 834.641 1342.99 834.885 1346.95C835.116 1350.9 836.258 1353.48 836.038 1358.84C835.86 1362.89 834.017 1367 833.871 1372.34C835.83 1372.52 835.882 1376.2 836.347 1382.75C836.436 1384.01 837.132 1382.67 837.209 1383.26C837.536 1385.7 836.928 1387.92 837.249 1390.25C837.325 1390.81 837.994 1390.86 838.094 1391.32C838.979 1395.28 837.144 1401.67 836.807 1402.74C835.558 1406.91 836.277 1408.93 835.62 1412.13C834.952 1415.33 834.88 1410.46 834.314 1414.21C833.145 1421.95 832.007 1431.93 830.676 1439.74C830.15 1442.86 831.385 1440.88 831.331 1441.33C830.474 1447.84 828.207 1454.14 829.153 1458.09C823.642 1461.53 828.795 1462.05 825.551 1470.95C825.287 1471.65 822.948 1471.99 823.353 1469.18C823.756 1466.38 825.438 1462.4 825.802 1458.48C825.904 1457.54 825.008 1451.94 825.016 1451.21C825.166 1445.51 828.47 1445.31 828.71 1445.05C831.235 1442.03 830.078 1435.25 830.159 1433.55C830.591 1425.72 831.763 1419.2 831.832 1412.65C831.867 1408.37 829.761 1407.81 830.049 1404.49C830.915 1393.5 833.988 1389.61 831.465 1379.15C830.9 1376.9 828.625 1379.16 830.343 1371.12C830.457 1370.63 831.99 1364.56 830.779 1361.19C830.627 1360.76 829.949 1360.8 829.868 1360.24C829.332 1356.45 829.738 1353.88 829.212 1349.74C828.684 1345.6 827.905 1340.6 827.695 1335.88C827.571 1333.03 828.449 1329.24 828.607 1327.84C829.079 1323.87 827.123 1319.89 827.889 1317.36C828.655 1314.8 830.909 1319.31 830.774 1312.89C828.993 1312.89 827.126 1312.59 825.316 1312.46C823.507 1298.68 821.758 1285.03 818.957 1271.26C818.606 1269.55 818.023 1271.49 817.621 1269.66C815.927 1261.99 815.161 1255.18 813.086 1247.24C811.467 1241.07 808.909 1234.66 807.074 1228.29C808.073 1223.88 804.989 1214.51 803.34 1207.59C802.761 1205.17 803.324 1205.19 803.035 1203.42C801.919 1196.77 801.011 1200.27 800.26 1198.57C797.016 1191.24 800.747 1189.56 798.125 1180.61C797.989 1180.14 794.267 1174.92 793.905 1174.16C791.604 1169.32 794.385 1173.11 793.621 1169.88C792.222 1163.99 791.548 1159.85 788.934 1153.23C788.17 1151.3 785.471 1146.93 785.312 1142.78C785.291 1142.23 786.057 1142.31 785.975 1141.89C784.437 1134.34 782.232 1134.78 780.238 1130.8C778.243 1126.81 777.745 1119.85 777.767 1118.4C777.815 1114.59 779.045 1120.91 779.21 1121.07C781.166 1122.88 779.501 1118.19 778.51 1114.54C780.448 1113.38 778.781 1108.36 777.471 1110.76C777.332 1111.03 778.384 1113.79 778.51 1114.54C775.485 1111.99 773.526 1106.51 773.574 1099.77C773.598 1096.61 775.479 1099.02 772.429 1090.38C771.05 1086.46 770.07 1088.43 768.612 1085.05C765.282 1077.31 763.485 1066.47 760.813 1058.26C759.843 1055.28 759.92 1058.44 759.23 1056.41C757.397 1051.02 756.576 1046.03 754.677 1040.63C754.503 1040.14 754.025 1041.6 753.518 1039.9C749.667 1026.96 747.013 1015.52 743.368 1001.9C741.601 995.328 738.08 983.653 736.482 976.764C733.677 964.86 731.523 949.862 729.084 939.715C727.493 933.085 726.957 934.709 725.793 931.955C723.532 926.624 723.702 916.399 723.787 915.024C723.81 915.095 725.053 920.688 724.921 917.558C725.499 915.606 723.812 915.092 723.787 915.024C723.812 914.135 721.994 902.502 721.483 900.223C721.192 898.985 720.495 899.816 720.359 899.167C717.151 883.771 714.927 868.064 713.92 852.079C713.912 851.797 714.862 852.14 714.833 851.478C714.458 842.215 712.975 836.404 711.948 828.768C710.936 821.14 711.04 815.025 712.567 810.483C712.295 804.714 713.082 796.428 713.653 791.686C714.217 786.945 712.481 786.21 712.458 785.787C711.918 772.635 713.507 765.103 715.21 751.604C716 745.213 717.638 732.425 718.759 725.501C719.609 720.038 720.684 716.85 721.51 711.792C721.624 711.108 720.697 711.62 720.713 711.407C721.035 705.6 722.335 708.721 722.933 707.647C723.99 705.774 724.838 704.249 725.568 702.36C726.354 700.34 727.003 697.908 727.732 694.167C728.043 692.522 726.773 686.936 727.575 683.922C728.613 680.039 729.087 681.793 730.209 677.732C730.309 677.385 729.69 677.253 730.583 674.8C734.735 663.389 740.126 651.456 745.355 640.167C746.076 638.618 744.253 640.184 745.287 637.936C750.104 627.467 755.969 616.263 761.76 606.701C763.194 604.34 762.961 606.188 763.428 605.762C766.294 603.122 767.247 597.795 767.65 597.023C777.041 578.841 786.561 566.457 796.838 548.523C797.392 547.545 800.361 539.192 803.81 536.812C804.045 536.646 807.501 534.32 808.321 530.857C808.371 530.643 806.372 532.186 808.655 528.731C810.937 525.275 813.999 519.331 817.828 515.026C819.039 513.662 822.724 510.96 824.42 505.702C824.531 505.35 826.318 496.726 829.635 495.321C830.177 495.096 831.812 496.681 834.168 490.653C834.617 489.494 833.041 491.132 834.453 488.221C836.614 483.757 840.47 478.499 842.677 472.806C843.065 471.805 844.036 467.181 846.806 464.654C847.241 464.258 847.351 465.55 848.365 463.952C853.167 456.391 857.328 447.861 861.993 440.059C863.65 437.272 863.95 439.292 865.781 436.441C867.621 433.579 870.887 427.714 871.932 424.249C872.957 420.831 869.598 423.479 871.694 418.669C880.698 397.8 889.698 377.206 894.618 355.397C895.323 352.175 894.122 354.704 895.042 349.965C899 332.333 898.589 301.813 896.43 286.582C895.047 274.334 899.167 289.318 897.595 279.958C896.776 275.389 893.204 271.175 892.827 270.216C888.949 260.249 886.973 253.067 882.297 244.401C881.31 242.612 881.427 244.803 880.592 243.282C877.821 238.296 875.11 232.879 871.921 228.098C870.495 225.977 870.219 226.806 868.997 224.898C866.064 220.374 863.387 216.246 860.432 211.469C860.17 211.044 862.907 213.124 860.4 209.913C857.002 205.589 852.899 200.078 847.969 195.188C847.143 194.37 846.297 193.578 845.434 192.819C843.712 191.323 842.566 192.351 839.866 188.142C839.286 187.267 841.57 186.813 836.288 184.012C835.444 183.535 826.732 178.515 824.159 174.538C823.468 173.458 822.03 170.238 819.725 168.684C819.411 168.479 820.044 170.073 818.217 168.702C811.788 163.872 804.895 158.637 798.034 154.223C796.177 153.032 798.388 155.608 795.635 153.817C788.064 148.89 778.421 142.603 770.958 137.983C768.174 136.257 770.49 136.763 770.327 136.576C767.627 133.548 764.767 133.935 763.599 133.4C756.267 130.032 751.329 126.544 744.709 123.469C742.877 122.62 743.791 123.993 743.399 123.88C739.347 122.676 742.785 122.726 740.481 121.415C734.034 117.749 726.284 114.245 719.494 111.389C716.964 110.326 719.408 112.433 717.141 111.473C703.652 105.788 689.456 100.133 676.131 94.7989C673.609 93.7894 675.463 93.6738 674.986 93.3253C671.708 90.9051 665.693 90.5241 664.436 90.2608C658.626 89.0232 656.644 87.6888 651.607 86.1837C626.78 78.7346 596.378 70.0959 572.662 64.3175C541.833 56.7969 517.713 51.4052 487.747 46.5098C485.844 46.202 487.599 47.4856 485.958 47.2335C464.783 43.9434 443.863 40.508 422.549 38.0577C420.799 37.8556 423.208 39.0962 420.382 38.8018C414.578 38.2041 407.266 37.2625 401.471 36.2891C398.643 35.8162 402.549 35.471 399.701 35.0118C393.059 33.9415 385.983 33.0912 379.031 32.5079C376.091 32.2645 380.417 33.6705 376.604 33.2823C350.715 30.6816 325.408 28.6795 299.076 25.63C297.284 25.4223 295.833 23.3928 291.999 23.5089C291.677 24.0227 291.652 24.6508 291.489 25.212C253.598 23.0304 216.156 20.7682 178.144 19.8145C176.523 19.7746 179.3 20.8545 176.165 20.7833C158.329 20.3855 140.836 20.4548 122.391 19.3985C120.548 19.2964 121.465 17.5014 116.093 17.7706C115.121 17.8173 107.188 18.0694 105.218 18.4698C104.91 18.5299 106.483 19.3604 103.749 19.3966C88.1547 19.5937 72.5139 19.6089 57.4325 19.4317C54.9021 19.4042 57.5697 18.452 55.7743 18.4249C45.6451 18.2612 34.7687 18.9774 24.4989 19.0391C24.4091 19.1235 24.2777 19.2 24.0858 19.2608C22.9196 19.6299 21.6376 18.8775 19.704 19.3116C17.7709 19.7513 18.6202 20.7727 14.7596 20.8936C5.79382 21.1672 -5.95874 20.8742 -14.8907 20.4727C-17.6899 20.3482 -16.2732 19.7918 -18.2052 19.6807C-21.9845 19.4643 -25.5056 19.7373 -29.2404 19.4796C-30.478 19.3914 -28.9379 18.5099 -30.2355 18.4376C-37.3474 18.048 -44.0758 18.2724 -51.2804 18.085C-86.7679 17.1604 -121.652 16.8295 -157.573 16.4278C-169.418 16.2961 -183.816 15.4959 -196.05 15.8458C-197.478 15.8874 -196.627 16.6606 -196.899 16.7247C-201.16 17.701 -199.743 16.1394 -202.526 15.9317C-213.57 15.1122 -225.851 15.0413 -236.48 15.3399C-241.001 15.4692 -236.468 17.0063 -241.021 16.1436C-241.337 16.0853 -240.19 15.2636 -241.43 15.1759C-244.242 14.9787 -249.577 15.1247 -251.757 15.0596C-255.957 14.93 -256.652 14.9391 -260.625 14.9298C-266.056 14.9098 -272.517 14.5014 -278.344 14.6876C-279.588 14.7298 -277.942 15.5715 -279.925 15.7149C-281.911 15.858 -287.163 15.7865 -288.934 15.588C-290.704 15.3893 -289.951 14.7271 -290.264 14.5753C-292.842 13.2944 -298.918 15.0683 -299.7 15.1124C-313.954 15.8599 -326.177 14.8498 -339.556 14.8526C-349.713 14.8569 -360.574 15.1904 -370.238 15.1446C-381.753 15.0868 -391.512 14.6306 -402.697 14.7091C-403.877 14.7165 -402.495 15.7067 -403.936 15.7179C-419.254 15.8331 -434.467 15.7254 -449.719 15.0567C-451.248 14.9887 -449.278 14.1191 -450.805 13.9991C-460.161 13.2844 -474.966 11.5674 -480.524 15.3536C-486.861 15.2057 -494.556 15.0533 -500.226 14.2901C-503.881 13.7989 -500.331 12.8508 -504.821 13.255C-505.834 13.345 -504.518 14.1748 -506.036 14.2471C-512.431 14.5509 -519.418 14.2814 -525.744 14.71C-527.031 14.7992 -526.68 15.5427 -527.044 15.6768C-530.108 16.7609 -535.209 14.9685 -536.321 14.838C-544.789 13.8669 -550.974 14.2494 -558.862 14.2257C-560.692 14.2199 -558.529 15.2179 -560.29 15.2481C-569.426 15.3912 -578.89 15.3055 -587.835 14.8624C-589.825 14.7614 -587.996 13.9113 -588.946 13.8194C-593.139 13.4252 -594.068 15.0316 -598.089 14.6846C-598.937 14.6136 -598.46 13.8861 -598.614 13.8057C-601.034 12.5505 -603.137 14.3287 -603.76 14.3682C-611.634 14.9048 -616.667 13.0477 -624.274 13.3106C-625.183 13.344 -623.132 14.2654 -625.69 14.3028C-642.732 14.5572 -660.755 14.3034 -677.624 13.5665C-680.247 13.4532 -678.376 12.7614 -678.54 12.6759C-681.23 11.3432 -682.97 13.1285 -683.825 13.1964C-690.572 13.6806 -696.875 12.1831 -701.459 14.3106C-730.032 13.5723 -758.474 14.7665 -786.811 12.8604C-787.171 12.838 -786.526 11.9598 -787.243 11.919C-795.898 11.4251 -794.237 12.7918 -799.963 14.4639C-801.405 14.8837 -805.792 12.8658 -806.183 12.7169C-807.597 12.1716 -806.131 10.8627 -806.605 10.7569C-810.524 9.92804 -809.886 14.2564 -815.174 14.2579C-815.338 14.2495 -814.645 13.4545 -815.088 13.3751C-816.467 13.1264 -817.834 13.4422 -819.184 13.168C-822.272 12.5334 -823.372 10.4304 -828.089 11.6544C-828.685 11.814 -827.775 14.2683 -832.495 14.1524C-834.377 14.1041 -842.708 14.1465 -845.044 13.9874C-847.376 13.8285 -845.776 13.0376 -845.942 13.003C-852.225 11.9568 -849.843 11.5236 -852.991 9.97469C-856.139 8.43187 -855.266 12.111 -856.549 12.5225C-857.834 12.9321 -862.441 12.0688 -863.574 11.7686C-864.706 11.4684 -863.295 10.9659 -864.301 10.796C-870.973 9.68608 -867.23 12.6229 -869.428 13.2071C-874.611 14.5901 -878.648 11.8603 -883.393 11.5929C-884.676 11.5207 -883.629 12.1419 -884.772 12.2003C-889.299 12.4223 -892.024 11.5708 -897.175 12.3516C-898.018 12.4794 -902.182 14.12 -904.877 12.9161C-905.259 12.7425 -904.174 12.0617 -906.104 11.9093C-908.986 11.6806 -914.18 11.5325 -917.279 11.7598C-919.567 11.928 -916.945 13.0483 -919.824 12.7003C-921.104 12.5448 -918.733 11.8898 -921.137 11.6524C-923.528 11.4151 -929.644 11.4433 -931.971 11.4659C-934.292 11.4891 -933.023 12.3389 -933.21 12.3966C-934.346 12.7246 -938.802 13.1348 -939.197 13.1339C-959.067 13.2376 -977.39 11.8041 -996.735 12.2784C-998.253 12.3145 -997.243 13.2105 -997.474 13.2257C-1002.67 13.6013 -998.574 11.2178 -1002.2 10.42C-1001.68 12.2392 -1003.82 11.91 -1007.48 12.1095C-1009.25 12.2069 -1008.29 12.9098 -1008.45 12.9835C-1011.06 14.0532 -1012.88 12.6719 -1013.35 12.3888C-1015.09 11.3489 -1016.97 12.5778 -1018.15 11.8829C-1019.33 11.193 -1016.62 10.1696 -1020.13 10.1827C-1021.11 10.8339 -1018.51 12.5357 -1021.17 12.8116C-1031.23 13.8548 -1050.01 12.5197 -1058.09 12.3809C-1066.16 12.2424 -1068.77 12.3624 -1073.47 12.127C-1081.97 11.7015 -1078.86 12.9641 -1084.13 13.5421C-1089.42 14.1198 -1086.85 11.0137 -1087.61 10.3458C-1088.36 9.67827 -1089.17 10.365 -1090.1 9.99813C-1091.03 9.63126 -1089.02 9.1779 -1091.2 9.04012C-1093.38 8.9025 -1099.33 10.0898 -1100.1 10.7882C-1101.74 12.2676 -1099.05 13.82 -1104.82 13.2745C-1105.15 13.242 -1104.07 12.4256 -1105.34 12.3429C-1115.42 11.714 -1125.9 11.6754 -1135.96 11.1192C-1137.35 11.0414 -1136.11 10.1329 -1136.92 10.0772C-1145.31 9.49603 -1142.31 11.0275 -1146.91 12.7296C-1145.87 10.4646 -1148.42 9.07891 -1154.79 9.06551C-1158.61 9.05669 -1157.96 10.046 -1160.43 10.7432C-1161.17 10.9534 -1163.88 10.2743 -1164.38 10.7393C-1165.99 12.2602 -1163.44 13.963 -1170.01 13.2852C-1170.3 13.253 -1169.38 12.4209 -1170.37 12.3702C-1176.81 12.0402 -1177.58 13.6306 -1184.53 13.8233C-1189.99 13.9745 -1199.68 13.0046 -1205.89 12.8468C-1205.76 10.3003 -1211.62 10.8831 -1214 12.6388C-1218.03 12.5669 -1222.38 12.6666 -1226.28 12.4239C-1227.62 12.3412 -1226.74 11.6034 -1226.91 11.5235C-1229.5 10.2741 -1231.25 11.9811 -1232.12 12.0489C-1241.54 12.6999 -1249.22 11.4057 -1258.22 12.671C-1258.54 12.7166 -1259.05 14.485 -1261.46 13.1934C-1261.61 13.1043 -1258.64 12.2997 -1262.87 12.2374C-1267.11 12.175 -1275.08 11.2273 -1280.96 12.047C-1282.38 12.2443 -1285.98 13.6797 -1288.86 12.5577C-1289.25 12.4052 -1288.83 11.8986 -1289.38 11.6163C-1291.18 10.7167 -1292.16 12.5044 -1294.26 10.9854C-1296.37 9.46644 -1300.76 8.32903 -1306.68 9.37703C-1306.87 9.40834 -1308.28 10.824 -1310.14 10.8018C-1313.11 10.7648 -1317.34 10.4704 -1320.44 10.4796C-1321.93 10.4845 -1320.98 11.3635 -1321.24 11.38C-1331.23 11.8731 -1338.35 11.0886 -1349.06 10.7481C-1351.03 10.6841 -1356.67 11.8843 -1360.47 10.9356C-1364.64 9.89704 -1360.35 5.57642 -1369.95 6.60555C-1373.82 7.01724 -1378.72 12.4987 -1385.67 9.65926C-1399.16 10.3629 -1411.63 8.90938 -1425.15 9.91414C-1425.76 9.95925 -1427.69 11.4886 -1429.12 11.4679C-1431.24 11.434 -1432.4 10.7181 -1433.92 10.671C-1440.27 10.4557 -1446.08 11.0679 -1452.21 10.9727C-1454.53 10.9381 -1453.72 10.1987 -1456.49 10.1573C-1459.26 10.1167 -1461.11 11.0903 -1464.86 10.6202C-1467.7 10.2618 -1470.54 8.27209 -1474.3 8.04012C-1474.44 10.0028 -1477.03 9.96246 -1481.62 10.4805C-1482.51 10.5811 -1481.56 11.2636 -1481.98 11.3468C-1483.68 11.6988 -1485.25 11.1328 -1486.87 11.5157C-1487.26 11.6077 -1487.28 12.278 -1487.6 12.3917C-1490.33 13.3787 -1494.83 11.8713 -1495.6 11.6085C-1498.56 10.6115 -1499.95 11.4833 -1502.22 11.0909C-1504.48 10.6983 -1501.09 10.2071 -1503.74 9.96883C-1509.23 9.47613 -1516.29 9.58459 -1521.86 9.55379C-1524.09 9.54564 -1522.57 10.44 -1522.89 10.46C-1527.49 10.687 -1532.14 9.73555 -1534.69 11.5177C-1537.88 6.90953 -1537.47 11.9645 -1544.05 11.0421C-1544.56 10.9665 -1545.22 8.7877 -1543.23 8.46785C-1541.24 8.14843 -1538.23 8.82979 -1535.47 8.33113C-1534.81 8.21324 -1531.07 6.1716 -1530.56 6.04793C-1526.56 5.08212 -1526 8.33472 -1525.78 8.51668C-1523.38 10.4466 -1518.81 8.2472 -1517.6 8.09481C-1512.09 7.39831 -1507.41 7.85662 -1502.8 7.35945C-1499.79 7.038 -1499.49 4.90564 -1497.13 4.97078C-1489.26 5.18663 -1486.51 8.16224 -1479.1 5.58211C-1477.51 5.03167 -1479.09 2.70009 -1473.39 4.53328C-1473.03 4.65038 -1468.8 6.32501 -1466.36 5.26473C-1466.05 5.13028 -1466.06 4.45187 -1465.66 4.39461C-1462.94 4.02544 -1461.13 4.56694 -1458.18 4.3077C-1455.23 4.04845 -1451.67 3.66226 -1448.3 3.89266C-1446.27 4.0305 -1443.66 5.2965 -1442.68 5.60652C-1439.94 6.49925 -1436.99 5.03538 -1435.29 6.11629C-1433.57 7.2029 -1436.93 8.85269 -1432.42 9.55477C-1432.26 7.7896 -1431.87 5.9774 -1431.61 4.20223C-1421.74 4.26439 -1412.03 4.83586 -1402.13 4.75789C-1400.9 4.74638 -1402.16 3.7976 -1400.84 3.76082C-1395.29 3.61007 -1390.44 4.2861 -1384.69 4.01668C-1380.23 3.80449 -1375.35 2.80014 -1370.69 2.54695C-1367.84 4.5669 -1360.93 3.88091 -1355.9 4.06551C-1354.14 4.12932 -1354.26 4.66874 -1353.01 4.84481C-1348.29 5.49566 -1350.5 3.71084 -1349.21 3.42977C-1343.66 2.23096 -1343.18 6.27072 -1336.63 6.17098C-1336.29 6.16643 -1332.05 4.01459 -1331.46 3.87996C-1327.76 3.00554 -1330.85 4.62888 -1328.53 4.78817C-1324.29 5.07896 -1321.34 5.5937 -1316.37 4.96297C-1314.92 4.77605 -1311.44 3.43347 -1308.63 4.47176C-1308.26 4.60809 -1308.46 5.31974 -1308.16 5.36141C-1302.76 6.05614 -1302.62 3.81913 -1299.54 3.0616C-1296.45 2.30438 -1291.69 3.84901 -1290.72 4.29402C-1288.18 5.44468 -1292.66 4.7863 -1292.8 4.89852C-1294.41 6.24301 -1290.94 6.01147 -1288.28 6.12508C-1287.9 8.31814 -1284.19 8.18669 -1285.53 6.23445C-1285.68 6.0212 -1287.75 6.22519 -1288.28 6.12508C-1285.95 3.97341 -1281.87 3.69825 -1277.36 5.70906C-1275.25 6.65151 -1277.25 7.74972 -1270.84 7.34774C-1267.93 7.16609 -1269.05 5.65591 -1266.49 5.24422C-1260.62 4.30499 -1253 5.71422 -1246.96 5.49227C-1244.76 5.4116 -1246.9 4.58461 -1245.4 4.50106C-1241.42 4.27683 -1237.91 4.89689 -1233.91 4.57918C-1233.55 4.5491 -1234.43 3.68396 -1233.19 3.67293C-1223.77 3.57247 -1215.56 4.12729 -1205.73 4.14266C-1200.97 4.14965 -1192.47 3.67172 -1187.55 3.76766C-1179.02 3.92886 -1168.52 5.18754 -1161.23 4.88192C-1156.47 4.68623 -1157.51 3.82024 -1155.48 3.23055C-1151.54 2.08772 -1144.58 4.13519 -1143.65 4.45223C-1143.64 4.46364 -1147.7 4.66821 -1145.53 5.11141C-1144.26 6.03654 -1143.69 4.45624 -1143.65 4.45223C-1143.03 4.65699 -1134.86 4.85395 -1133.23 4.68856C-1132.35 4.59806 -1132.85 3.77781 -1132.39 3.74617C-1121.46 3.01236 -1110.51 2.80417 -1099.42 3.18758C-1099.23 3.20458 -1099.52 4.12103 -1099.06 4.14852C-1092.64 4.55628 -1088.53 3.43481 -1083.24 2.76863C-1077.95 2.10277 -1073.75 2.32585 -1070.62 3.90047C-1066.63 3.70225 -1060.9 4.39799 -1057.6 4.82039C-1054.3 5.24272 -1053.84 3.45725 -1053.55 3.42195C-1044.51 2.29226 -1039.28 3.31465 -1029.89 3.47371C-1025.43 3.55238 -1016.57 3.29298 -1011.74 3.09774C-1007.93 2.94052 -1005.62 3.3584 -1002.11 3.0909C-1001.63 3.05501 -1002.11 2.26018 -1001.97 2.22957C-998.04 1.27856 -999.926 3.22232 -999.115 3.56941C-996.176 4.83156 -994.359 5.504 -989.331 4.91024C-988.171 4.77334 -984.793 1.97631 -982.679 1.81258C-979.93 1.60499 -980.967 2.60727 -978.089 2.36434C-977.843 2.34422 -977.893 1.72573 -976.117 1.75301C-967.871 1.87152 -958.881 2.23201 -950.312 2.17C-949.142 2.16374 -950.642 1.18227 -948.95 1.15731C-941.015 1.04097 -932.316 1.07681 -924.585 1.53621C-922.683 1.65245 -923.875 2.33999 -923.462 2.54402C-920.926 3.77822 -917.33 1.98481 -916.736 1.95027C-902.581 1.08823 -891.747 2.71148 -877.319 1.93856C-876.533 1.89259 -870.489 -0.0288688 -867.792 1.6202C-867.606 1.73094 -864.938 3.4171 -862.579 2.26375C-862.435 2.19047 -864.094 1.3228 -861.194 1.41121C-858.293 1.49954 -853.622 0.919637 -849.634 1.8741C-848.371 2.17504 -845.386 3.85734 -841.62 2.5157C-841.372 2.4208 -835.56 -0.61103 -833.484 1.48152C-833.148 1.82621 -833.5 4.04107 -829.004 2.90535C-828.146 2.68513 -829.704 2.19139 -827.442 1.88289C-823.975 1.40743 -819.38 2.00053 -815.118 1.01375C-814.374 0.838555 -811.21 -0.664315 -808.673 0.476641C-808.276 0.655694 -809.03 1.39488 -807.691 1.47762C-801.317 1.87459 -794.642 1.38 -788.171 1.89168C-785.88 2.07164 -787.051 3.26658 -784.662 3.58699C-782.272 3.90726 -777.458 4.21535 -774.957 3.66902C-772.457 3.12231 -775.188 1.217 -771.442 1.06453C-755.153 0.40236 -739.018 1.52016 -722.754 1.68367C-720.342 1.70806 -722.341 1.02669 -718.786 1.01375C-705.68 0.963012 -683.052 0.323809 -671.68 1.77254C-662.568 2.93293 -674.034 3.81596 -667.071 4.28817C-663.711 4.51335 -660.076 2.29834 -659.265 2.22859C-651.341 1.52022 -645.834 2.50133 -638.702 2.20027C-637.23 2.13774 -638.674 1.2406 -637.42 1.19734C-633.139 1.04169 -628.639 1.44155 -624.548 1.36824C-622.713 1.33322 -623.051 0.648424 -621.362 0.701251C-617.321 0.819997 -613.747 1.10833 -609.808 1.75106C-609.452 1.8104 -611.868 2.6627 -608.88 2.69441C-604.041 2.74338 -598.035 3.37652 -592.468 2.72176C-590.816 2.52463 -590.751 0.957806 -587.2 2.04012C-586.456 2.26666 -587.405 4.14839 -583.27 2.52254C-582.572 2.25181 -575.626 0.0593736 -572.217 1.47274C-571.317 1.8449 -569.021 3.38467 -567.034 3.14266C-566.767 3.10319 -567.843 2.26184 -566.198 2.17977C-560.397 1.90503 -554.317 1.9952 -548.358 1.73152C-546.767 1.65934 -549.136 0.787691 -546.765 0.708087C-540.242 0.487907 -532.098 0.709834 -525.72 0.982501C-523.369 1.08471 -524.994 1.80632 -524.822 1.88484C-522.071 3.16209 -520.443 1.4385 -519.53 1.33797C-513.851 0.73611 -509.526 1.54544 -504.29 1.33113C-502.846 1.27407 -503.87 0.452281 -503.582 0.378985C-500.6 -0.336988 -502.821 1.13896 -500.934 1.30184C-495.644 1.76261 -489.748 1.69692 -484.399 1.59188C-482.435 1.55193 -484.642 0.598994 -482.879 0.574298C-472.443 0.41005 -461.594 0.500956 -451.409 1.02645C-449.493 1.12712 -450.697 1.86037 -450.299 2.0284C-447.544 3.20122 -443.506 1.60169 -442.577 1.4493C-438.354 0.753567 -436.713 1.40248 -432.983 1.28133C-414.76 0.678147 -392.261 1.10851 -375.061 1.3741C-352.647 1.71592 -335.253 2.41381 -313.879 2.2325C-312.521 2.22183 -313.89 1.24539 -312.719 1.22371C-297.599 0.988329 -282.714 1.37 -267.565 1.08797C-266.323 1.06629 -268.113 0.140748 -266.118 0.0752743ZM834.605 1401.09C835.333 1399.06 834.876 1393.06 834.024 1395.6C833.351 1397.64 833.716 1403.62 834.605 1401.09ZM832.629 1342.79C833.171 1336.07 828.641 1335.46 830.13 1342.42C830.214 1342.82 832.595 1343.19 832.629 1342.79ZM823.975 1284.69C824.341 1278.88 821.599 1275.43 821.289 1279.56C820.968 1283.67 823.861 1286.46 823.975 1284.69ZM716.639 770.421C717.835 766.115 714.761 765.2 715.134 770.016C715.156 770.249 716.58 770.643 716.639 770.421ZM720.947 764.554C720.116 762.575 719.434 769.601 720.596 768.204C720.642 768.112 720.977 764.641 720.947 764.554ZM800.241 558.08C799.429 557.772 797.773 560.895 799.047 560.336C799.125 560.297 800.493 558.175 800.241 558.08ZM879.965 426.978C880.351 422.467 873 437.151 876.108 434.669C876.282 434.554 879.933 427.27 879.965 426.978ZM28.6532 14.5606C28.6396 14.5418 27.8367 14.5529 26.9569 14.5733C26.9675 14.8342 26.9982 15.0947 27.0555 15.3546C28.328 15.2711 29.4164 14.9931 28.6532 14.5606ZM-774.249 12.0919C-771.284 10.4616 -782.777 10.2892 -780.255 12.002C-780.112 12.0905 -774.435 12.1734 -774.249 12.0919ZM-1038.43 10.5206C-1037.1 9.52368 -1042.04 9.44344 -1041 10.4805C-1040.94 10.522 -1038.5 10.5613 -1038.43 10.5206ZM-881.738 9.88484C-881.859 9.03295 -884.321 9.27261 -883.521 10.0596C-883.472 10.1064 -881.705 10.1489 -881.738 9.88484ZM-1490.69 8.47469C-1492.15 7.87206 -1496.35 8.56712 -1494.53 9.31649C-1493.08 9.91854 -1488.89 9.22366 -1490.69 8.47469ZM-1453.47 8.2159C-1448.8 9.30757 -1448.07 4.85485 -1453.07 5.75496C-1453.36 5.80661 -1453.74 8.15249 -1453.47 8.2159ZM-1408.18 5.48348C-1410.99 4.41485 -1413.3 6.78428 -1412.09 7.20418C-1408.1 8.589 -1405.37 6.55329 -1408.18 5.48348ZM-1042.76 6.70809C-1039.7 7.56541 -1039.25 4.42561 -1042.55 5.17684C-1042.71 5.21926 -1042.91 6.66483 -1042.76 6.70809Z" fill="url(#paint1_linear_62_207)"/>
<path d="M751.806 1000.02C753.761 1003.44 755.073 1007.8 754.669 1011.07C753.725 1007.4 752.733 1003.71 751.806 1000.02Z" fill="url(#paint2_linear_62_207)"/>
<path d="M-1213.99 12.6397C-1211.33 12.7066 -1208.66 12.7167 -1205.99 12.7784C-1208.66 13.7814 -1211.86 13.8992 -1213.99 12.6397Z" fill="url(#paint3_linear_62_207)"/>
<path d="M-1564.33 9.36824C-1554.02 9.53598 -1547.76 13.214 -1558.99 12.7989C-1561.03 12.7238 -1554.61 11.6257 -1557.2 11.294C-1561.93 10.6898 -1565.08 12.9994 -1569.91 11.7618C-1570.79 11.5353 -1564.92 9.35078 -1564.31 9.36238C-1564.31 9.36403 -1564.32 9.36658 -1564.33 9.36824Z" fill="url(#paint4_linear_62_207)"/>
<defs>
<linearGradient id="paint0_linear_62_207" x1="911.32" y1="753.233" x2="-1570" y2="753.233" gradientUnits="userSpaceOnUse">
<stop stop-color="#E7FB62"/>
<stop offset="1" stop-color="#FB6262"/>
</linearGradient>
<linearGradient id="paint1_linear_62_207" x1="911.32" y1="753.233" x2="-1570" y2="753.233" gradientUnits="userSpaceOnUse">
<stop stop-color="#E7FB62"/>
<stop offset="1" stop-color="#FB6262"/>
</linearGradient>
<linearGradient id="paint2_linear_62_207" x1="911.32" y1="753.233" x2="-1570" y2="753.233" gradientUnits="userSpaceOnUse">
<stop stop-color="#E7FB62"/>
<stop offset="1" stop-color="#FB6262"/>
</linearGradient>
<linearGradient id="paint3_linear_62_207" x1="911.32" y1="753.233" x2="-1570" y2="753.233" gradientUnits="userSpaceOnUse">
<stop stop-color="#E7FB62"/>
<stop offset="1" stop-color="#FB6262"/>
</linearGradient>
<linearGradient id="paint4_linear_62_207" x1="911.32" y1="753.233" x2="-1570" y2="753.233" gradientUnits="userSpaceOnUse">
<stop stop-color="#E7FB62"/>
<stop offset="1" stop-color="#FB6262"/>
</linearGradient>
</defs>
</svg>
