<svg width="190" height="54" viewBox="0 0 190 54" fill="none" xmlns="http://www.w3.org/2000/svg">
<path d="M0 6.14523V47.8584C0 51.2487 2.74036 54 6.1253 54H150.875C154.256 54 157 51.2523 157 47.8584V25.5883C157 11.4564 145.574 0 131.48 0H6.1253C2.74036 0.00361059 0 2.75127 0 6.14523ZM41.7212 27.2997L36.4601 34.0804C36.0352 34.6292 35.3942 34.9686 34.7028 35.0155C34.0114 35.0625 33.3309 34.8133 32.8375 34.3259L30.2844 31.8201C29.8235 31.3688 29.0853 31.3652 28.6207 31.8165L26.2477 34.1201C25.4375 34.9036 24.1483 35.0625 23.1472 34.3548C22.7943 34.1056 22.5207 33.7554 22.337 33.3619L18.3255 24.8156C17.7997 23.6927 18.1995 22.3459 19.2581 21.696C19.2906 21.678 19.323 21.6599 19.3554 21.6419L24.0691 19.3167C24.5444 19.082 25.0954 19.0134 25.6067 19.165C26.1829 19.3347 26.6438 19.7355 26.8959 20.2771L27.7673 22.1618C28.2246 23.1475 27.8357 24.3246 26.8851 24.8445L25.776 25.4511C25.1134 25.8121 24.2815 25.5449 23.9539 24.8517C23.655 24.2126 23.943 23.4472 24.5624 23.1114L24.8505 22.9525C25.0233 22.8587 25.0918 22.6456 25.0089 22.4687L24.9153 22.2629C24.8289 22.0715 24.5984 21.9921 24.4112 22.086L21.1199 23.7108C20.9362 23.801 20.8606 24.0213 20.947 24.2054L23.9106 30.5167C24.2599 31.2605 25.2322 31.4374 25.8192 30.8669L27.7673 28.975C28.7216 28.0507 30.2124 28.0543 31.1595 28.9822L33.5685 31.3435C34.0763 31.8418 34.9045 31.784 35.3438 31.2244L39.647 25.6749C40.6265 24.4148 40.5112 22.6131 39.3805 21.4866L31.2567 13.3881C30.144 12.2796 28.4191 12.1496 27.1551 13.0848L15.2214 21.9199C13.9107 22.8911 13.547 24.7001 14.386 26.1046C14.386 26.1046 19.2942 34.2934 19.6182 34.8458C20.4465 36.2539 20.9974 37.2613 22.6251 36.9652C28.131 35.9723 29.0061 35.7304 28.9844 35.7376C29.6614 35.4741 30.4249 35.8098 30.6877 36.4886C30.9506 37.1674 30.6157 37.9329 29.9387 38.1964L14.9874 44.0384C14.7713 44.1286 14.548 44.1756 14.3212 44.1756C13.7882 44.1756 13.2697 43.9192 12.9456 43.4607C12.4703 42.7891 12.5459 41.8792 13.122 41.2943L16.633 37.7271C17.2308 37.1205 17.3424 36.1853 16.9067 35.4524L12.1282 27.4549C10.5869 24.877 11.2459 21.5877 13.655 19.8041L25.5923 10.969C27.9077 9.25395 31.0694 9.48863 33.1112 11.525L41.2351 19.6236C43.3056 21.6888 43.5181 24.9889 41.7212 27.2997ZM32.7547 22.494L33.7774 21.4686C34.2527 20.992 35.0233 20.992 35.4987 21.4686L36.5213 22.494C36.9967 22.9706 36.9967 23.7432 36.5213 24.2198L35.4987 25.2453C35.0233 25.7219 34.2527 25.7219 33.7774 25.2453L32.7547 24.2198C32.2794 23.7432 32.2794 22.9706 32.7547 22.494ZM61.4979 30.968L58.6855 31.2966L57.3207 24.5448L56.9354 24.9528L55.8191 31.3002L52.9455 30.9716L51.5195 19.555H53.7269L54.6092 29.5274H54.8072L56.1864 22.1329L58.365 22.9489L59.7046 29.5274H59.9026L60.8965 19.555L63.212 20.0857L61.5015 30.9716L61.4979 30.968ZM77.2775 30.8381L74.1302 31.1269L73.7989 28.827H73.3812V28.8739C73.3308 29.3469 73.1903 29.7513 72.9563 30.0871C72.6646 30.5131 72.2505 30.8308 71.7211 31.0403C71.1918 31.2533 70.5652 31.358 69.8414 31.358C68.6999 31.358 67.814 31.0836 67.1875 30.5312C66.5609 29.9751 66.2476 29.1952 66.2476 28.1843C66.2476 27.1047 67.4827 26.119 68.2281 25.5088L67.8032 24.2126C68.2642 24.3173 68.7143 24.3751 69.1536 24.3932C69.5929 24.4112 70.0467 24.4184 70.5076 24.4184C72.4089 24.4184 73.3596 23.8371 73.3596 22.6745C73.3596 22.1871 73.1939 21.8152 72.8662 21.5516C72.5385 21.2917 72.0776 21.1581 71.4762 21.1581C70.7957 21.1581 70.2267 21.2772 69.7658 21.5119C69.3084 21.7466 68.9628 22.0463 68.7395 22.4145C68.5126 22.7792 68.3974 23.1547 68.3974 23.5447L67.5368 23.3641L66.1072 25.6641V21.6383L64.3895 21.3494V19.9124L67.5368 19.6236L67.868 21.9235H68.2858V21.8766C68.3362 21.4036 68.4766 20.9992 68.7107 20.6634C69.0024 20.2374 69.4165 19.9196 69.9458 19.7102C70.4752 19.4972 71.1017 19.3925 71.8255 19.3925C72.9671 19.3925 73.8529 19.6669 74.4795 20.2193C75.1061 20.7753 75.4193 21.5552 75.4193 22.5662C75.4193 23.6458 74.4075 24.6026 73.6621 25.2164L73.8637 26.5415C73.4028 26.4367 72.9527 26.379 72.5133 26.3609C72.074 26.3429 71.6203 26.3357 71.1594 26.3357C69.258 26.3357 68.3074 26.917 68.3074 28.0796C68.3074 28.567 68.473 28.9389 68.8007 29.2025C69.1284 29.4624 69.5893 29.596 70.1907 29.596C70.8713 29.596 71.4402 29.4769 71.9012 29.2422C72.3585 29.0075 72.7042 28.7078 72.9275 28.3395C73.1543 27.9749 73.2695 27.5994 73.2695 27.2094L74.1266 27.3899L75.5598 25.09V29.1158L77.2775 29.4047V30.8417V30.8381ZM87.976 28.7836L88.2677 31.1269L79.2292 30.8344V29.3685L85.5886 21.7574H79.204L79.2256 19.4069L88.2641 20.2843L88.1633 21.7538L81.6707 29.1989L87.9688 28.7764L87.976 28.7836ZM99.0563 28.7836L99.348 31.1269L90.3095 30.8344V29.3685L96.6688 21.7574H90.2843L90.3059 19.4069L99.3444 20.2843L99.2436 21.7538L92.751 29.1989L99.0491 28.7764L99.0563 28.7836ZM113.313 30.968L110.165 31.2569L109.834 28.9569H109.416V29.0039C109.366 29.4769 109.226 29.8813 108.991 30.217C108.7 30.6431 108.286 30.9608 107.756 31.1702C107.227 31.3833 106.6 31.488 105.877 31.488C104.735 31.488 103.849 31.2136 103.223 30.6611C102.596 30.1051 102.283 29.3252 102.283 28.3143C102.283 27.2347 103.518 26.249 104.263 25.6388L103.838 24.3426C104.299 24.4473 104.749 24.5051 105.189 24.5231C105.628 24.5412 106.082 24.5484 106.543 24.5484C108.444 24.5484 109.395 23.9671 109.395 22.8045C109.395 22.3171 109.229 21.9452 108.901 21.6816C108.574 21.4216 108.113 21.288 107.511 21.288C106.831 21.288 106.262 21.4072 105.801 21.6419C105.344 21.8766 104.998 22.1762 104.775 22.5445C104.548 22.9092 104.433 23.2847 104.433 23.6746L103.576 23.4941L102.146 25.7941V21.7683L100.428 21.4794V20.0424L103.576 19.7535L103.907 22.0535H104.325V22.0066C104.375 21.5336 104.515 21.1292 104.749 20.7934C105.041 20.3673 105.455 20.0496 105.985 19.8402C106.514 19.6272 107.141 19.5225 107.864 19.5225C109.006 19.5225 109.892 19.7969 110.518 20.3493C111.145 20.9053 111.458 21.6852 111.458 22.6962C111.458 23.7757 110.446 24.7325 109.701 25.3463L109.903 26.6714C109.442 26.5667 108.991 26.509 108.552 26.4909C108.113 26.4729 107.659 26.4656 107.198 26.4656C105.297 26.4656 104.346 27.0469 104.346 28.2095C104.346 28.697 104.512 29.0689 104.84 29.3324C105.167 29.5924 105.628 29.726 106.229 29.726C106.91 29.726 107.479 29.6068 107.94 29.3722C108.397 29.1375 108.743 28.8378 108.966 28.4695C109.193 28.1048 109.308 27.7293 109.308 27.3394L110.165 27.5199L111.595 25.22V29.2458L113.313 29.5346V30.9716V30.968ZM125.318 29.531C125.084 29.8307 124.814 30.0834 124.512 30.2892C123.777 30.7839 122.841 30.9175 121.998 30.6431C121.703 30.5456 121.44 30.4084 121.21 30.2351C121.148 30.1882 121.094 30.1412 121.04 30.0907C120.63 29.7152 120.396 29.2169 120.335 28.5995H119.373L120.129 25.4366C120.129 26.5812 120.349 27.4477 120.799 28.0471C121.152 28.5128 121.545 28.7692 122.117 28.8595C122.452 28.91 122.801 28.827 123.071 28.6212C123.115 28.5887 123.151 28.5562 123.187 28.5273C123.323 28.4117 123.446 28.2781 123.558 28.1229C124.018 27.4874 124.249 26.5523 124.253 25.3066C124.253 23.9924 124.029 22.9995 123.572 22.3279C123.115 21.6563 122.441 21.3205 121.552 21.3205C120.68 21.3205 120.025 21.613 119.571 22.2087C119.38 22.4615 119.229 22.7648 119.121 23.1186L117.926 23.328L117.634 21.1689H117.447L117.915 35.2358L115.156 35.521L115.887 19.49L118.599 19.4972L118.909 21.6491H119.006C119.107 20.9523 119.42 20.4071 119.953 20.0207C120.486 19.6308 121.184 19.4358 122.049 19.4394C123.5 19.4394 124.598 19.9377 125.34 20.9342C126.082 21.9271 126.449 23.3858 126.446 25.3139C126.442 27.1697 126.067 28.5778 125.322 29.5346L125.318 29.531ZM133.392 34.4089C133.341 34.8242 133.255 35.1166 133.125 35.2755C132.996 35.438 132.657 35.4849 132.11 35.4199C131.577 35.3549 131.278 35.2321 131.206 35.048C131.134 34.8639 131.123 34.5606 131.174 34.1454C131.228 33.694 131.307 33.398 131.419 33.2499C131.53 33.1019 131.851 33.0622 132.384 33.1236C132.949 33.1922 133.273 33.3113 133.352 33.481C133.431 33.6507 133.446 33.9612 133.392 34.4125V34.4089ZM133.327 30.7009L131.98 30.542L132.337 19.6344L135.578 20.0207L133.327 30.7045V30.7009ZM139.647 14.0524L139.366 26.5776L137.814 26.6823L135.913 14.3052L139.647 14.0524ZM140.104 31.7804C139.992 31.9898 139.622 32.1162 138.988 32.1595C138.376 32.1992 138.008 32.1234 137.889 31.9285C137.771 31.7335 137.695 31.3977 137.663 30.9175C137.627 30.3976 137.655 30.0437 137.749 29.856C137.843 29.6682 138.196 29.5527 138.808 29.5094C139.46 29.466 139.848 29.531 139.974 29.7043C140.101 29.8813 140.183 30.2243 140.219 30.7442C140.252 31.2244 140.212 31.571 140.101 31.7804H140.104ZM141.12 19.9196L144.36 19.5189L144.721 30.4337L143.374 30.5998L141.12 19.9196ZM145.614 34.9252C145.527 35.113 145.21 35.243 144.663 35.308C144.13 35.373 143.81 35.326 143.698 35.1599C143.586 34.9975 143.503 34.705 143.453 34.2898C143.399 33.8385 143.406 33.5316 143.478 33.3619C143.55 33.1922 143.853 33.073 144.382 33.008C144.947 32.9394 145.29 32.9755 145.408 33.1236C145.527 33.268 145.614 33.5677 145.671 34.0154C145.722 34.4306 145.704 34.7339 145.617 34.9216L145.614 34.9252Z" fill="white"/>
</svg>
