<svg width="996" height="346" viewBox="0 0 996 346" fill="none" xmlns="http://www.w3.org/2000/svg">
<path d="M124.511 0.606783C138.343 0.333229 156.474 0.625724 170.254 1.02719C174.573 1.15171 172.386 1.70829 175.367 1.8193C181.197 2.03571 186.629 1.76274 192.391 2.02054C194.301 2.1087 191.924 2.99033 193.926 3.06259C204.898 3.45222 215.278 3.22765 226.392 3.41506C281.14 4.33969 334.955 4.67065 390.372 5.07234C408.644 5.20404 430.857 6.00416 449.73 5.65425C451.934 5.61261 450.62 4.83876 451.039 4.77498C457.614 3.79857 455.428 5.36081 459.721 5.56838C476.759 6.38791 495.705 6.45919 512.102 6.16054C519.078 6.03121 512.084 4.49415 519.107 5.35689C519.595 5.41518 517.825 6.23695 519.738 6.3246C524.077 6.52173 532.308 6.37485 535.67 6.43996C542.15 6.5696 543.222 6.56133 549.352 6.57069C557.731 6.59065 567.696 6.99914 576.686 6.81294C578.605 6.77075 576.065 5.92834 579.125 5.78499C582.188 5.64187 590.291 5.7133 593.023 5.91188C595.756 6.11056 594.592 6.77268 595.076 6.92445C599.054 8.20542 608.427 6.43128 609.633 6.3874C631.622 5.63982 650.479 6.65048 671.119 6.6476C686.789 6.64327 703.544 6.30961 718.454 6.35536C736.217 6.41313 751.271 6.86962 768.528 6.79115C770.349 6.78384 768.215 5.79336 770.439 5.78243C794.071 5.66717 817.539 5.77514 841.069 6.4438C843.429 6.51173 840.388 7.38137 842.745 7.50123C857.179 8.21591 880.019 9.93275 888.591 6.14644C889.382 6.15839 890.185 6.17037 891 6.1827C900.724 6.2441 911.859 8.17347 919.678 11.224C925.117 13.406 919.46 12.5403 926.316 14.4753C927.858 14.9527 926.18 13.4323 928.48 14.2302C938.172 17.62 947.834 23.5117 956.004 29.5443C957.669 30.7722 957.699 29.8501 958.241 30.1219C962.857 32.435 967.443 39.6753 968.464 41.1003C976.737 51.9224 982.222 60.2284 987.102 71.8993C988.183 74.6259 987.835 71.0221 988.896 73.6613C993.54 85.4038 995.856 98.4833 995.533 111C995.484 113.033 995.427 115.054 995.363 117.058C995.262 120.127 994.411 117.305 994.319 118.771C993.925 125.239 995.532 126.673 995.185 132.877C995.113 134.184 994.385 133.448 994.305 133.686C993.05 137.42 994.829 140.664 994.868 141.624C995.405 153.771 993.548 161.536 993.81 173.271C993.844 174.675 994.765 171.509 994.803 175.456C995.01 196.892 994.88 219.336 994.425 241C994.323 246.085 993.836 251.087 992.987 255.972C992.234 260.077 992.01 257.021 991.887 257.27C989.9 261.214 990.996 264.207 990.74 265.56C988.653 276.172 983.18 284.647 981.439 292C963.154 323.81 927.547 345.207 891 344.166C882.349 343.993 873.705 343.737 865.066 343.361C864.511 343.339 865.507 342.459 864.398 342.419C851.046 341.925 853.61 343.292 844.775 344.964C842.549 345.384 835.779 343.365 835.18 343.217C832.998 342.672 835.261 341.363 834.53 341.257C828.483 340.428 829.468 344.756 821.31 344.758C821.055 344.75 822.127 343.954 821.442 343.875C819.315 343.626 817.206 343.942 815.124 343.668C810.36 343.034 808.663 340.93 801.386 342.154C800.465 342.313 801.872 344.769 794.588 344.653C791.684 344.604 778.831 344.646 775.228 344.487C771.63 344.328 774.101 343.537 773.844 343.503C764.15 342.457 767.826 342.023 762.969 340.474C758.112 338.931 759.459 342.611 757.479 343.022C755.496 343.432 748.388 342.569 746.641 342.269C744.896 341.968 747.073 341.466 745.521 341.296C735.228 340.186 741.003 343.123 737.611 343.707C729.615 345.09 723.388 342.36 716.068 342.093C714.087 342.021 715.703 342.642 713.94 342.701C706.954 342.923 702.753 342.071 694.806 342.852C693.506 342.979 687.082 344.62 682.923 343.416C682.334 343.242 684.008 342.562 681.031 342.41C676.584 342.181 668.571 342.032 663.79 342.26C660.261 342.428 664.306 343.549 659.863 343.2C657.889 343.045 661.548 342.389 657.839 342.152C654.149 341.915 644.715 341.943 641.126 341.966C637.542 341.989 639.504 342.839 639.214 342.897C637.462 343.225 630.585 343.635 629.977 343.634C599.324 343.737 571.057 342.304 541.212 342.779C538.87 342.815 540.43 343.711 540.073 343.726C532.055 344.102 538.377 341.718 532.776 340.92C533.585 342.739 530.279 342.41 524.631 342.609C521.909 342.707 523.391 343.412 523.143 343.484C519.107 344.554 516.297 343.172 515.573 342.889C512.9 341.849 509.991 343.078 508.172 342.383C506.354 341.693 510.538 340.67 505.121 340.683C503.602 341.334 507.623 343.036 503.511 343.312C487.994 344.355 459.03 343.02 446.553 342.881C434.102 342.743 430.081 342.863 422.825 342.627C409.72 342.202 414.522 343.465 406.385 344.042C398.223 344.62 402.191 341.514 401.018 340.846C399.866 340.178 398.608 340.865 397.176 340.498C395.748 340.132 398.839 339.677 395.481 339.54C392.121 339.402 382.934 340.59 381.743 341.288C379.225 342.767 383.365 344.32 374.474 343.775C373.963 343.742 375.622 342.925 373.664 342.843C358.113 342.214 341.956 342.175 326.424 341.619C324.288 341.541 326.198 340.632 324.955 340.577C312.009 339.995 316.637 341.528 309.541 343.23C311.134 340.965 307.21 339.579 297.385 339.565C291.479 339.557 292.495 340.546 288.675 341.243C287.529 341.453 283.35 340.774 282.592 341.239C280.095 342.76 284.032 344.463 273.902 343.785C273.457 343.753 274.872 342.92 273.337 342.87C263.41 342.54 262.222 344.131 251.492 344.323C243.081 344.474 228.122 343.504 218.545 343.346C218.746 340.8 209.7 341.383 206.031 343.139C199.816 343.067 193.103 343.166 187.095 342.924C185.028 342.841 186.386 342.103 186.126 342.024C182.128 340.774 179.426 342.482 178.084 342.549C163.544 343.2 151.698 341.906 137.822 343.171C137.329 343.216 136.531 344.986 132.822 343.694C132.582 343.605 137.165 342.8 130.637 342.738C124.108 342.675 111.801 341.727 102.737 342.547C102.287 342.587 101.695 342.68 101 342.792C98.2648 343.24 93.8516 343.784 90.3479 342.509C89.7605 342.293 90.4711 341.86 89.6376 341.485C86.9809 340.269 85.1903 341.825 82.2228 339.734C79.2648 337.612 73.1115 335.222 64.3596 332.866C64.0892 332.788 61.5431 333.314 58.9222 332.076C54.7381 330.138 49.1826 326.686 45.2282 323.99C43.3291 322.702 44.0431 324.253 43.7044 324.041C30.7595 315.384 23.2742 306.557 14.8778 292.34C13.3286 289.775 8.1586 282.469 7.03464 276.542C5.9696 270.095 11.5968 275.019 7.09575 261.551C5.65668 256.64 -0.0523676 250.463 1.2818 241C1.41163 240.117 1.59519 239.212 1.84118 238.282C1.13749 217.476 2.59091 198.235 1.58612 177.37C1.5416 176.432 0.0118359 173.465 0.0326565 171.259C0.0665261 167.985 0.781513 166.187 0.828613 163.849C1.04398 154.051 0.432258 145.085 0.527406 135.639C0.561977 132.052 1.30127 133.306 1.34259 129.029C1.38322 124.754 0.409714 121.903 0.879883 116.11C1.01721 114.433 1.39407 112.757 1.81978 111C2.50764 108.175 3.42395 105.251 3.88886 101.791C1.98416 101.413 2.22673 97.4378 3.14411 90.3999C3.33022 89.0417 2.35593 90.3345 2.41075 89.6822C2.62724 87.0098 3.78623 84.7785 4.12985 82.2648C4.2159 81.6531 3.58329 81.4312 3.62309 80.9162C3.89291 76.4553 8.01941 70.4179 8.78455 69.4766C11.6058 65.7124 11.8507 63.4434 13.9495 60.5621C16.0728 57.7433 13.8201 62.4838 16.1184 59.1152C20.8695 52.1484 27.6567 43.7188 34.0219 38.0227C36.5501 35.7494 34.2346 36.6357 34.582 36.2949C39.7486 31.3529 46.1909 28.1358 48.6543 24.586C55.2525 26.1252 52.0076 21.7774 61.8004 18.3866C62.58 18.1443 64.3099 19.7617 61.6765 21.2428C59.0617 22.7248 54.6531 24.1387 51.3105 26.7092C50.4727 27.2898 46.8879 32.0356 46.3884 32.5863C42.1855 36.7648 39.597 34.8653 39.206 34.9117C35.0856 35.6854 31.4904 42.1721 30.428 43.5877C25.2316 50.0583 20.7314 55.491 17.619 61.6808C15.6303 65.7532 17.3535 67.1335 15.7729 70.1914C10.8957 80.4087 6.78535 83.7973 7.25078 95.0428C7.47146 97.4623 9.90056 95.4292 7.26679 103.43C7.13855 103.818 5.82035 107.582 5.88649 111C5.90022 112.006 6.001 112.971 6.23497 113.803C6.36872 114.276 7.04819 114.261 7.10527 114.886C7.47448 119.071 6.93317 121.862 7.19242 126.42C7.45168 130.979 7.83816 136.46 7.60771 141.665C7.4699 144.801 6.20396 148.826 5.89403 150.328C5.00119 154.567 6.46507 159.113 5.3839 161.74C4.29728 164.388 2.64709 159.21 1.945 166.156C3.7103 166.413 5.52221 167.004 7.29753 167.418C7.23537 182.639 6.66455 197.615 6.74254 212.887C6.75397 214.781 7.703 212.844 7.73972 214.874C7.89049 223.438 7.21396 230.918 7.48338 239.798C7.49567 240.197 7.51063 240.597 7.52795 241C7.79999 247.147 9.34665 253.622 10.8443 259.659C9.58332 264.063 13.0275 273.61 16.0082 280.184C17.0268 282.504 16.4822 282.59 17.151 284.292C19.8454 290.66 19.8967 286.929 21.0533 288.406C26.26 294.452 23.2578 297.405 29.6601 304.748C29.9902 305.186 35.8367 308.152 36.5499 308.572C41.0605 311.561 36.6693 309.741 39.0789 312.108C43.5585 316.328 46.772 319.391 53.3309 322.571C55.264 323.511 60.2698 324.69 63.5829 327.229C64.0224 327.567 63.4676 328.103 63.8527 328.313C70.9365 331.942 71.9639 329.73 76.3644 330.249C80.7525 330.747 87.1644 333.388 88.5298 333.972C92.0387 335.584 85.6675 334.095 85.4539 334.125C82.8962 335.045 87.9595 335.745 91.8612 336.194C92.1982 338.471 97.8353 338.667 95.909 336.601C95.6909 336.387 92.63 336.382 91.8612 336.194C94.1585 335.043 97.2999 334.653 101 334.898C103.272 335.041 105.734 335.471 108.284 336.209C111.539 337.151 108.461 338.25 118.349 337.848C122.837 337.666 121.103 336.156 125.063 335.745C134.11 334.805 145.867 336.214 155.194 335.992C158.579 335.911 155.282 335.085 157.595 335.001C163.735 334.777 169.15 335.397 175.316 335.079C175.875 335.049 174.51 334.184 176.427 334.173C190.964 334.073 203.622 334.627 218.799 334.642C226.132 334.649 239.243 334.172 246.84 334.268C260.006 334.429 276.203 335.687 287.451 335.382C294.787 335.186 293.178 334.321 296.321 333.731C302.387 332.588 313.123 334.635 314.569 334.952C314.614 334.963 308.301 335.167 311.669 335.611C313.627 336.537 314.498 334.956 314.569 334.952C315.519 335.157 328.129 335.354 330.633 335.188C331.994 335.098 331.232 334.278 331.942 334.246C348.804 333.512 365.696 333.304 382.798 333.687C383.099 333.704 382.645 334.621 383.353 334.649C393.254 335.056 399.594 333.934 407.759 333.268C415.924 332.602 422.399 332.825 427.232 334.4C433.392 334.202 442.23 334.898 447.316 335.32C452.402 335.743 453.112 333.957 453.559 333.922C467.516 332.792 475.585 333.814 490.065 333.973C496.949 334.052 510.605 333.793 518.058 333.598C523.949 333.44 527.498 333.859 532.926 333.591C533.661 333.555 532.919 332.76 533.143 332.73C539.201 331.779 536.289 333.722 537.54 334.069C542.075 335.332 544.876 336.004 552.634 335.41C554.423 335.274 559.636 332.476 562.898 332.312C567.138 332.104 565.538 333.107 569.978 332.864C570.358 332.845 570.279 332.226 573.02 332.253C585.741 332.372 599.611 332.732 612.831 332.67C614.636 332.664 612.321 331.682 614.93 331.657C627.173 331.541 640.592 331.577 652.519 332.036C655.455 332.153 653.614 332.84 654.252 333.044C658.164 334.279 663.713 332.485 664.628 332.45C686.466 331.588 703.179 333.212 725.437 332.439C726.648 332.394 735.974 330.47 740.135 332.12C740.42 332.23 744.536 333.917 748.176 332.763C748.402 332.691 745.837 331.822 750.314 331.911C754.79 331.999 761.994 331.419 768.148 332.374C770.096 332.674 774.7 334.358 780.511 333.016C780.889 332.922 789.86 329.888 793.062 331.981C793.581 332.326 793.038 334.541 799.974 333.405C801.299 333.185 798.893 332.691 802.384 332.383C807.733 331.907 814.82 332.5 821.395 331.514C822.542 331.339 827.423 329.835 831.338 330.976C831.952 331.155 830.786 331.895 832.854 331.978C842.687 332.375 852.983 331.88 862.967 332.392C866.503 332.571 864.695 333.767 868.381 334.087C872.068 334.408 879.495 334.716 883.352 334.169C887.211 333.623 882.996 331.717 888.776 331.565C889.517 331.545 890.259 331.527 891 331.511C913.011 331.043 934.957 323.808 951.727 309.021C954.242 306.743 951.764 308.191 955.3 304.704C969.377 292.248 981.138 262.061 982.141 245.94C982.56 242.995 982.789 241.553 983.032 241C983.219 240.529 983.396 240.651 983.562 241C984.038 241.929 984.386 244.643 984.694 241C984.727 240.534 984.759 239.972 984.788 239.296C985.014 234.113 982.798 228.505 982.729 227.253C982.02 215.029 983.001 206.533 982.7 195.531C982.638 193.259 981.74 195.487 981.697 193.553C981.541 186.948 981.942 180.006 981.869 173.695C981.834 170.863 981.148 171.385 981.201 168.78C981.32 162.546 981.608 157.033 982.25 150.955C982.309 150.401 983.162 154.136 983.194 149.524C983.243 142.059 983.877 132.793 983.222 124.204C983.025 121.656 981.458 121.556 982.54 116.078C982.754 114.993 984.446 116.242 983.26 111C983.191 110.716 983.11 110.412 983.018 110.087C982.836 109.018 980.118 99.5301 980.511 94.6611C980.664 93.3735 981.522 89.8356 980.543 87.1422C980.406 86.784 979.995 88.4734 979.302 86.2476C976.845 78.4364 973.489 70.4584 968.869 63.4378C967.627 61.5774 968.653 64.8441 966.815 62.0946C961.781 54.5382 954.27 45.9563 947.408 40.2474C944.886 38.1393 947.113 38.9683 946.977 38.7594C944.66 35.3561 941.705 35.4946 940.602 34.8869C933.617 31.0981 928.507 27.7363 921.52 25.4208C919.595 24.806 920.679 26.0569 920.276 25.9937C916.132 25.376 919.515 24.9238 917.046 23.9864C910.09 21.396 901.775 20.0945 894.263 19.9657C891.503 19.9294 894.574 20.9554 892.112 20.9328C891.742 20.9325 891.371 20.9343 891 20.9381C875.278 21.0855 858.991 20.9858 843.677 20.4737C840.719 20.373 842.58 19.639 841.963 19.4713C837.714 18.2984 831.485 19.8983 830.052 20.0507C823.536 20.7465 821.005 20.0974 815.25 20.2186C787.138 20.8218 752.428 20.3919 725.892 20.1263C691.313 19.7845 664.481 19.0862 631.506 19.2676C629.41 19.2782 631.524 20.2546 629.717 20.2763C606.392 20.5117 583.429 20.1301 560.058 20.4121C558.14 20.4336 560.904 21.3592 557.826 21.4247C551.512 21.5655 543.514 21.5152 537.13 21.2196C534.016 21.0772 538.193 20.2829 535.058 20.1558C527.76 19.858 519.937 19.7921 512.441 19.9405C509.251 20.0056 514.064 20.9524 509.917 20.9633C481.672 21.0572 453.933 21.2203 425.39 19.9943C423.433 19.9101 421.716 17.986 417.556 18.355C417.243 18.889 417.26 19.5171 417.123 20.0879C376.005 20.3953 335.307 19.7283 294.074 19.6252C292.336 19.621 295.34 20.6405 291.975 20.6377C272.495 20.6227 253.578 20.9051 233.652 19.8918C231.675 19.7927 232.689 17.9991 226.863 18.2704C225.835 18.3199 217.06 18.5591 214.792 18.9484C214.484 19.0071 216.084 19.8443 213.257 19.8687C196.825 19.9958 179.605 19.8047 163.201 19.2932C160.554 19.209 163.373 18.3175 161.488 18.2499C148.112 17.7766 133.563 18.4543 120.782 17.6449C112.227 17.0999 115.395 15.5588 110.848 14.0419C110.205 13.8279 104.908 13.794 104.634 12.9114C103.931 10.6921 106.497 8.26204 105.444 5.8965C105.221 5.38698 98.1264 5.93577 102.327 4.70449C102.62 4.62208 107.764 4.21343 109.031 3.79574C109.913 3.50695 108.324 2.60939 110.123 2.23971C111.923 1.87038 113.9 2.62277 116.884 2.18844C119.866 1.74874 118.555 0.727654 124.511 0.606783ZM470.216 337.208C474.925 338.066 475.62 334.925 470.527 335.677C470.28 335.717 469.973 337.166 470.216 337.208ZM4.2957 197.53C2.91053 203.686 4.94729 207.899 6.01707 203.556C7.08571 199.214 4.7156 195.654 4.2957 197.53ZM3.28442 133.689C2.19227 140.885 6.64561 142.017 5.74535 134.311C5.69447 133.863 3.34783 133.269 3.28442 133.689ZM131.931 13.61C131.866 13.5683 128.058 13.5276 127.967 13.569C125.939 14.5664 133.554 14.647 131.931 13.61ZM10.2161 71.9097C8.72324 73.6995 7.21101 79.9775 8.85206 77.6369C10.1089 75.7606 11.9919 69.6929 10.2161 71.9097ZM715.87 340.56C715.944 340.607 718.674 340.649 718.619 340.384C718.434 339.532 714.635 339.773 715.87 340.56ZM92.3499 12.5052C76.8534 14.0079 66.2926 13.7371 83.7056 10.1571C86.8497 9.65386 77.1748 12.5908 81.2166 12.1466C88.4887 11.3735 93.2341 8.57509 100.861 9.73795C102.177 9.89422 93.1886 12.3403 92.3226 12.5128C92.3317 12.5103 92.3408 12.5078 92.3499 12.5052ZM472.928 340.98C473.022 341.022 476.801 341.061 476.892 341.02C478.938 340.023 471.325 339.943 472.928 340.98ZM875.179 342.502C875.388 342.59 884.159 342.673 884.445 342.592C889.02 340.961 871.288 340.789 875.179 342.502ZM218.394 343.279C214.27 344.282 209.337 344.4 206.05 343.14C210.148 343.207 214.274 343.217 218.394 343.279Z" fill="url(#paint0_linear_2025_7567)"/>
<defs>
<linearGradient id="paint0_linear_2025_7567" x1="991" y1="176" x2="1" y2="176" gradientUnits="userSpaceOnUse">
<stop stop-color="#E7FB62"/>
<stop offset="1" stop-color="#FB6262"/>
</linearGradient>
</defs>
</svg>
