<svg width="350" height="91" viewBox="0 0 350 91" fill="none" xmlns="http://www.w3.org/2000/svg">
<path d="M270.165 30.3225C275.652 30.3225 279.814 32.2038 282.624 35.9629C285.434 39.6999 286.828 45.2061 286.805 52.4803H286.827L286.81 53.7738C286.641 60.146 285.213 65.0226 282.579 68.4017C281.694 69.5292 280.676 70.4805 279.526 71.2543C276.76 73.1115 273.198 73.6192 270.012 72.5802C268.883 72.2043 267.908 71.6947 267.023 71.0535C266.802 70.8768 266.58 70.6994 266.381 70.5006C264.833 69.0855 263.948 67.2054 263.704 64.884H260.076L262.931 52.9446C262.931 57.2564 263.771 60.5296 265.452 62.7851C266.78 64.5539 268.264 65.5041 270.455 65.8579C271.716 66.0566 273.043 65.7468 274.061 64.951C274.216 64.8405 274.369 64.7072 274.502 64.5968C275.011 64.1546 275.499 63.6472 275.898 63.0723C277.645 60.6843 278.507 57.146 278.53 52.4587C278.53 47.5058 277.689 43.7684 275.941 41.2254C274.215 38.6825 271.671 37.4205 268.285 37.4205C264.9 37.4205 262.511 38.5278 260.785 40.7612C260.055 41.712 259.478 42.8615 259.08 44.1882L254.566 44.9828L253.46 36.8461H252.753L254.523 89.916L244.078 91L246.844 30.5234H257.112L258.285 38.66H258.661C259.037 36.0289 260.23 33.9716 262.244 32.5122C264.257 31.0308 266.891 30.3006 270.165 30.3225Z" fill="url(#paint0_linear_1_476)"/>
<path d="M219.107 30.0051C223.08 30.1295 226.195 31.1842 228.436 33.1535C230.825 35.2763 232.02 38.2396 232.02 42.087C232.02 46.1995 228.148 49.8475 225.294 52.1694L226.067 57.2116C224.297 56.8136 222.593 56.5934 220.912 56.5271C220.071 56.4939 219.219 56.4718 218.355 56.458C217.493 56.4442 216.619 56.4385 215.734 56.4385C215.281 56.4385 214.842 56.4472 214.416 56.4644C208.035 56.7235 204.827 58.9261 204.827 63.0723C204.827 64.9294 205.468 66.3443 206.707 67.3393C207.791 68.21 209.282 68.7076 211.179 68.8185C211.45 68.8343 211.73 68.8422 212.018 68.8422C212.344 68.8422 212.663 68.8366 212.975 68.8228C215.163 68.7258 217.014 68.2878 218.543 67.4947C220.291 66.6102 221.598 65.4592 222.483 64.044C223.238 62.8252 223.672 61.5731 223.768 60.2866C223.782 60.103 223.788 59.9187 223.788 59.7338L227.064 60.4183L232.528 51.6619V67.0089L239.099 68.1145V73.5973L227.064 74.7029L225.802 65.9464H224.209V66.1235C224.01 67.9145 223.478 69.4622 222.593 70.7447C221.487 72.3587 219.894 73.5743 217.88 74.3703C215.867 75.1884 213.455 75.5645 210.689 75.5645C206.33 75.5644 202.944 74.5037 200.555 72.4031C198.165 70.2803 196.97 67.3169 196.97 63.4696C196.97 59.3568 201.685 55.5967 204.539 53.275L202.923 48.345C203.366 48.4445 203.804 48.5329 204.239 48.6106C205.544 48.8439 206.818 48.9798 208.079 49.0296C209.76 49.0959 211.486 49.1181 213.256 49.1181C220.514 49.1181 224.164 46.9069 224.164 42.4844C224.164 40.6273 223.523 39.2123 222.284 38.2174C221.2 37.3466 219.709 36.849 217.811 36.7382L216.973 36.7144C216.647 36.7144 216.328 36.72 216.015 36.7338C213.828 36.8308 211.976 37.2689 210.447 38.0619C208.699 38.9464 207.393 40.0974 206.508 41.5126C205.753 42.7313 205.319 43.9836 205.222 45.27C205.208 45.454 205.203 45.6396 205.203 45.825L201.927 45.1383L196.462 53.8947V38.5499L189.891 37.4443V31.9594L201.927 30.8538L203.189 39.6102H204.781V39.4331C204.981 37.6422 205.513 36.0944 206.398 34.812C207.504 33.1979 209.097 31.9823 211.11 31.1863C212.872 30.4703 214.939 30.0925 217.282 30.0094C217.616 29.9976 217.956 29.9921 218.301 29.9921L219.107 30.0051Z" fill="url(#paint1_linear_1_476)"/>
<path d="M301.233 65.3958C302.586 65.5563 303.689 66.1782 304.543 67.2615C305.397 68.3449 305.746 69.5631 305.585 70.9153C305.479 71.8101 305.152 72.6046 304.606 73.2993C304.078 73.9964 303.411 74.5293 302.607 74.8972C301.824 75.2489 300.976 75.3705 300.062 75.2622C298.709 75.1017 297.606 74.4797 296.752 73.3964C295.898 72.313 295.549 71.0949 295.71 69.7427C295.871 68.3909 296.493 67.2878 297.577 66.4345C298.661 65.581 299.88 65.2353 301.233 65.3958Z" fill="url(#paint2_linear_1_476)"/>
<path d="M77.8407 29.5041C82.1996 29.5041 85.5852 30.567 87.9749 32.6677C90.3646 34.7905 91.5597 37.7536 91.5597 41.6012C91.5593 45.7139 87.6873 49.3618 84.8331 51.6835L85.6088 56.7257C85.1666 56.6263 84.7275 56.5378 84.2929 56.4601C82.988 56.2269 81.7144 56.0888 80.4531 56.039C79.6124 56.0059 78.7598 55.9838 77.8969 55.9699C77.0339 55.9561 76.1588 55.9527 75.2737 55.9527C74.8202 55.9527 74.3809 55.9613 73.9556 55.9786C67.5749 56.2378 64.366 58.4404 64.366 62.5864C64.3662 64.4433 65.0092 65.8585 66.248 66.8534C67.487 67.848 69.2566 68.3563 71.5571 68.3563C74.1679 68.3563 76.337 67.9154 78.0849 67.0089C79.8329 66.1244 81.139 64.9733 82.024 63.5581C82.7788 62.3396 83.2109 61.0869 83.3075 59.8007C83.3214 59.6166 83.3292 59.4313 83.3292 59.2458L86.6028 59.9325L92.0696 51.176V66.5208L98.6406 67.6265V73.1114L86.6028 74.217L85.343 65.4606H83.7484V65.6376C83.5491 67.4284 83.0192 68.9765 82.1342 70.2588C81.028 71.8728 79.4347 73.0884 77.4215 73.8845C75.6597 74.6004 73.5924 74.9782 71.2503 75.0613C70.9159 75.0732 70.5759 75.0786 70.2304 75.0786C69.9581 75.0786 69.6891 75.0739 69.4244 75.0657C65.4521 74.9414 62.3366 73.8864 60.0962 71.9172C57.7066 69.7945 56.5115 66.8311 56.5114 62.9837C56.5114 58.8708 61.2242 55.1109 64.0786 52.7891L62.4645 47.8592C62.9063 47.9585 63.344 48.0471 63.7782 48.1248C65.083 48.358 66.3568 48.4939 67.618 48.5437C68.4587 48.5769 69.3114 48.599 70.1742 48.6128C71.0373 48.6266 71.9122 48.6322 72.7974 48.6322C73.2509 48.6322 73.6902 48.6236 74.1155 48.6063C80.4963 48.3471 83.7051 46.1445 83.7051 41.9985C83.7051 40.1416 83.0637 38.7265 81.8252 37.7315C80.7411 36.8609 79.2495 36.3611 77.3524 36.2501C77.0812 36.2343 76.8017 36.2264 76.514 36.2264C76.1873 36.2264 75.8674 36.2341 75.5546 36.248C73.3669 36.3451 71.5155 36.7828 69.9862 37.576C68.2383 38.4605 66.9321 39.6116 66.0471 41.0268C65.1847 42.4193 64.7421 43.8561 64.7419 45.337L61.4683 44.6524L56.0015 53.4089V38.0619L49.4305 36.9563V31.4735L61.4683 30.3679L62.7281 39.1243H64.3227V38.9472C64.5219 37.1564 65.052 35.6085 65.9369 34.3261C67.0431 32.712 68.6362 31.4943 70.6496 30.6983C72.6629 29.8802 75.0752 29.5042 77.8407 29.5041Z" fill="url(#paint3_linear_1_476)"/>
<path d="M11.8369 68.0691H12.6126L17.8785 39.8089L26.2429 42.9271L31.3986 68.0691H32.1506L35.9557 29.9468L44.8496 31.981L38.2786 73.5973L27.5027 74.8584L22.2584 49.0533L20.7761 50.5995L16.4848 74.8584L5.46467 73.5973L0 29.9468H8.45306L11.8369 68.0691Z" fill="url(#paint4_linear_1_476)"/>
<path d="M344.419 64.5493C345.77 64.3824 346.989 64.7231 348.077 65.5707C349.165 66.4186 349.794 67.5173 349.961 68.8681C350.072 69.7627 349.945 70.6134 349.581 71.4184C349.235 72.221 348.715 72.8972 348.023 73.4461C347.347 73.9744 346.551 74.2942 345.638 74.407C344.286 74.5739 343.067 74.2333 341.979 73.3856C340.891 72.5378 340.262 71.439 340.095 70.0882C339.928 68.7373 340.269 67.5174 341.117 66.4302C341.966 65.3429 343.067 64.7164 344.419 64.5493Z" fill="url(#paint5_linear_1_476)"/>
<path d="M140.217 33.6632L139.841 39.1675L115.48 67.0089L139.11 65.4368L140.217 74.1954L106.296 73.1114V67.6265L130.149 39.1675H106.208L106.296 30.3895L140.217 33.6632Z" fill="url(#paint6_linear_1_476)"/>
<path d="M181.793 33.6632L181.417 39.1675L157.056 67.0089L180.686 65.4368L181.793 74.1954L147.872 73.1114V67.6265L171.725 39.1675H147.784L147.872 30.3895L181.793 33.6632Z" fill="url(#paint7_linear_1_476)"/>
<path d="M323.424 54.1172C324.983 54.0122 326.36 54.4803 327.552 55.5208C328.744 56.5616 329.391 57.8623 329.496 59.4207C329.566 60.4523 329.368 61.4177 328.9 62.3165C328.453 63.214 327.814 63.9559 326.986 64.5407C326.177 65.1029 325.245 65.4198 324.192 65.4908C322.632 65.5959 321.257 65.1278 320.064 64.0872C318.872 63.0463 318.223 61.7457 318.118 60.1873C318.013 58.6291 318.481 57.2541 319.522 56.0628C320.564 54.8713 321.865 54.2223 323.424 54.1172Z" fill="url(#paint8_linear_1_476)"/>
<path d="M310.512 19.1324L305.17 59.4142L298.806 58.6584L303.05 18.2492L310.512 19.1324Z" fill="url(#paint9_linear_1_476)"/>
<path d="M346.811 57.8033L340.454 58.5893L334.918 18.3464L342.37 17.4243L346.811 57.8033Z" fill="url(#paint10_linear_1_476)"/>
<path d="M326.597 46.5419L319.263 47.0364L315.49 0.580883L324.088 0L326.597 46.5419Z" fill="url(#paint11_linear_1_476)"/>
<defs>
<linearGradient id="paint0_linear_1_476" x1="0" y1="45.5" x2="350" y2="45.5" gradientUnits="userSpaceOnUse">
<stop stop-color="white"/>
<stop offset="1" stop-color="white" stop-opacity="0"/>
</linearGradient>
<linearGradient id="paint1_linear_1_476" x1="0" y1="45.5" x2="350" y2="45.5" gradientUnits="userSpaceOnUse">
<stop stop-color="white"/>
<stop offset="1" stop-color="white" stop-opacity="0"/>
</linearGradient>
<linearGradient id="paint2_linear_1_476" x1="0" y1="45.5" x2="350" y2="45.5" gradientUnits="userSpaceOnUse">
<stop stop-color="white"/>
<stop offset="1" stop-color="white" stop-opacity="0"/>
</linearGradient>
<linearGradient id="paint3_linear_1_476" x1="0" y1="45.5" x2="350" y2="45.5" gradientUnits="userSpaceOnUse">
<stop stop-color="white"/>
<stop offset="1" stop-color="white" stop-opacity="0"/>
</linearGradient>
<linearGradient id="paint4_linear_1_476" x1="0" y1="45.5" x2="350" y2="45.5" gradientUnits="userSpaceOnUse">
<stop stop-color="white"/>
<stop offset="1" stop-color="white" stop-opacity="0"/>
</linearGradient>
<linearGradient id="paint5_linear_1_476" x1="0" y1="45.5" x2="350" y2="45.5" gradientUnits="userSpaceOnUse">
<stop stop-color="white"/>
<stop offset="1" stop-color="white" stop-opacity="0"/>
</linearGradient>
<linearGradient id="paint6_linear_1_476" x1="0" y1="45.5" x2="350" y2="45.5" gradientUnits="userSpaceOnUse">
<stop stop-color="white"/>
<stop offset="1" stop-color="white" stop-opacity="0"/>
</linearGradient>
<linearGradient id="paint7_linear_1_476" x1="0" y1="45.5" x2="350" y2="45.5" gradientUnits="userSpaceOnUse">
<stop stop-color="white"/>
<stop offset="1" stop-color="white" stop-opacity="0"/>
</linearGradient>
<linearGradient id="paint8_linear_1_476" x1="0" y1="45.5" x2="350" y2="45.5" gradientUnits="userSpaceOnUse">
<stop stop-color="white"/>
<stop offset="1" stop-color="white" stop-opacity="0"/>
</linearGradient>
<linearGradient id="paint9_linear_1_476" x1="0" y1="45.5" x2="350" y2="45.5" gradientUnits="userSpaceOnUse">
<stop stop-color="white"/>
<stop offset="1" stop-color="white" stop-opacity="0"/>
</linearGradient>
<linearGradient id="paint10_linear_1_476" x1="0" y1="45.5" x2="350" y2="45.5" gradientUnits="userSpaceOnUse">
<stop stop-color="white"/>
<stop offset="1" stop-color="white" stop-opacity="0"/>
</linearGradient>
<linearGradient id="paint11_linear_1_476" x1="0" y1="45.5" x2="350" y2="45.5" gradientUnits="userSpaceOnUse">
<stop stop-color="white"/>
<stop offset="1" stop-color="white" stop-opacity="0"/>
</linearGradient>
</defs>
</svg>
