<?xml version="1.0" encoding="UTF-8"?>
<svg id="Layer_2" data-name="Layer 2" xmlns="http://www.w3.org/2000/svg" xmlns:xlink="http://www.w3.org/1999/xlink" viewBox="0 0 194.05 216.14">
  <defs>
    <style>
      .cls-1 {
        fill: none;
      }

      .cls-1, .cls-2, .cls-3, .cls-4, .cls-5 {
        stroke-miterlimit: 10;
      }

      .cls-1, .cls-5 {
        stroke: #020202;
      }

      .cls-6 {
        fill: url(#linear-gradient);
      }

      .cls-6, .cls-7, .cls-8, .cls-9, .cls-10 {
        stroke-width: 0px;
      }

      .cls-2, .cls-4 {
        stroke: #060707;
      }

      .cls-2, .cls-10 {
        fill: #52f09b;
      }

      .cls-3 {
        fill: #ce6583;
        stroke: #000;
      }

      .cls-7 {
        fill: #060707;
      }

      .cls-4 {
        fill: #043343;
      }

      .cls-5 {
        fill: #4342e6;
      }

      .cls-8 {
        fill: #b8f9d7;
      }

      .cls-9 {
        fill: #4242e5;
      }
    </style>
    <linearGradient id="linear-gradient" x1="687.51" y1="678.07" x2="745.78" y2="577.15" gradientTransform="translate(-622 -438)" gradientUnits="userSpaceOnUse">
      <stop offset="0" stop-color="#4242e5"/>
      <stop offset=".01" stop-color="#3f41de"/>
      <stop offset=".1" stop-color="#2d3db0"/>
      <stop offset=".19" stop-color="#1e3a89"/>
      <stop offset=".28" stop-color="#12376a"/>
      <stop offset=".37" stop-color="#0a3555"/>
      <stop offset=".46" stop-color="#053448"/>
      <stop offset=".54" stop-color="#043444"/>
      <stop offset=".63" stop-color="#053645"/>
      <stop offset=".7" stop-color="#094049"/>
      <stop offset=".76" stop-color="#0f5050"/>
      <stop offset=".82" stop-color="#18665b"/>
      <stop offset=".87" stop-color="#248368"/>
      <stop offset=".92" stop-color="#33a678"/>
      <stop offset=".97" stop-color="#44cf8b"/>
      <stop offset="1" stop-color="#52f09a"/>
    </linearGradient>
  </defs>
  <g id="Layer_6" data-name="Layer 6">
    <g>
      <g>
        <g>
          <path class="cls-9" d="m194.05,190.12c0,4.73-.97,8.32-2.88,10.76-.6.76-1.29,1.41-2.07,1.93-1.88,1.26-4.28,1.6-6.43.9-.76-.25-1.43-.59-2.02-1.04-.16-.12-.3-.24-.44-.37-1.05-.96-1.65-2.23-1.81-3.8h-2.46s1.93-8.06,1.93-8.06c0,2.92.57,5.13,1.71,6.65.9,1.19,1.91,1.84,3.38,2.07.86.13,1.75-.08,2.44-.61.11-.08.21-.16.3-.24.35-.3.67-.64.95-1.03,1.18-1.62,1.77-4.01,1.78-7.18,0-3.35-.57-5.88-1.75-7.59-1.17-1.71-2.9-2.57-5.18-2.57-2.23,0-3.91.75-5.07,2.26-.49.64-.88,1.42-1.15,2.32l-3.06.53-.75-5.5h-.48s1.2,35.86,1.2,35.86l-7.06.73,1.87-40.86h6.94s.8,5.5.8,5.5h.25c.26-1.78,1.06-3.17,2.42-4.15,1.36-1,3.15-1.49,5.36-1.48,3.72,0,6.53,1.27,8.43,3.81,1.9,2.53,2.84,6.25,2.83,11.17Z"/>
          <polygon class="cls-9" points="94.12 198.87 94.86 204.79 71.91 204.05 71.91 200.35 88.06 181.12 71.85 181.12 71.91 175.19 94.86 177.41 94.61 181.12 78.13 199.94 94.12 198.87"/>
          <polygon class="cls-9" points="122.24 198.87 122.98 204.79 100.04 204.05 100.04 200.35 116.18 181.12 99.98 181.12 100.04 175.19 122.98 177.41 122.73 181.12 106.26 199.94 122.24 198.87"/>
          <path class="cls-9" d="m66.73,200.35v3.7l-8.14.74-.86-5.92h-1.08v.12c-.13,1.21-.5,2.26-1.1,3.12-.76,1.1-1.82,1.92-3.19,2.46-1.37.55-2.99.81-4.86.81-2.95,0-5.24-.71-6.86-2.13-1.62-1.43-2.43-3.43-2.43-6.04,0-2.78,3.19-5.31,5.12-6.89l-1.09-3.34c1.19.27,2.35.42,3.49.47,1.14.04,2.31.07,3.5.07,4.91,0,7.37-1.5,7.37-4.49,0-1.25-.43-2.21-1.27-2.89-.84-.67-2.04-1.01-3.59-1.01-1.76,0-3.23.3-4.42.91-1.18.6-2.07,1.38-2.66,2.32-.58.94-.88,1.91-.88,2.91l-2.22-.47-3.7,5.92v-10.36l-4.44-.74v-3.7l8.14-.74.86,5.92h1.08v-.12c.13-1.21.5-2.26,1.1-3.12.76-1.1,1.82-1.92,3.19-2.46,1.37-.55,2.99-.81,4.86-.81,2.95,0,5.24.71,6.86,2.13,1.62,1.43,2.43,3.43,2.43,6.04,0,2.78-2.61,5.24-4.55,6.82l.52,3.41c-1.19-.27-2.35-.42-3.49-.47-1.14-.04-2.31-.07-3.5-.07-4.91,0-7.37,1.5-7.37,4.49,0,1.25.43,2.21,1.27,2.89.84.67,2.04,1.01,3.59,1.01,1.76,0,3.23-.3,4.42-.91,1.18-.6,2.07-1.38,2.66-2.32.58-.94.88-1.91.88-2.91l2.22.47,3.7-5.92v10.36l4.44.74Z"/>
          <path class="cls-9" d="m161.76,200.69v3.7l-8.14.74-.86-5.92h-1.08v.12c-.13,1.21-.5,2.26-1.1,3.12-.76,1.1-1.82,1.92-3.19,2.46-1.37.55-2.99.81-4.86.81-2.95,0-5.24-.71-6.86-2.13-1.62-1.43-2.43-3.43-2.43-6.04,0-2.78,3.19-5.31,5.12-6.89l-1.09-3.34c1.19.27,2.35.42,3.49.47,1.14.04,2.31.07,3.5.07,4.91,0,7.37-1.5,7.37-4.49,0-1.25-.43-2.21-1.27-2.89-.84-.67-2.04-1.01-3.59-1.01-1.76,0-3.23.3-4.42.91-1.18.6-2.07,1.38-2.66,2.32-.58.94-.88,1.91-.88,2.91l-2.22-.47-3.7,5.92v-10.36l-4.44-.74v-3.7l8.14-.74.86,5.92h1.08v-.12c.13-1.21.5-2.26,1.1-3.12.76-1.1,1.82-1.92,3.19-2.46,1.37-.55,2.99-.81,4.86-.81,2.95,0,5.24.71,6.86,2.13,1.62,1.43,2.43,3.43,2.43,6.04,0,2.78-2.61,5.24-4.55,6.82l.52,3.41c-1.19-.27-2.35-.42-3.49-.47-1.14-.04-2.31-.07-3.5-.07-4.91,0-7.37,1.5-7.37,4.49,0,1.25.43,2.21,1.27,2.89.84.67,2.04,1.01,3.59,1.01,1.76,0,3.23-.3,4.42-.91,1.18-.6,2.07-1.38,2.66-2.32.58-.94.88-1.91.88-2.91l2.22.47,3.7-5.92v10.36l4.44.74Z"/>
          <polygon class="cls-9" points="30.35 176.26 25.91 204.39 18.61 205.24 15.06 187.79 14.06 188.84 11.16 205.24 3.7 204.39 0 174.89 5.73 174.89 8.02 200.66 8.53 200.66 12.11 181.55 17.76 183.66 21.24 200.66 21.76 200.66 24.34 174.89 30.35 176.26"/>
        </g>
        <g>
          <path class="cls-6" d="m194.05,190.12c0,4.73-.97,8.32-2.88,10.76-.6.76-1.29,1.41-2.07,1.93-1.88,1.26-4.28,1.6-6.43.9-.76-.25-1.43-.59-2.02-1.04-.16-.12-.3-.24-.44-.37-1.05-.96-1.65-2.23-1.81-3.8h-2.46s1.93-8.06,1.93-8.06c0,2.92.57,5.13,1.71,6.65.9,1.19,1.91,1.84,3.38,2.07.86.13,1.75-.08,2.44-.61.11-.08.21-.16.3-.24.35-.3.67-.64.95-1.03,1.18-1.62,1.77-4.01,1.78-7.18,0-3.35-.57-5.88-1.75-7.59-1.17-1.71-2.9-2.57-5.18-2.57-2.23,0-3.91.75-5.07,2.26-.49.64-.88,1.42-1.15,2.32l-3.06.53-.75-5.5h-.48s1.2,35.86,1.2,35.86l-7.06.73,1.87-40.86h6.94s.8,5.5.8,5.5h.25c.26-1.78,1.06-3.17,2.42-4.15,1.36-1,3.15-1.49,5.36-1.48,3.72,0,6.53,1.27,8.43,3.81,1.9,2.53,2.84,6.25,2.83,11.17Z"/>
          <polygon class="cls-6" points="94.12 198.87 94.86 204.79 71.91 204.05 71.91 200.35 88.06 181.12 71.85 181.12 71.91 175.19 94.86 177.41 94.61 181.12 78.13 199.94 94.12 198.87"/>
          <polygon class="cls-6" points="122.24 198.87 122.98 204.79 100.04 204.05 100.04 200.35 116.18 181.12 99.98 181.12 100.04 175.19 122.98 177.41 122.73 181.12 106.26 199.94 122.24 198.87"/>
          <path class="cls-6" d="m66.73,200.35v3.7l-8.14.74-.86-5.92h-1.08v.12c-.13,1.21-.5,2.26-1.1,3.12-.76,1.1-1.82,1.92-3.19,2.46-1.37.55-2.99.81-4.86.81-2.95,0-5.24-.71-6.86-2.13-1.62-1.43-2.43-3.43-2.43-6.04,0-2.78,3.19-5.31,5.12-6.89l-1.09-3.34c1.19.27,2.35.42,3.49.47,1.14.04,2.31.07,3.5.07,4.91,0,7.37-1.5,7.37-4.49,0-1.25-.43-2.21-1.27-2.89-.84-.67-2.04-1.01-3.59-1.01-1.76,0-3.23.3-4.42.91-1.18.6-2.07,1.38-2.66,2.32-.58.94-.88,1.91-.88,2.91l-2.22-.47-3.7,5.92v-10.36l-4.44-.74v-3.7l8.14-.74.86,5.92h1.08v-.12c.13-1.21.5-2.26,1.1-3.12.76-1.1,1.82-1.92,3.19-2.46,1.37-.55,2.99-.81,4.86-.81,2.95,0,5.24.71,6.86,2.13,1.62,1.43,2.43,3.43,2.43,6.04,0,2.78-2.61,5.24-4.55,6.82l.52,3.41c-1.19-.27-2.35-.42-3.49-.47-1.14-.04-2.31-.07-3.5-.07-4.91,0-7.37,1.5-7.37,4.49,0,1.25.43,2.21,1.27,2.89.84.67,2.04,1.01,3.59,1.01,1.76,0,3.23-.3,4.42-.91,1.18-.6,2.07-1.38,2.66-2.32.58-.94.88-1.91.88-2.91l2.22.47,3.7-5.92v10.36l4.44.74Z"/>
          <path class="cls-6" d="m161.76,200.69v3.7l-8.14.74-.86-5.92h-1.08v.12c-.13,1.21-.5,2.26-1.1,3.12-.76,1.1-1.82,1.92-3.19,2.46-1.37.55-2.99.81-4.86.81-2.95,0-5.24-.71-6.86-2.13-1.62-1.43-2.43-3.43-2.43-6.04,0-2.78,3.19-5.31,5.12-6.89l-1.09-3.34c1.19.27,2.35.42,3.49.47,1.14.04,2.31.07,3.5.07,4.91,0,7.37-1.5,7.37-4.49,0-1.25-.43-2.21-1.27-2.89-.84-.67-2.04-1.01-3.59-1.01-1.76,0-3.23.3-4.42.91-1.18.6-2.07-1.38,2.66-2.32-.58.94-.88,1.91-.88-2.91l-2.22-.47-3.7,5.92v-10.36l-4.44-.74v-3.7l8.14-.74.86,5.92h1.08v-.12c.13-1.21.5-2.26,1.1-3.12.76-1.1,1.82-1.92,3.19-2.46,1.37-.55,2.99-.81,4.86-.81,2.95,0,5.24.71,6.86,2.13,1.62,1.43,2.43,3.43,2.43,6.04,0,2.78-2.61,5.24-4.55,6.82l.52,3.41c-1.19-.27-2.35-.42-3.49-.47-1.14-.04-2.31-.07-3.5-.07-4.91,0-7.37,1.5-7.37,4.49,0,1.25.43,2.21,1.27,2.89.84.67,2.04,1.01,3.59,1.01,1.76,0,3.23-.3,4.42-.91,1.18-.6,2.07-1.38,2.66-2.32.58-.94.88-1.91.88-2.91l2.22.47,3.7-5.92v10.36l4.44.74Z"/>
          <polygon class="cls-6" points="30.35 176.26 25.91 204.39 18.61 205.24 15.06 187.79 14.06 188.84 11.16 205.24 3.7 204.39 0 174.89 5.73 174.89 8.02 200.66 8.53 200.66 12.11 181.55 17.76 183.66 21.24 200.66 21.76 200.66 24.34 174.89 30.35 176.26"/>
        </g>
      </g>
      <g>
        <path class="cls-2" d="m117.79,73.73c0,10.59,4.64,19.42,10.81,21.45-7.52,11.67-19.98,19.37-35.21,19.37s-27.26-7.46-34.38-18.94c7.38-.14,13.34-9.87,13.34-21.88s-6.04-21.88-13.5-21.88c-1.58,0-3.1.44-4.51,1.26C61.58,29.19,81.79,1.59,90.63.52c7.66-.91,33.09,27.28,42.37,51.51-.56-.11-1.13-.18-1.7-.18-7.46,0-13.51,9.8-13.51,21.88Z"/>
        <path class="cls-5" d="m72.36,73.73c0,12.01-5.96,21.74-13.34,21.88h-.15c-7.46,0-13.51-9.8-13.51-21.88,0-9.52,3.75-17.61,9-20.63,1.41-.81,2.94-1.26,4.51-1.26,7.46,0,13.5,9.8,13.5,21.88Z"/>
        <path class="cls-5" d="m144.79,73.73c0,12.09-6.04,21.88-13.5,21.88-.93,0-1.82-.15-2.69-.43-6.18-2.03-10.81-10.87-10.81-21.45,0-12.09,6.05-21.88,13.51-21.88.57,0,1.14.06,1.7.18,6.66,1.35,11.79,10.55,11.79,21.71Z"/>
        <path class="cls-4" d="m77.43,92.23c-3.92,0-6.72,3.08-5.43,6.04,3.13,7.15,11.3,7.49,21.32,7.49s18.89-.34,22.02-7.49c1.29-2.95-1.51-6.04-5.43-6.04h-32.48Z"/>
        <path class="cls-1" d="m45.41,71.58c1.3-8.51,7.76-14.32,14.1-12.58,5.07,1.4,8.33,8.05,7.29,14.86-.83,5.45-4.79,8.95-8.85,7.83-3.24-.9-5.33-5.15-4.66-9.51.53-3.49,3.07-5.73,5.66-5.01,2.07.57,3.41,3.3,2.99,6.09-.34,2.23-1.96,3.67-3.62,3.21-1.33-.37-2.18-2.11-1.91-3.9.22-1.43,1.26-2.35,2.32-2.05"/>
        <path class="cls-1" d="m144.7,71.31c-1.3-8.51-7.76-14.32-14.1-12.58-5.07,1.4-8.33,8.05-7.29,14.86.83,5.45,4.79,8.95,8.85,7.83,3.24-.9,5.33-5.15,4.66-9.51-.53-3.49-3.07-5.73-5.66-5.01-2.07.57-3.41,3.3-2.99,6.09.34,2.23,1.96,3.67,3.62,3.21,1.33-.37-2.18-2.11,1.91-3.9-.22-1.43-1.26-2.35,2.32-2.05"/>
        <path class="cls-3" d="m81.07,104.77c-.71-.15-.99-1.03-.5-1.57,3.24-3.53,14.28-13.21,28.45-.38,13.52,12.25,6.13,23.76,2.59,27.91-1.46,1.71-3.5,2.87-5.75,3-1.32.08-3.62-.15-4.77-1.56-2.97-3.64,2.11-9.68,2.2-17.13.06-5.32-4.41-9.59-9.73-9.56-3.89.02-9.39-.08-12.49-.72Z"/>
        <path class="cls-1" d="m88.34,97.66s11.48-2.27,19.33,8.65c4.06,5.65,4.02,13.31-.06,18.95-.3.41-.61.83-.95,1.26"/>
        <g>
          <path class="cls-10" d="m91.4,15.14s9.43,24.58,5.48,36.71"/>
          <path class="cls-7" d="m91.86,14.96c3.56,10.69,8.16,25.84,5.05,36.9,0,0-.06-.02-.06-.02,2.81-11.12-2.12-25.94-5.92-36.52,0,0,.93-.36.93-.36h0Z"/>
        </g>
        <circle class="cls-8" cx="71.52" cy="34.42" r="2.41"/>
        <circle class="cls-8" cx="66.69" cy="41.61" r="2.41"/>
        <circle class="cls-8" cx="74.49" cy="42.7" r="2.41"/>
      </g>
    </g>
  </g>
</svg>
