<svg width="50" height="50" viewBox="0 0 50 50" fill="none" xmlns="http://www.w3.org/2000/svg">
<path d="M33.9883 9.65625L11.4785 12.5576L13.0381 37.5791H37.3496L37.2754 45L8.72266 42.2324L8.75098 41.8105L8.67188 41.8076L5.00098 6.02539L5.05664 6.02637L5.04297 5.90625L33.7139 5L33.9883 9.65625Z" fill="url(#paint0_linear_2153_1078)"/>
<path d="M43.201 13.5586L36.9258 22.6787L45.3994 28.5967L43.2686 31.7129L34.1367 26.4404L28.1406 34.5254L23.9385 31.7676L28.7949 23.3564L21.001 18.8564L24.0596 13.6943L31.4102 18.8271L36.7949 9.5L43.201 13.5586Z" fill="url(#paint1_linear_2153_1078)"/>
<defs>
<linearGradient id="paint0_linear_2153_1078" x1="20.9711" y1="5" x2="20.9711" y2="45" gradientUnits="userSpaceOnUse">
<stop stop-color="#FB6262"/>
<stop offset="1" stop-color="#FB6262" stop-opacity="0.2"/>
</linearGradient>
<linearGradient id="paint1_linear_2153_1078" x1="20.9711" y1="5" x2="20.9711" y2="45" gradientUnits="userSpaceOnUse">
<stop stop-color="#FB6262"/>
<stop offset="1" stop-color="#FB6262" stop-opacity="0.2"/>
</linearGradient>
</defs>
</svg>
