<svg width="536" height="322" viewBox="0 0 536 322" fill="none" xmlns="http://www.w3.org/2000/svg">
<path d="M38.4237 16.545C36.6017 18.1816 35.1002 20.6652 34.8242 23.4938C34.4903 27.6058 34.1094 31.6338 33.7367 35.1918C33.4573 37.8714 32.9802 36.4789 32.7623 38.3272C32.3369 41.9422 32.4144 45.3374 31.9501 48.9072C31.7936 50.0901 30.9987 48.5605 30.8547 49.8021C30.0718 56.6058 29.9232 63.0766 29.337 69.9809C26.4481 103.989 24.1853 137.451 21.7944 171.906C21.0068 183.267 19.4104 197.04 19.0821 208.803C19.0445 210.176 19.8642 209.403 19.9129 209.668C20.6516 213.814 19.1704 212.364 18.8091 215.023C17.3791 225.576 16.6276 237.36 16.337 247.578C16.2156 251.926 18.0013 247.663 16.8878 251.983C16.8121 252.283 16.0552 251.135 15.899 252.32C15.5464 255.008 15.3975 260.137 15.2118 262.225C15.1429 262.991 15.086 263.635 15.0375 264.202C14.9135 266.084 14.9255 266.912 15.498 269.243C16.4467 273.142 19.4665 277.617 23.638 279.342C24.5022 279.691 23.7538 278.449 25.1118 278.864C26.0471 279.152 28.0366 279.697 29.6609 279.838C30.6292 279.928 31.4688 280.026 31.9896 280.117C33.6783 280.414 32.9162 281.033 33.2084 281.202C35.6096 282.623 41.5435 281.189 42.2961 281.188C56.0198 281.231 67.6933 282.918 80.5352 283.656C90.2843 284.214 100.728 284.483 110.001 285.064C121.049 285.759 130.389 286.756 141.13 287.297C142.264 287.355 140.993 286.289 142.377 286.358C157.087 287.092 171.681 288.042 186.282 289.555C187.746 289.707 185.804 290.466 187.263 290.671C196.203 291.902 210.313 294.437 215.865 290.964C221.94 291.463 229.316 292.042 234.714 293.118C238.195 293.811 234.732 294.56 239.066 294.405C240.043 294.371 238.827 293.47 240.289 293.482C246.444 293.533 253.135 294.189 259.231 294.112C260.472 294.094 260.177 293.332 260.535 293.219C263.539 292.306 268.331 294.378 269.391 294.57C277.463 296.008 283.42 295.969 290.99 296.43C292.747 296.537 290.728 295.421 292.42 295.488C301.197 295.851 310.275 296.461 318.836 297.399C320.74 297.61 318.934 298.358 319.842 298.502C323.843 299.128 324.828 297.576 328.667 298.145C329.477 298.263 328.976 298.963 329.12 299.052C331.371 300.439 333.492 298.78 334.091 298.775C341.68 298.676 346.404 300.808 353.72 300.967C354.595 300.984 352.679 299.951 355.136 300.055C371.508 300.745 388.793 301.996 404.941 303.667C407.452 303.925 405.615 304.512 405.769 304.607C408.274 306.087 410.047 304.4 410.872 304.38C417.375 304.27 423.338 306.115 427.86 304.245C449.832 306.106 471.794 306.72 493.61 308.685C498.143 309.139 502.875 307.76 506.609 304.78C506.85 304.583 507.041 305.616 507.532 305.202C510.442 302.604 510.865 300.865 510.971 299.617C511.013 298.325 510.707 297.217 510.334 294.885C510.253 294.413 510.597 293.667 510.984 292.825C511.577 291.311 512.426 289.758 512.527 289.54C513.15 288.213 514.375 289.697 514.507 289.248C515.552 285.534 511.196 285.897 511.487 280.822C511.504 280.663 512.26 281.376 512.364 280.955C512.689 279.646 512.448 278.315 512.797 277.036C513.602 274.108 515.762 273.174 514.801 268.576C514.676 267.994 512.174 268.727 512.552 264.202C512.704 262.398 513.124 254.399 513.412 252.167C513.7 249.938 514.401 251.52 514.444 251.363C515.837 245.392 516.138 247.704 517.858 244.771C519.573 241.839 515.851 242.464 515.512 241.209C515.174 239.951 516.291 235.579 516.653 234.51C517.016 233.441 517.439 234.824 517.665 233.869C519.142 227.529 516.003 230.952 515.542 228.809C514.448 223.754 517.397 220.037 517.926 215.498C518.07 214.27 517.391 215.24 517.396 214.139C517.425 209.781 518.427 207.216 517.932 202.227C517.852 201.41 516.444 197.319 517.796 194.801C517.991 194.445 518.609 195.525 518.868 193.682C519.256 190.928 519.693 185.951 519.637 182.964C519.596 180.758 518.332 183.211 518.839 180.467C519.065 179.247 519.588 181.562 519.958 179.268C520.328 176.986 520.638 171.115 520.744 168.88C520.85 166.649 519.931 167.821 519.884 167.637C519.619 166.528 519.457 162.226 519.48 161.848C520.477 142.771 522.922 125.267 523.52 106.672C523.569 105.213 522.618 106.132 522.616 105.908C522.529 100.898 524.681 104.969 525.679 101.53C523.834 101.929 524.281 99.8906 524.285 96.3652C524.285 94.6663 523.529 95.5479 523.465 95.3892C522.542 92.8165 524.023 91.1476 524.331 90.7135C525.465 89.1105 524.343 87.2298 525.102 86.1381C525.856 85.0469 526.727 87.7088 526.909 84.338C526.313 83.3555 524.47 85.7594 524.342 83.1848C523.93 74.9216 525.586 60.7035 526.45 51.8679C526.594 50.4682 526.55 49.2028 526.417 48.1606C525.127 41.2112 522.896 39.5041 520.096 36.5859C517.243 34.1026 515.848 34.0296 515.01 34.003C514.126 34.0469 513.553 34.2412 511.389 34.1214C510.494 34.0902 509.894 34.01 509.472 33.8436C507.579 33.193 509.134 31.2119 508.585 30.6491C507.908 29.9413 507.085 30.5822 506.215 30.1644C505.348 29.7469 507.298 29.4045 505.216 29.1464C503.133 28.8884 497.349 29.7441 496.568 30.3985C494.917 31.7851 497.403 33.4838 491.902 32.6199C491.586 32.5692 492.666 31.8133 491.452 31.6606C481.813 30.4743 471.764 29.8553 462.132 28.7423C460.808 28.588 462.049 27.7493 461.278 27.6492C453.257 26.604 456.048 28.3 451.536 29.7445C452.657 27.5403 450.296 26.0158 444.184 25.6496C440.51 25.4287 441.085 26.4529 438.668 27.0119C437.943 27.1806 435.382 26.3523 434.884 26.7896C433.243 28.2183 435.594 30.0594 429.33 29.0189C429.056 28.9707 429.984 28.1904 429.032 28.0849C422.875 27.399 422.044 28.9446 415.357 28.7516C410.115 28.6005 400.865 27.0949 394.915 26.5935C395.187 24.0582 389.526 24.3156 387.142 25.9369C383.279 25.6419 379.097 25.5 375.373 25.042C374.092 24.8851 374.979 24.1978 374.822 24.1089C372.406 22.7176 370.627 24.3261 369.788 24.3448C360.705 24.4726 353.409 22.7546 344.703 23.5196C344.394 23.5474 343.796 25.2849 341.562 23.8622C341.418 23.7647 344.316 23.1257 340.258 22.8292C336.2 22.5324 328.598 21.1437 322.911 21.6367C321.535 21.755 318.001 22.9895 315.295 21.7094C314.935 21.536 315.368 21.0528 314.852 20.7402C313.181 19.7426 312.138 21.4735 310.202 19.8401C308.265 18.2068 304.12 16.8281 298.373 17.5462C298.19 17.5661 296.762 18.9033 294.975 18.7777C292.122 18.576 288.086 18.0474 285.105 17.8845C283.677 17.8071 284.54 18.7384 284.291 18.7401C274.666 18.6786 267.881 17.5011 257.62 16.5679C255.739 16.395 250.254 17.2805 246.66 16.1228C242.714 14.8547 247.08 10.7791 237.812 11.2752C234.074 11.4718 229.056 16.6726 222.545 13.4523C209.56 13.4077 197.673 11.2658 184.634 11.5197C184.048 11.5304 182.114 12.9511 180.743 12.8511C178.707 12.6997 177.63 11.9214 176.178 11.7904C170.095 11.2236 164.481 11.5124 158.61 11.0782C156.38 10.9149 157.203 10.2218 154.544 10.027C151.887 9.83292 150.057 10.7025 146.48 10.025C143.779 9.51016 141.172 7.36657 137.572 6.92649C137.321 8.87801 134.842 8.69443 130.401 8.95713C129.548 9.00856 130.417 9.74303 130.012 9.80253C128.359 10.0598 126.881 9.40743 125.309 9.70062C124.927 9.77075 124.871 10.4389 124.556 10.534C121.878 11.3682 117.647 9.6138 116.921 9.30892C114.136 8.14955 112.758 8.94323 110.601 8.42546C108.447 7.90794 111.729 7.60583 109.201 7.22128C103.959 6.42522 97.1819 6.1425 91.8316 5.80285C89.6966 5.67146 91.1019 6.64879 90.7952 6.65073C86.3663 6.62242 81.9557 5.41455 79.4045 7.05251C76.6084 2.27526 76.7159 7.34505 70.4571 6.0598C69.9642 5.95662 69.4573 3.74454 71.3846 3.53532C73.3117 3.32639 76.1671 4.1735 78.8441 3.82847C79.4781 3.74783 83.1884 1.91654 83.6856 1.82133C87.581 1.07781 87.9375 4.3603 88.1304 4.55059C90.3228 6.61056 94.8399 4.6677 96.0046 4.58266C101.334 4.19255 105.801 4.9091 110.253 4.66807C113.165 4.51426 113.571 2.40101 115.839 2.59732C123.379 3.24865 125.843 6.37158 133.109 4.20646C134.667 3.74515 133.284 1.33006 138.647 3.47587C138.984 3.61108 142.947 5.5197 145.353 4.59602C145.655 4.47949 145.685 3.80061 146.077 3.76605C148.702 3.54772 150.407 4.18834 153.258 4.09322C156.109 3.99807 159.542 3.80905 162.767 4.22602C164.71 4.47622 167.141 5.88457 168.058 6.2479C170.644 7.29149 173.556 5.99328 175.128 7.16697C176.714 8.34689 173.397 9.8084 177.678 10.7587C177.939 9.00558 178.412 7.21792 178.771 5.4604C188.237 6.06901 197.522 7.17665 207.028 7.64717C208.207 7.70375 207.057 6.68676 208.322 6.72298C213.658 6.87996 218.273 7.82395 223.814 7.87387C228.103 7.90888 232.851 7.1764 237.337 7.18177C239.952 9.35607 246.628 9.05448 251.438 9.51699C253.123 9.67814 252.979 10.2102 254.17 10.4553C258.663 11.3666 256.643 9.46198 257.901 9.25321C263.299 8.36384 263.523 12.4238 269.811 12.6868C270.144 12.7021 274.337 10.7868 274.905 10.6852C278.516 10.0176 275.451 11.4676 277.671 11.7551C281.723 12.2802 284.52 12.9569 289.33 12.6026C290.733 12.4964 294.149 11.349 296.792 12.5416C297.14 12.6979 296.903 13.3972 297.186 13.4553C302.327 14.4481 302.592 12.2229 305.597 11.6375C308.601 11.0522 313.086 12.8577 313.991 13.3557C316.359 14.6456 312.097 13.7392 311.958 13.8444C310.332 15.0973 313.681 15.0587 316.223 15.3192C316.465 17.5301 320.037 17.6043 318.858 15.5804C318.724 15.359 316.729 15.4488 316.223 15.3192C318.584 13.3 322.517 13.251 326.727 15.5082C328.698 16.566 326.72 17.5525 332.895 17.5062C335.697 17.4862 334.705 15.9163 337.193 15.6475C342.876 15.0345 350.109 16.863 355.925 16.9764C358.036 17.0175 356.032 16.0738 357.476 16.0735C361.309 16.07 364.642 16.8836 368.497 16.7878C368.846 16.7781 368.046 15.8652 369.24 15.923C378.29 16.3447 386.133 17.3525 395.575 17.9128C400.137 18.1832 408.321 18.1775 413.042 18.5461C421.224 19.1798 431.229 21.0176 438.245 21.1163C442.82 21.1844 441.868 20.2625 443.858 19.7867C447.698 18.8633 454.26 21.2929 455.141 21.6614C455.168 21.6734 451.229 21.6505 453.299 22.215C454.464 23.2095 455.096 21.6628 455.141 21.6614C455.72 21.8999 463.554 22.5489 465.121 22.4736C465.973 22.4322 465.547 21.5862 465.99 21.5801C476.523 21.453 487.044 21.8514 497.662 22.8483C497.849 22.8757 497.514 23.7751 497.953 23.828C502.781 24.428 506.292 24.0034 510.062 23.614C511.447 23.5298 512.879 23.5502 514.38 23.7291C521.508 24.5799 526.448 28.7335 527.959 32.704C531.806 36.2301 534.125 43.5782 533.978 47.6592C533.994 50.7642 534.775 51.8218 535.262 52.3765C535.405 52.5018 535.505 52.5822 535.51 52.648C536.137 61.3968 534.827 66.3576 534.148 75.3574C533.822 79.6359 533.59 88.1468 533.518 92.7954C533.463 96.4695 532.918 98.6534 532.99 102.046C533 102.505 533.82 102.089 533.842 102.23C534.574 106.054 532.739 104.131 532.347 104.889C530.924 107.637 530.153 109.342 530.467 114.202C530.538 115.323 533.145 118.728 533.191 120.766C533.246 123.417 532.302 122.363 532.385 125.14C532.392 125.377 533.012 125.364 532.886 127.067C532.311 134.975 531.454 143.583 531.041 151.812C530.982 152.936 532.045 151.552 531.977 153.176C531.653 160.8 531.135 169.146 530.248 176.541C530.027 178.36 529.407 177.176 529.18 177.56C527.807 179.923 529.399 183.479 529.4 184.05C529.476 197.686 527.256 207.991 527.228 221.883C527.23 222.64 528.815 228.553 527.019 231.046C526.899 231.217 525.067 233.681 526.088 236.012C526.152 236.157 527.111 234.611 526.862 237.391C526.613 240.171 526.933 244.687 525.76 248.46C525.39 249.655 523.544 252.422 524.675 256.115C524.755 256.356 527.461 262.112 525.257 263.983C524.894 264.286 522.702 263.821 523.587 268.201C523.759 269.038 524.339 267.57 524.521 269.76C524.804 273.115 523.957 277.49 524.706 281.638C524.839 282.361 526.165 285.485 524.885 287.855C524.685 288.226 523.988 287.459 523.832 288.74C523.637 290.321 523.501 291.925 523.392 293.542C523.019 300.154 520.251 306.961 515.412 311.487C513.059 313.572 513.408 311.652 510.808 313.349C508.211 315.116 502.515 317.331 499.397 318.278C496.232 319.258 500.166 320.862 494.915 321.313C494.232 321.34 493.562 321.342 492.88 321.319C477.685 320.986 462.713 319.063 447.572 318.03C445.258 317.872 447.138 318.663 443.726 318.479C431.143 317.804 409.388 317.189 398.556 315.112C389.877 313.449 400.934 313.202 394.278 312.345C391.066 311.934 387.449 313.944 386.666 313.969C379.02 314.237 373.791 312.952 366.929 312.858C365.511 312.839 366.846 313.815 365.64 313.789C361.522 313.707 357.226 313.058 353.295 312.904C351.532 312.838 351.817 313.541 350.199 313.395C346.327 313.052 342.914 312.566 339.17 311.707C338.829 311.628 341.202 310.911 338.334 310.713C333.692 310.396 327.964 309.431 322.583 309.776C320.986 309.881 320.833 311.442 317.488 310.165C316.786 309.898 317.806 308.072 313.743 309.466C313.06 309.697 306.264 311.502 303.073 309.902C302.231 309.481 300.116 307.816 298.196 307.947C297.935 307.971 298.922 308.871 297.338 308.862C291.754 308.815 285.924 308.389 280.188 308.322C278.657 308.306 280.882 309.307 278.6 309.255C272.327 309.113 264.523 308.441 258.417 307.815C256.166 307.583 257.768 306.952 257.608 306.864C255.041 305.437 253.38 307.068 252.497 307.118C247.011 307.404 242.906 306.356 237.869 306.28C236.479 306.257 237.415 307.134 237.135 307.191C234.23 307.741 236.448 306.39 234.645 306.123C229.595 305.37 223.932 305.11 218.792 304.918C216.904 304.849 218.969 305.923 217.275 305.85C207.249 305.436 196.841 304.744 187.096 303.655C185.261 303.448 186.461 302.782 186.088 302.593C183.511 301.269 179.544 302.643 178.644 302.744C174.549 303.204 173.012 302.465 169.425 302.38C151.9 301.972 130.33 300.297 113.836 299.079C92.342 297.496 75.6884 295.835 55.1626 294.832C53.858 294.768 55.1165 295.818 53.9914 295.775C45.55 295.425 37.1967 294.871 28.8228 294.359C19.9757 293.889 11.4283 289.113 6.29035 281.782C5.29736 280.318 5.91382 283.009 4.31808 280.577C1.3338 276 -0.398764 269.024 0.269996 263.35C0.313264 262.987 0.358029 262.63 0.404243 262.282C0.65823 260.352 1.30125 262.997 1.5407 261.054C2.10006 256.531 2.44678 251.667 2.5678 246.995C2.61729 245.007 1.49931 247.947 1.63729 245.366C2.55773 227.788 3.39101 210.52 5.63984 192.833C5.79416 191.62 7.77674 190.663 7.55776 188.053C7.0359 187.828 6.40818 187.802 5.84328 187.684C7.01276 162.085 9.14004 136.803 10.7236 111.156C10.7901 110.074 9.66443 111.885 9.78809 109.791C10.5026 97.6721 10.8999 85.8868 12.627 73.5482C12.797 72.3238 14.5511 73.0583 14.4895 69.4178C14.477 68.7757 14.5533 63.3025 14.2461 61.8685C14.1985 61.6734 13.3052 62.6212 13.3824 60.8606C13.8455 50.63 14.6546 39.9276 15.7543 29.7516C15.9334 28.1093 16.7222 29.9147 16.8574 28.7455C17.0926 26.6983 17.2603 24.6025 17.3986 22.4881C17.7932 13.747 23.0855 5.09592 30.2935 1.45647C36.7654 -1.4309 35.1636 1.32004 38.7399 1.71245C39.225 1.72303 42.9881 1.22084 43.2078 2.16838C43.7144 4.35735 42.4435 6.88383 43.2139 9.19812C43.3605 9.62353 46.5518 9.17721 44.642 10.3448C44.497 10.3847 42.3532 10.9325 41.9685 11.485C41.6955 11.8354 42.4367 12.596 41.8929 13.0914C41.3933 13.5883 40.4823 13.063 39.6914 13.9053C38.9775 14.7766 39.7886 15.3926 38.4237 16.545ZM531.631 62.8219C530.606 65.7023 533.716 66.3156 533.149 63.1034C533.118 62.9477 531.682 62.6731 531.631 62.8219ZM197.333 9.53849C201.083 11.1424 203.822 9.26033 201.181 8.03637C198.541 6.81358 196.19 9.05194 197.333 9.53849ZM157.556 8.25575C161.969 9.60445 162.931 5.19917 158.084 5.82122C157.802 5.85592 157.298 8.17733 157.556 8.25575ZM26.6272 10.0989C26.6608 10.0627 28.4668 8.09178 28.5104 8.04374C28.8022 6.23182 25.0008 10.3324 26.6272 10.0989ZM118.078 7.08016C119.441 7.76223 123.505 7.30019 121.812 6.45213C120.449 5.76982 116.381 6.23159 118.078 7.08016ZM519.464 215.463C519.415 215.507 519.274 217.203 519.541 217.184C520.398 217.118 520.294 214.74 519.464 215.463ZM51.0868 3.26511C60.9744 4.00368 66.7632 8.02258 56.0091 6.98612C54.0617 6.79849 60.2833 6.05774 57.8182 5.58326C53.3073 4.7177 50.156 6.84942 45.5885 5.34605C44.7619 5.07142 50.5232 3.21482 51.1046 3.26101C51.0987 3.26237 51.0928 3.26375 51.0868 3.26511ZM527.768 64.2917C527.723 64.3479 527.548 66.6969 527.586 66.7557C528.508 68.0864 528.861 63.3542 527.768 64.2917ZM502.38 308.656C502.282 308.785 497.458 310.153 497.271 310.093C496.046 311.053 498.055 311.372 500.084 310.807C502.118 310.266 503.784 308.91 502.38 308.656ZM394.825 26.5203C392.202 27.3735 389.126 27.3143 387.153 25.9388C389.699 26.1527 392.265 26.3107 394.825 26.5203Z" fill="#E7FB62"/>
</svg>
