<svg width="700" height="22" viewBox="0 0 700 22" fill="none" xmlns="http://www.w3.org/2000/svg">
<path d="M693.332 21.3678C689.41 21.6414 684.268 21.3489 680.36 20.9474C679.135 20.8229 679.756 20.2663 678.91 20.1553C677.257 19.9389 675.716 20.2119 674.082 19.9541C673.541 19.8659 674.215 18.9843 673.647 18.912C670.536 18.5224 667.592 18.747 664.44 18.5595C648.914 17.6349 633.653 17.304 617.937 16.9023C612.755 16.7706 606.456 15.9705 601.103 16.3204C600.478 16.362 600.851 17.1358 600.732 17.1996C598.867 18.176 599.487 16.6138 598.27 16.4062C593.438 15.5867 588.065 15.5154 583.415 15.8141C581.437 15.9434 583.42 17.4805 581.428 16.6177C581.29 16.5594 581.792 15.7377 581.25 15.65C580.019 15.4529 577.685 15.5998 576.731 15.5347C574.894 15.405 574.59 15.4133 572.852 15.4039C570.475 15.384 567.649 14.9755 565.1 15.1617C564.555 15.2039 565.276 16.0463 564.408 16.1896C563.539 16.3327 561.241 16.2613 560.467 16.0627C559.692 15.864 560.022 15.2019 559.885 15.0502C558.756 13.7692 556.098 15.5433 555.756 15.5872C549.52 16.3348 544.173 15.3241 538.319 15.327C533.875 15.3313 529.124 15.665 524.896 15.6192C519.858 15.5615 515.589 15.105 510.695 15.1835C510.179 15.1908 510.784 16.1813 510.153 16.1922C503.451 16.3074 496.796 16.1995 490.123 15.5308C489.454 15.4629 490.316 14.5932 489.648 14.4734C485.554 13.7587 479.077 12.0419 476.646 15.8282C473.873 15.6803 470.507 15.5276 468.026 14.7643C466.427 14.2731 467.98 13.3257 466.016 13.73C465.573 13.82 466.149 14.6497 465.484 14.722C462.686 15.0258 459.63 14.7561 456.862 15.1847C456.299 15.2739 456.453 16.0173 456.293 16.1512C454.953 17.2353 452.721 15.4431 452.234 15.3129C448.53 14.3418 445.824 14.724 442.373 14.7002C441.572 14.6943 442.519 15.6929 441.748 15.7231C437.751 15.8662 433.611 15.7804 429.697 15.3373C428.827 15.2363 429.627 14.3857 429.211 14.2939C427.377 13.8997 426.97 15.5062 425.211 15.1591C424.84 15.088 425.049 14.3598 424.981 14.2798C423.923 13.0244 423.003 14.8032 422.73 14.8425C419.285 15.3791 417.083 13.5221 413.755 13.7851C413.357 13.8184 414.255 14.7398 413.136 14.7771C405.68 15.0315 397.795 14.7784 390.414 14.0414C389.267 13.9281 390.086 13.236 390.014 13.1506C388.837 11.8175 388.076 13.6037 387.701 13.671C384.75 14.1553 381.992 12.6573 379.987 14.7848C367.486 14.0465 355.043 15.2412 342.645 13.3352C342.488 13.3131 342.77 12.4334 342.456 12.3931C338.669 11.8992 339.396 13.2664 336.891 14.9386C336.26 15.3585 334.34 13.3396 334.17 13.1916C333.551 12.6463 334.193 11.3375 333.986 11.2319C332.271 10.4025 332.55 14.7309 330.237 14.7323C330.164 14.7251 330.468 13.9284 330.274 13.8492C329.671 13.6005 329.072 13.9171 328.482 13.6428C327.131 13.0082 326.65 10.905 324.586 12.1291C324.325 12.2879 324.724 14.7432 322.658 14.6272C321.835 14.5789 318.19 14.6209 317.168 14.4618C316.148 14.3029 316.848 13.5117 316.776 13.4775C314.027 12.4313 315.069 11.9977 313.691 10.4487C312.314 8.90566 312.696 12.586 312.135 12.9968C311.572 13.4064 309.557 12.5432 309.061 12.2432C308.566 11.943 309.184 11.4402 308.743 11.2703C305.824 10.1604 307.462 13.0971 306.5 13.6813C304.233 15.0644 302.467 12.335 300.391 12.0676C299.829 11.9953 300.287 12.617 299.787 12.6751C297.806 12.8971 296.615 12.0455 294.361 12.8263C293.992 12.9536 292.171 14.5946 290.991 13.3903C290.824 13.2167 291.299 12.5365 290.455 12.3842C289.193 12.1555 286.921 12.0068 285.565 12.2342C284.564 12.4024 285.712 13.5231 284.452 13.175C283.892 13.0195 284.93 12.3639 283.878 12.1265C282.831 11.8892 280.156 11.918 279.138 11.9407C278.122 11.9638 278.678 12.8139 278.596 12.8712C278.099 13.1993 276.149 13.6092 275.976 13.6082C267.283 13.712 259.267 12.279 250.803 12.7533C250.139 12.7893 250.582 13.6858 250.48 13.7005C248.206 14.0761 249.999 11.6926 248.411 10.8948C248.64 12.714 247.703 12.3846 246.101 12.5841C245.329 12.6817 245.75 13.3861 245.679 13.4582C244.535 14.5282 243.737 13.1462 243.532 12.8635C242.774 11.8236 241.949 13.0523 241.433 12.3572C240.918 11.6673 242.104 10.6446 240.568 10.6577C240.137 11.3089 241.278 13.0107 240.112 13.2865C235.711 14.3298 227.497 12.9945 223.959 12.8558C220.428 12.7172 219.287 12.8374 217.23 12.602C213.513 12.1765 214.875 13.4391 212.567 14.0171C210.253 14.595 211.378 11.4883 211.045 10.8204C210.719 10.1529 210.362 10.8401 209.956 10.4731C209.551 10.1062 210.428 9.65211 209.475 9.51435C208.522 9.37672 205.917 10.5643 205.579 11.2626C204.865 12.7421 206.039 14.2948 203.518 13.7492C203.373 13.7168 203.844 12.8999 203.288 12.8174C198.878 12.1885 194.296 12.1495 189.891 11.5933C189.286 11.5156 189.827 10.6068 189.475 10.5513C185.803 9.97001 187.116 11.5023 185.104 13.2045C185.555 10.9392 184.443 9.55336 181.656 9.53998C179.981 9.53115 180.27 10.5205 179.186 11.2178C178.861 11.428 177.676 10.7487 177.461 11.2139C176.753 12.7348 177.869 14.4374 174.996 13.7595C174.87 13.7272 175.272 12.8947 174.836 12.8443C172.021 12.5143 171.684 14.1051 168.641 14.2978C166.256 14.4489 162.014 13.4789 159.298 13.3211C159.355 10.7743 156.79 11.3575 155.749 13.1135C153.986 13.0416 152.083 13.1408 150.379 12.8981C149.793 12.8154 150.178 12.078 150.104 11.9983C148.97 10.7485 148.204 12.4569 147.824 12.5239C143.7 13.1749 140.341 11.8801 136.405 13.1455C136.266 13.1911 136.039 14.9601 134.987 13.6684C134.919 13.5794 136.219 12.7745 134.368 12.7123C132.516 12.6499 129.026 11.7015 126.456 12.5213C125.834 12.7186 124.26 14.1548 122.998 13.0327C122.83 12.8803 123.014 12.373 122.771 12.0906C121.986 11.191 121.557 12.9791 120.635 11.46C119.712 9.94102 117.793 8.8034 115.201 9.85144C115.118 9.88192 114.504 11.2991 113.689 11.2767C112.388 11.2397 110.541 10.9445 109.182 10.9537C108.531 10.9587 108.948 11.8387 108.835 11.8548C104.46 12.3479 101.347 11.5634 96.6607 11.2229C95.8018 11.1587 93.3329 12.3588 91.6699 11.41C89.8439 10.3714 91.7203 6.05102 87.5229 7.08034C85.8301 7.49204 83.6867 12.9733 80.6443 10.1334C74.7439 10.8371 69.2869 9.3837 63.3702 10.3885C63.104 10.433 62.2627 11.9628 61.6371 11.942C60.7085 11.9081 60.1988 11.1931 59.5356 11.146C56.7571 10.9306 54.2144 11.5424 51.5354 11.4472C50.5184 11.4126 50.8739 10.6733 49.6609 10.632C48.4485 10.5914 47.6401 11.5649 45.9973 11.0947C44.7565 10.7363 43.5159 8.74653 41.8689 8.5146C41.8062 10.4773 40.675 10.4369 38.6646 10.955C38.2781 11.0555 38.6926 11.7387 38.5097 11.8215C37.7657 12.1736 37.0774 11.6074 36.3708 11.9907C36.199 12.0827 36.1909 12.753 36.0504 12.8661C34.8558 13.8532 32.8877 12.3455 32.5496 12.0829C31.2542 11.0859 30.6488 11.9577 29.655 11.5651C28.6629 11.1726 30.1464 10.6818 28.9874 10.4436C26.5853 9.95087 23.4991 10.0591 21.0593 10.0283C20.086 10.0202 20.7501 10.9149 20.6107 10.9345C18.5981 11.1614 16.5624 10.2097 15.4464 11.9919C14.0508 7.38374 14.2327 12.4389 11.3555 11.5164C11.1289 11.4418 10.8406 9.26262 11.7106 8.9427C12.5807 8.62307 13.9001 9.30425 15.1073 8.80555C15.3932 8.68851 17.0308 6.64648 17.2542 6.52278C19.0043 5.55605 19.2525 8.81254 19.345 8.9914C20.395 10.9216 22.3963 8.72172 22.9232 8.56971C25.3341 7.87319 27.3823 8.33116 29.3987 7.83399C30.7175 7.51267 30.8465 5.37955 31.8821 5.44484C35.3245 5.66065 36.5262 8.63638 39.7701 6.05623C40.4657 5.50594 39.7744 3.17449 42.2669 5.00777C42.4234 5.12334 44.2739 6.80046 45.343 5.73964C45.4772 5.60589 45.473 4.92642 45.6501 4.86934C46.8368 4.50013 47.6283 5.04144 48.9212 4.78219C50.2139 4.52293 51.7684 4.13645 53.2444 4.3669C54.1339 4.50471 55.2753 5.77065 55.701 6.08058C56.9035 6.97342 58.1926 5.50954 58.9374 6.59071C59.6886 7.67733 58.2201 9.32752 60.1898 10.0296C60.2628 8.2643 60.4304 6.4524 60.5477 4.67708C64.8642 4.73924 69.1116 5.31006 73.4425 5.23207C73.9793 5.22064 73.4304 4.27161 74.0059 4.23489C76.4344 4.08412 78.5556 4.76065 81.0742 4.49123C83.0238 4.27906 85.1613 3.27423 87.1998 3.02108C88.4451 5.04108 91.4699 4.35534 93.6673 4.53994C94.4371 4.60372 94.3856 5.14323 94.933 5.31923C96.9983 5.97018 96.0305 4.18512 96.5966 3.9042C99.0256 2.70527 99.2336 6.74566 102.097 6.64583C102.249 6.64191 104.104 4.4882 104.359 4.35409C105.982 3.47953 104.628 5.10371 105.644 5.26284C107.498 5.55364 108.787 6.06797 110.963 5.43715C111.597 5.25031 113.119 3.90793 114.351 4.94625C114.513 5.08221 114.424 5.79409 114.554 5.83577C116.916 6.5307 116.978 4.29389 118.327 3.53634C119.677 2.77895 121.762 4.32306 122.186 4.76809C123.296 5.91935 121.336 5.26009 121.275 5.37307C120.569 6.71755 122.09 6.48608 123.251 6.59968C123.42 8.7929 125.044 8.66126 124.456 6.70863C124.389 6.49535 123.485 6.69988 123.251 6.59968C124.271 4.44784 126.057 4.17225 128.029 6.18312C128.952 7.12559 128.079 8.22445 130.883 7.82246C132.156 7.64099 131.664 6.13085 132.787 5.71913C135.353 4.77976 138.687 6.18847 141.332 5.96651C142.292 5.88593 141.357 5.05929 142.013 4.97573C143.754 4.7514 145.29 5.37164 147.038 5.05391C147.197 5.02408 146.81 4.15875 147.354 4.14773C151.476 4.04723 155.066 4.60148 159.37 4.61684C161.449 4.62387 165.168 4.14662 167.322 4.24258C171.056 4.40377 175.649 5.66208 178.839 5.3564C180.919 5.16073 180.463 4.29523 181.354 3.70553C183.075 2.56244 186.119 4.60997 186.529 4.92702C186.542 4.93751 184.752 5.14155 185.707 5.58583C186.262 6.51158 186.509 4.93104 186.529 4.92702C186.799 5.13184 190.375 5.32831 191.085 5.16286C191.471 5.07245 191.255 4.25243 191.456 4.22079C196.238 3.48695 201.028 3.27854 205.878 3.66195C205.964 3.67852 205.835 4.59575 206.036 4.62325C208.844 5.03108 210.642 3.90901 212.957 3.24282C215.273 2.57693 217.109 2.79996 218.48 4.37459C220.226 4.17633 222.733 4.87248 224.175 5.29488C225.617 5.71727 225.819 3.9318 225.946 3.89651C229.904 2.76675 232.192 3.78873 236.298 3.94778C238.251 4.02645 242.123 3.76747 244.237 3.57223C245.908 3.41494 246.914 3.83337 248.454 3.56582C248.662 3.53009 248.451 2.7351 248.515 2.70449C250.233 1.75334 249.407 3.69681 249.762 4.04391C251.048 5.30614 251.842 5.97839 254.042 5.3846C254.55 5.24862 256.028 2.4503 256.953 2.28665C258.156 2.07901 257.702 3.08204 258.961 2.83908C259.069 2.8192 259.047 2.20041 259.824 2.22769C263.431 2.3462 267.365 2.70627 271.114 2.64425C271.626 2.63815 270.969 1.65665 271.709 1.63168C275.181 1.51534 278.987 1.55166 282.369 2.01108C283.201 2.12724 282.68 2.81447 282.86 3.01852C283.97 4.25316 285.543 2.45926 285.803 2.42508C291.996 1.56301 296.736 3.18647 303.048 2.41354C303.391 2.36817 306.036 0.445064 307.216 2.09439C307.297 2.20412 308.464 3.89155 309.496 2.73782C309.561 2.66564 308.833 1.79693 310.103 1.88547C311.372 1.97381 313.415 1.39369 315.16 2.34817C315.713 2.64885 317.018 4.33212 318.666 2.99032C318.774 2.89665 321.318 -0.137334 322.226 1.95596C322.373 2.30054 322.219 4.51573 324.186 3.37997C324.562 3.15978 323.879 2.66568 324.869 2.35714C326.386 1.88163 328.396 2.47493 330.261 1.48813C330.586 1.31343 331.97 -0.190103 333.08 0.951082C333.254 1.12981 332.924 1.86935 333.51 1.95212C336.299 2.34912 339.219 1.85443 342.05 2.36612C343.053 2.54591 342.54 3.74147 343.585 4.06185C344.631 4.38213 346.737 4.69022 347.831 4.14388C348.925 3.5973 347.73 1.69187 349.369 1.5394C356.495 0.877189 363.555 1.99497 370.67 2.15848C371.726 2.1829 370.851 1.50107 372.406 1.48813C378.14 1.4374 388.04 0.798122 393.015 2.24692C397.002 3.40732 391.985 4.29075 395.031 4.76296C396.501 4.98822 398.092 2.77295 398.447 2.70321C401.913 1.99478 404.323 2.97609 407.443 2.67501C408.087 2.61254 407.455 1.71467 408.004 1.67142C409.877 1.51571 411.845 1.91647 413.635 1.84317C414.438 1.80822 414.29 1.12246 415.029 1.17539C416.797 1.29413 418.361 1.58239 420.084 2.22513C420.241 2.28369 419.182 3.13675 420.49 3.16848C422.607 3.21741 425.235 3.85146 427.67 3.19668C428.393 2.99971 428.421 1.43242 429.975 2.5148C430.301 2.74086 429.885 4.62283 431.694 2.99673C431.999 2.72651 435.039 0.533193 436.53 1.94699C436.924 2.31908 437.928 3.85911 438.797 3.61709C438.915 3.57847 438.443 2.73662 439.163 2.65451C441.701 2.37976 444.361 2.46958 446.969 2.2059C447.665 2.13382 446.628 1.26268 447.665 1.18308C450.519 0.962887 454.082 1.1847 456.873 1.45737C457.901 1.55955 457.19 2.28118 457.265 2.35971C458.469 3.63703 459.181 1.91294 459.58 1.81241C462.065 1.21044 463.958 2.02032 466.248 1.806C466.88 1.74904 466.432 0.926972 466.558 0.85367C467.863 0.13746 466.891 1.61378 467.717 1.77652C470.031 2.23731 472.61 2.17124 474.951 2.06619C475.81 2.0264 474.844 1.07319 475.615 1.04849C480.181 0.88424 484.928 0.975451 489.383 1.50095C490.223 1.60162 489.695 2.33562 489.869 2.50326C491.075 3.67616 492.841 2.07632 493.247 1.92392C495.095 1.22808 495.813 1.87716 497.445 1.75601C505.417 1.15281 515.261 1.58271 522.786 1.8483C532.592 2.19011 540.202 2.88838 549.553 2.70706C550.148 2.69645 549.548 1.72001 550.061 1.69833C556.675 1.46294 563.187 1.8445 569.815 1.56247C570.359 1.54106 569.575 0.615383 570.448 0.549899C572.239 0.409093 574.507 0.459406 576.318 0.754977C577.201 0.897389 576.016 1.6917 576.905 1.81882C578.975 2.11662 581.193 2.18255 583.319 2.03415C584.224 1.96898 582.859 1.02225 584.035 1.01132C592.045 0.9174 599.911 0.75435 608.006 1.98031C608.561 2.06451 609.048 3.98864 610.228 3.61965C610.316 3.08566 610.312 2.45751 610.35 1.88675C622.011 1.57929 633.552 2.24632 645.246 2.34945C645.739 2.35358 644.887 1.33408 645.841 1.33688C651.366 1.35196 656.73 1.06952 662.381 2.08285C662.942 2.18195 662.654 3.9755 664.306 3.70425C664.598 3.65475 667.086 3.41555 667.73 3.02621C667.817 2.96748 667.363 2.13032 668.165 2.10592C672.825 1.9788 677.708 2.16992 682.36 2.68142C683.111 2.76558 682.311 3.65708 682.846 3.72475C686.639 4.198 690.765 3.5203 694.39 4.32973C696.816 4.87475 695.918 6.41579 697.207 7.93269C697.389 8.1467 698.892 8.18061 698.969 9.06318C699.169 11.2825 698.441 13.7126 698.74 16.0781C698.803 16.5876 700.815 16.0388 699.624 17.2701C699.54 17.3525 698.082 17.7612 697.722 18.1789C697.472 18.4677 697.923 19.3652 697.413 19.7349C696.902 20.1042 696.342 19.3518 695.495 19.7862C694.65 20.2259 695.022 21.247 693.332 21.3678ZM230.669 7.18287C232.005 8.04032 232.202 4.89983 230.757 5.6512C230.688 5.69125 230.601 7.14081 230.669 7.18287ZM69.0873 7.67891C70.8332 9.06408 72.0278 7.02732 70.7963 5.95754C69.5648 4.8889 68.5553 7.25901 69.0873 7.67891ZM50.9827 8.69019C53.0232 9.78234 53.3444 5.329 51.1589 6.22926C51.0318 6.28014 50.8634 8.62678 50.9827 8.69019ZM691.228 8.36463C691.247 8.40634 692.327 8.44698 692.352 8.40565C692.927 7.40823 690.768 7.32765 691.228 8.36463ZM33.0169 9.7912C33.654 10.3936 35.4881 9.6982 34.6965 8.9491C34.0594 8.34647 32.2237 9.04184 33.0169 9.7912ZM300.335 10.5346C300.356 10.5814 301.13 10.6235 301.114 10.359C301.062 9.507 299.984 9.74746 300.335 10.5346ZM2.48212 9.84247C6.99358 10.0101 9.72879 13.6888 4.81599 13.2737C3.92621 13.1986 6.73349 12.1006 5.60101 11.7689C3.52902 11.1647 2.15323 13.4745 0.0388026 12.2368C-0.344013 12.0102 2.2248 9.82474 2.49013 9.83735C2.48757 9.83905 2.48475 9.84076 2.48212 9.84247ZM231.438 10.955C231.465 10.9965 232.537 11.0359 232.563 10.9948C233.143 9.99773 230.984 9.91783 231.438 10.955ZM345.513 12.4764C345.572 12.5649 348.06 12.6477 348.141 12.5662C349.438 10.9358 344.41 10.7636 345.513 12.4764ZM159.255 13.2532C158.085 14.2562 156.687 14.3743 155.754 13.1147C156.916 13.1816 158.086 13.1915 159.255 13.2532Z" fill="#E7FB62"/>
</svg>
