<svg width="170" height="50" viewBox="0 0 170 50" fill="none" xmlns="http://www.w3.org/2000/svg">
<path d="M21.6973 8C30.9185 8.00021 38.3936 15.6114 38.3936 25C38.3934 34.3885 30.9185 41.9998 21.6973 42C12.4759 42 5.00012 34.3886 5 25C5 15.6113 12.4758 8 21.6973 8ZM20.9209 16.5342C16.5426 16.5344 12.9864 20.1607 12.9863 24.6094C12.9864 29.0595 16.5427 32.6863 20.9209 32.6865H28.8574V24.6094C28.8574 20.1605 25.3004 16.5342 20.9209 16.5342Z" fill="white"/>
<path d="M55.4155 25.0563C55.1334 24.616 54.7103 24.2474 54.1462 23.9507C53.5821 23.6539 52.9804 23.5055 52.341 23.5055C51.6453 23.5055 51.0295 23.6396 50.4936 23.9076C49.9576 24.1756 49.5017 24.5346 49.1256 24.9845C48.7495 25.4344 48.4627 25.9561 48.2653 26.5496C48.0679 27.1431 47.9691 27.7653 47.9691 28.4162C47.9691 29.0672 48.0679 29.6894 48.2653 30.2829C48.4627 30.8764 48.7495 31.3981 49.1256 31.848C49.5017 32.2979 49.9623 32.6569 50.5077 32.9249C51.053 33.1929 51.6735 33.3269 52.3693 33.3269C53.0462 33.3269 53.662 33.1929 54.2167 32.9249C54.7715 32.6569 55.2274 32.2931 55.5847 31.8336L57.3617 33.4705C56.7976 34.1406 56.0924 34.6623 55.2462 35.0356C54.4001 35.409 53.4411 35.5956 52.3693 35.5956C51.335 35.5956 50.3807 35.4233 49.5064 35.0787C48.632 34.7341 47.8751 34.2507 47.2358 33.6285C46.5964 33.0063 46.0934 32.2548 45.7268 31.3741C45.3601 30.4935 45.1768 29.5075 45.1768 28.4162C45.1768 27.3441 45.3554 26.3677 45.7127 25.4871C46.0699 24.6064 46.5682 23.8502 47.2076 23.2184C47.8469 22.5866 48.6038 22.0984 49.4782 21.7538C50.3525 21.4092 51.2974 21.2369 52.3128 21.2369C53.253 21.2369 54.1885 21.4283 55.1193 21.8112C56.0501 22.1941 56.7882 22.7493 57.3335 23.4768L55.4155 25.0563ZM62.749 23.6778C63.0687 23.0078 63.614 22.4334 64.3849 21.9548C65.1559 21.4762 66.0209 21.2369 66.9799 21.2369C67.8449 21.2369 68.5876 21.3852 69.2081 21.682C69.8287 21.9787 70.3458 22.376 70.7595 22.8738C71.1732 23.3715 71.4787 23.9554 71.6762 24.6255C71.8736 25.2956 71.9723 26.0135 71.9723 26.7793V35.2223H69.321V27.6983C69.321 27.1431 69.2787 26.6166 69.194 26.1188C69.1094 25.6211 68.9543 25.1807 68.7286 24.7978C68.503 24.4149 68.1974 24.1086 67.812 23.8789C67.4265 23.6491 66.9235 23.5343 66.3029 23.5343C65.2499 23.5343 64.3849 23.9411 63.708 24.7548C63.0311 25.5684 62.6926 26.6549 62.6926 28.0142V35.2223H60.0412V13.5118H62.6926V23.6778H62.749ZM84.7778 26.406C84.7778 25.3913 84.4769 24.6399 83.8752 24.1517C83.2735 23.6635 82.4743 23.4194 81.4777 23.4194C80.7255 23.4194 80.0157 23.5678 79.3481 23.8645C78.6806 24.1613 78.1212 24.5394 77.6699 24.9989L76.2596 23.2758C76.9177 22.644 77.7216 22.1462 78.6712 21.7825C79.6208 21.4187 80.6409 21.2369 81.7315 21.2369C82.6905 21.2369 83.5226 21.3757 84.2278 21.6533C84.9329 21.9309 85.5111 22.309 85.9624 22.7876C86.4137 23.2662 86.7522 23.831 86.9778 24.4819C87.2035 25.1329 87.3163 25.8317 87.3163 26.5783V32.5228C87.3163 32.9823 87.3304 33.4657 87.3586 33.9731C87.3868 34.4804 87.4385 34.8968 87.5137 35.2223H85.1162C84.9658 34.5714 84.8906 33.9204 84.8906 33.2695H84.806C84.3171 33.997 83.7012 34.5618 82.9585 34.9638C82.2157 35.3659 81.3367 35.5669 80.3212 35.5669C79.7947 35.5669 79.2447 35.4951 78.6712 35.3515C78.0977 35.2079 77.5759 34.9734 77.1058 34.6479C76.6357 34.3225 76.2455 33.8917 75.9352 33.3557C75.625 32.8196 75.4698 32.1591 75.4698 31.3741C75.4698 30.3403 75.7425 29.5219 76.2878 28.9188C76.8331 28.3157 77.5477 27.8563 78.4315 27.5404C79.3152 27.2245 80.3118 27.0187 81.4213 26.9229C82.5307 26.8272 83.6495 26.7793 84.7778 26.7793V26.406ZM84.129 28.7321C83.4709 28.7321 82.7893 28.7608 82.0841 28.8183C81.379 28.8757 80.7396 28.9906 80.1661 29.1629C79.5926 29.3352 79.1178 29.5937 78.7417 29.9383C78.3656 30.2829 78.1776 30.7424 78.1776 31.3167C78.1776 31.7188 78.2575 32.0538 78.4174 32.3218C78.5772 32.5899 78.7887 32.81 79.052 32.9823C79.3152 33.1546 79.6067 33.2743 79.9264 33.3413C80.246 33.4083 80.5751 33.4418 80.9136 33.4418C82.1546 33.4418 83.1089 33.0637 83.7765 32.3075C84.444 31.5512 84.7778 30.5988 84.7778 29.4501V28.7321H84.129ZM98.0063 23.8214H94.4524V30.9147C94.4524 31.7379 94.6028 32.3266 94.9037 32.6808C95.2045 33.035 95.684 33.2121 96.3422 33.2121C96.5866 33.2121 96.8499 33.1833 97.1319 33.1259C97.414 33.0685 97.6678 32.9823 97.8935 32.8675L97.9781 35.0787C97.6584 35.1936 97.3059 35.2845 96.9204 35.3515C96.5349 35.4185 96.1353 35.452 95.7216 35.452C94.4618 35.452 93.4981 35.0979 92.8305 34.3895C92.163 33.6811 91.8292 32.6186 91.8292 31.2018V23.8214H89.2625V21.6102H91.8292V17.7046H94.4524V21.6102H98.0063V23.8214ZM103.23 21.6102L106.248 32.0059H106.304L109.491 21.6102H112.284L115.527 32.0059H115.584L118.602 21.6102H121.394L116.966 35.2223H114.202L110.902 24.9989H110.845L107.573 35.2223H104.809L100.353 21.6102H103.23ZM137.584 28.3875C137.584 29.4405 137.401 30.4073 137.034 31.288C136.668 32.1687 136.16 32.9297 135.511 33.571C134.862 34.2124 134.096 34.7102 133.212 35.0644C132.329 35.4185 131.379 35.5956 130.364 35.5956C129.348 35.5956 128.399 35.4185 127.515 35.0644C126.631 34.7102 125.869 34.2124 125.23 33.571C124.591 32.9297 124.088 32.1687 123.721 31.288C123.354 30.4073 123.171 29.4405 123.171 28.3875C123.171 27.3345 123.354 26.3725 123.721 25.5014C124.088 24.6303 124.591 23.8789 125.23 23.2471C125.869 22.6153 126.631 22.1223 127.515 21.7681C128.399 21.4139 129.348 21.2369 130.364 21.2369C131.379 21.2369 132.329 21.4139 133.212 21.7681C134.096 22.1223 134.862 22.6153 135.511 23.2471C136.16 23.8789 136.668 24.6303 137.034 25.5014C137.401 26.3725 137.584 27.3345 137.584 28.3875ZM134.82 28.3875C134.82 27.7366 134.721 27.1144 134.524 26.5209C134.327 25.9274 134.04 25.4057 133.664 24.9558C133.288 24.5059 132.822 24.1469 132.268 23.8789C131.713 23.6108 131.078 23.4768 130.364 23.4768C129.649 23.4768 129.014 23.6108 128.46 23.8789C127.905 24.1469 127.44 24.5059 127.064 24.9558C126.687 25.4057 126.401 25.9274 126.203 26.5209C126.006 27.1144 125.907 27.7366 125.907 28.3875C125.907 29.0385 126.006 29.6607 126.203 30.2542C126.401 30.8477 126.687 31.3741 127.064 31.8336C127.44 32.2931 127.905 32.6569 128.46 32.9249C129.014 33.1929 129.649 33.3269 130.364 33.3269C131.078 33.3269 131.713 33.1929 132.268 32.9249C132.822 32.6569 133.288 32.2931 133.664 31.8336C134.04 31.3741 134.327 30.8477 134.524 30.2542C134.721 29.6607 134.82 29.0385 134.82 28.3875ZM154.79 28.3875C154.79 29.4405 154.607 30.4073 154.24 31.288C153.873 32.1687 153.366 32.9297 152.717 33.571C152.068 34.2124 151.302 34.7102 150.418 35.0644C149.534 35.4185 148.585 35.5956 147.569 35.5956C146.554 35.5956 145.604 35.4185 144.72 35.0644C143.837 34.7102 143.075 34.2124 142.436 33.571C141.796 32.9297 141.293 32.1687 140.927 31.288C140.56 30.4073 140.377 29.4405 140.377 28.3875C140.377 27.3345 140.56 26.3725 140.927 25.5014C141.293 24.6303 141.796 23.8789 142.436 23.2471C143.075 22.6153 143.837 22.1223 144.72 21.7681C145.604 21.4139 146.554 21.2369 147.569 21.2369C148.585 21.2369 149.534 21.4139 150.418 21.7681C151.302 22.1223 152.068 22.6153 152.717 23.2471C153.366 23.8789 153.873 24.6303 154.24 25.5014C154.607 26.3725 154.79 27.3345 154.79 28.3875ZM152.026 28.3875C152.026 27.7366 151.927 27.1144 151.73 26.5209C151.532 25.9274 151.245 25.4057 150.869 24.9558C150.493 24.5059 150.028 24.1469 149.473 23.8789C148.918 23.6108 148.284 23.4768 147.569 23.4768C146.855 23.4768 146.22 23.6108 145.665 23.8789C145.111 24.1469 144.645 24.5059 144.269 24.9558C143.893 25.4057 143.606 25.9274 143.409 26.5209C143.211 27.1144 143.113 27.7366 143.113 28.3875C143.113 29.0385 143.211 29.6607 143.409 30.2542C143.606 30.8477 143.893 31.3741 144.269 31.8336C144.645 32.2931 145.111 32.6569 145.665 32.9249C146.22 33.1929 146.855 33.3269 147.569 33.3269C148.284 33.3269 148.918 33.1929 149.473 32.9249C150.028 32.6569 150.493 32.2931 150.869 31.8336C151.245 31.3741 151.532 30.8477 151.73 30.2542C151.927 29.6607 152.026 29.0385 152.026 28.3875ZM165 23.8214H161.446V30.9147C161.446 31.7379 161.597 32.3266 161.898 32.6808C162.199 33.035 162.678 33.2121 163.336 33.2121C163.581 33.2121 163.844 33.1833 164.126 33.1259C164.408 33.0685 164.662 32.9823 164.888 32.8675L164.972 35.0787C164.653 35.1936 164.3 35.2845 163.914 35.3515C163.529 35.4185 163.129 35.452 162.716 35.452C161.456 35.452 160.492 35.0979 159.825 34.3895C159.157 33.6811 158.823 32.6186 158.823 31.2018V23.8214H156.257V21.6102H158.823V17.7046H161.446V21.6102H165V23.8214Z" fill="white" stroke="white" stroke-width="0.521778"/>
</svg>
