<svg width="170" height="50" viewBox="0 0 170 50" fill="none" xmlns="http://www.w3.org/2000/svg">
<path d="M5 15H9.24505V34.6694H5V15Z" fill="white"/>
<path d="M13.4336 15H17.6786V34.6694H13.4336V15Z" fill="white"/>
<path d="M21.8652 15H34.4295V18.2782H26.1104V22.9614H33.8597V26.2396H26.1104V31.3912H34.4295V34.6694H21.8652V15Z" fill="white"/>
<path d="M37.0215 15H41.0387V34.6694H37.0215V15Z" fill="white"/>
<path d="M43.4609 27.2866C43.4609 21.9146 46.2245 19.6006 50.5266 19.6006C54.8286 19.6006 57.2787 21.8871 57.2787 27.3417V28.2232H47.4212C47.5636 31.4187 48.5607 32.4931 50.4696 32.4931C51.9796 32.4931 52.9197 31.6391 53.0907 30.1516H57.1078C56.8514 33.4022 54.0594 35 50.4696 35C45.9112 35 43.4609 32.6584 43.4609 27.2866ZM53.3186 25.6612C53.1192 22.9615 52.1505 22.0799 50.4696 22.0799C48.7886 22.0799 47.7345 22.989 47.4496 25.6612H53.3186Z" fill="white"/>
<path d="M62.2364 19.931H58.1338L63.0911 34.6693H67.507L72.4644 19.931H68.3618L65.2575 31.033L62.2364 19.931Z" fill="white"/>
<path d="M73.2334 27.2866C73.2334 21.9146 75.997 19.6006 80.299 19.6006C84.601 19.6006 87.0512 21.8871 87.0512 27.3417V28.2232H77.1935C77.336 31.4187 78.3332 32.4931 80.242 32.4931C81.752 32.4931 82.6922 31.6391 82.8631 30.1516H86.8802C86.6239 33.4022 83.8318 35 80.242 35C75.6835 35 73.2334 32.6584 73.2334 27.2866ZM83.0911 25.6612C82.8916 22.9615 81.923 22.0799 80.242 22.0799C78.5611 22.0799 77.507 22.989 77.2221 25.6612H83.0911Z" fill="white"/>
<path d="M93.5468 25.9918C93.5468 23.6777 94.6863 22.4105 96.4528 22.4105C97.9058 22.4105 98.7318 23.292 98.7318 25.1928V34.6695H102.75V24.5868C102.75 21.1708 100.755 19.6006 97.8488 19.6006C95.8829 19.6006 94.259 20.5648 93.5468 21.832V19.9312H89.4727V34.6695H93.5468V25.9918Z" fill="white"/>
<path d="M106.082 15H110.327V31.3912H118.305V34.6694H106.082V15Z" fill="white"/>
<path fill-rule="evenodd" clip-rule="evenodd" d="M119.302 27.2866C119.302 21.6667 121.98 19.6006 125.427 19.6006C127.136 19.6006 128.703 20.5372 129.33 21.529V19.9312H133.432V34.6695H129.444V32.9339C128.846 34.0909 127.165 35 125.312 35C121.666 35 119.302 32.7411 119.302 27.2866ZM126.481 22.4931C128.475 22.4931 129.558 23.9532 129.558 27.2866C129.558 30.6198 128.475 32.1075 126.481 32.1075C124.486 32.1075 123.347 30.6198 123.347 27.2866C123.347 23.9532 124.486 22.4931 126.481 22.4931Z" fill="white"/>
<path fill-rule="evenodd" clip-rule="evenodd" d="M140.526 32.9339V34.6694H136.537V15H140.555V21.5289C141.238 20.5096 142.834 19.6005 144.544 19.6005C147.906 19.6005 150.583 21.6667 150.583 27.2865C150.583 32.9063 147.962 35 144.458 35C142.606 35 141.096 34.0909 140.526 32.9339ZM143.404 22.5207C145.398 22.5207 146.538 23.9532 146.538 27.2865C146.538 30.6198 145.398 32.1074 143.404 32.1074C141.409 32.1074 140.327 30.6198 140.327 27.2865C140.327 23.9532 141.409 22.5207 143.404 22.5207Z" fill="white"/>
<path d="M152.236 30.2893H156.253C156.31 31.832 157.165 32.5757 158.675 32.5757C160.185 32.5757 161.04 31.9147 161.04 30.7576C161.04 29.7107 160.384 29.3251 158.96 28.9945L157.734 28.6915C154.259 27.8375 152.521 26.9284 152.521 24.146C152.521 21.3637 155.2 19.6006 158.618 19.6006C162.037 19.6006 164.629 20.8953 164.743 23.9532H160.727C160.641 22.6033 159.786 22.0248 158.561 22.0248C157.336 22.0248 156.481 22.6033 156.481 23.7053C156.481 24.7246 157.165 25.1102 158.361 25.3857L159.615 25.6888C162.92 26.4877 165 27.2866 165 30.2617C165 33.2369 162.265 35 158.561 35C154.544 35 152.321 33.5399 152.236 30.2893Z" fill="white"/>
</svg>
