<svg width="170" height="50" viewBox="0 0 170 50" fill="none" xmlns="http://www.w3.org/2000/svg">
<path d="M155.521 46.73V33.773H158.466V46.73H155.521ZM158.466 39.5227L157.449 39.0098C157.449 37.3722 157.806 36.0495 158.52 35.0417C159.252 34.0159 160.35 33.5031 161.814 33.5031C162.456 33.5031 163.036 33.62 163.554 33.854C164.072 34.0879 164.554 34.4658 165 34.9877L163.072 36.9853C162.84 36.7333 162.581 36.5534 162.296 36.4454C162.01 36.3374 161.68 36.2834 161.305 36.2834C160.483 36.2834 159.805 36.5444 159.27 37.0662C158.734 37.5881 158.466 38.4069 158.466 39.5227Z" fill="white"/>
<path d="M145.369 47C144.209 47 143.156 46.703 142.21 46.1092C141.281 45.5153 140.54 44.7145 139.987 43.7067C139.451 42.681 139.184 41.5382 139.184 40.2785C139.184 39.0008 139.451 37.8581 139.987 36.8503C140.54 35.8245 141.281 35.0147 142.21 34.4208C143.156 33.809 144.209 33.5031 145.369 33.5031C146.351 33.5031 147.217 33.719 147.967 34.1509C148.735 34.5648 149.342 35.1407 149.788 35.8785C150.234 36.6163 150.457 37.4532 150.457 38.3889V42.1141C150.457 43.0499 150.234 43.8867 149.788 44.6245C149.359 45.3624 148.761 45.9472 147.994 46.3791C147.226 46.793 146.351 47 145.369 47ZM145.851 44.1926C146.94 44.1926 147.815 43.8237 148.476 43.0859C149.154 42.348 149.493 41.4033 149.493 40.2515C149.493 39.4777 149.342 38.7938 149.038 38.2C148.735 37.6061 148.306 37.1472 147.753 36.8233C147.217 36.4814 146.583 36.3104 145.851 36.3104C145.137 36.3104 144.504 36.4814 143.95 36.8233C143.415 37.1472 142.986 37.6061 142.665 38.2C142.361 38.7938 142.21 39.4777 142.21 40.2515C142.21 41.0253 142.361 41.7092 142.665 42.3031C142.986 42.8969 143.415 43.3648 143.95 43.7067C144.504 44.0307 145.137 44.1926 145.851 44.1926ZM149.306 46.73V43.2478L149.815 40.0896L149.306 36.9583V33.773H152.252V46.73H149.306Z" fill="white"/>
<path d="M129.836 47C128.676 47 127.623 46.703 126.676 46.1092C125.748 45.5153 125.007 44.7145 124.454 43.7067C123.918 42.6809 123.65 41.5382 123.65 40.2785C123.65 39.0008 123.918 37.858 124.454 36.8503C125.007 35.8245 125.748 35.0147 126.676 34.4208C127.623 33.809 128.676 33.503 129.836 33.503C130.818 33.503 131.684 33.719 132.434 34.1509C133.201 34.5648 133.808 35.1406 134.255 35.8785C134.701 36.6163 134.924 37.4531 134.924 38.3889V42.1141C134.924 43.0499 134.701 43.8867 134.255 44.6245C133.826 45.3623 133.228 45.9472 132.461 46.3791C131.693 46.793 130.818 47 129.836 47ZM130.318 44.1926C131.05 44.1926 131.684 44.0306 132.22 43.7067C132.773 43.3648 133.201 42.8969 133.505 42.303C133.808 41.7092 133.96 41.0253 133.96 40.2515C133.96 39.4777 133.808 38.7938 133.505 38.2C133.201 37.6061 132.773 37.1472 132.22 36.8233C131.684 36.4813 131.059 36.3104 130.345 36.3104C129.613 36.3104 128.97 36.4813 128.417 36.8233C127.881 37.1472 127.453 37.6061 127.132 38.2C126.828 38.7938 126.676 39.4777 126.676 40.2515C126.676 41.0253 126.828 41.7092 127.132 42.303C127.453 42.8969 127.881 43.3648 128.417 43.7067C128.97 44.0306 129.604 44.1926 130.318 44.1926ZM136.718 46.73H133.773V43.2478L134.282 40.0895L133.773 36.9582V27.2944H136.718V46.73Z" fill="white"/>
<path d="M118.514 46.73V39.2527C118.514 38.3889 118.238 37.6781 117.684 37.1202C117.149 36.5624 116.452 36.2834 115.595 36.2834C115.024 36.2834 114.515 36.4094 114.069 36.6613C113.623 36.9133 113.275 37.2642 113.025 37.7141C112.775 38.164 112.65 38.6769 112.65 39.2527L111.498 38.6049C111.498 37.6151 111.713 36.7423 112.141 35.9865C112.569 35.2127 113.159 34.6098 113.908 34.1779C114.676 33.728 115.533 33.5031 116.479 33.5031C117.443 33.5031 118.3 33.755 119.05 34.2589C119.8 34.7448 120.389 35.3836 120.817 36.1754C121.246 36.9493 121.46 37.7591 121.46 38.6049V46.73H118.514ZM109.704 46.73V33.773H112.65V46.73H109.704Z" fill="white"/>
<path d="M101.371 47C100.086 47 98.9253 46.712 97.8899 46.1362C96.8723 45.5423 96.06 44.7325 95.453 43.7067C94.8639 42.681 94.5693 41.5292 94.5693 40.2515C94.5693 38.9738 94.8639 37.8311 95.453 36.8233C96.0422 35.7975 96.8366 34.9877 97.8363 34.3938C98.8539 33.8 99.9786 33.5031 101.21 33.5031C102.407 33.5031 103.46 33.782 104.37 34.3399C105.299 34.8977 106.022 35.6626 106.539 36.6343C107.075 37.6061 107.343 38.7129 107.343 39.9546C107.343 40.1705 107.325 40.3955 107.289 40.6294C107.271 40.8454 107.236 41.0883 107.182 41.3583H96.6313V38.9288H105.656L104.558 39.9006C104.522 39.1088 104.37 38.4429 104.103 37.903C103.835 37.3632 103.451 36.9493 102.951 36.6613C102.469 36.3734 101.871 36.2294 101.157 36.2294C100.407 36.2294 99.7555 36.3914 99.2021 36.7153C98.6486 37.0392 98.2202 37.4981 97.9167 38.092C97.6132 38.6679 97.4614 39.3607 97.4614 40.1705C97.4614 40.9804 97.6221 41.6912 97.9435 42.3031C98.2648 42.9149 98.72 43.3918 99.3092 43.7337C99.8983 44.0577 100.577 44.2196 101.344 44.2196C102.005 44.2196 102.612 44.1026 103.165 43.8687C103.737 43.6347 104.219 43.2928 104.611 42.8429L106.486 44.7595C105.861 45.4973 105.102 46.0552 104.21 46.4331C103.317 46.811 102.371 47 101.371 47Z" fill="white"/>
<path d="M89.1758 46.73V27.2944H92.1214V46.73H89.1758Z" fill="white"/>
<path d="M79.0238 47C77.8634 47 76.8101 46.703 75.8639 46.1092C74.9356 45.5153 74.1947 44.7145 73.6413 43.7067C73.1057 42.681 72.8379 41.5382 72.8379 40.2785C72.8379 39.0008 73.1057 37.8581 73.6413 36.8503C74.1947 35.8245 74.9356 35.0147 75.8639 34.4208C76.8101 33.809 77.8634 33.5031 79.0238 33.5031C80.0057 33.5031 80.8715 33.719 81.6213 34.1509C82.389 34.5648 82.9959 35.1407 83.4423 35.8785C83.8886 36.6163 84.1117 37.4532 84.1117 38.3889V42.1141C84.1117 43.0499 83.8886 43.8867 83.4423 44.6245C83.0138 45.3624 82.4157 45.9472 81.6481 46.3791C80.8804 46.793 80.0057 47 79.0238 47ZM79.5058 44.1926C80.5948 44.1926 81.4696 43.8237 82.1301 43.0859C82.8085 42.348 83.1477 41.4033 83.1477 40.2515C83.1477 39.4777 82.9959 38.7938 82.6925 38.2C82.389 37.6061 81.9605 37.1472 81.4071 36.8233C80.8715 36.4814 80.2377 36.3104 79.5058 36.3104C78.7917 36.3104 78.1579 36.4814 77.6045 36.8233C77.0689 37.1472 76.6405 37.6061 76.3191 38.2C76.0156 38.7938 75.8639 39.4777 75.8639 40.2515C75.8639 41.0253 76.0156 41.7092 76.3191 42.3031C76.6405 42.8969 77.0689 43.3648 77.6045 43.7067C78.1579 44.0307 78.7917 44.1926 79.5058 44.1926ZM82.9602 46.73V43.2478L83.469 40.0896L82.9602 36.9583V33.773H85.9059V46.73H82.9602Z" fill="white"/>
<path d="M64.6453 46.9999C63.2885 46.9999 62.0299 46.757 60.8695 46.2711C59.7269 45.7672 58.7272 45.0744 57.8703 44.1926C57.0133 43.2928 56.3528 42.258 55.8886 41.0883C55.4245 39.9005 55.1924 38.6318 55.1924 37.2821C55.1924 35.9324 55.4245 34.6727 55.8886 33.503C56.3528 32.3153 57.0133 31.2805 57.8703 30.3987C58.7272 29.5169 59.7269 28.824 60.8695 28.3202C62.0299 27.8163 63.2885 27.5643 64.6453 27.5643C66.1627 27.5643 67.4749 27.8163 68.5817 28.3202C69.6886 28.824 70.6705 29.5079 71.5274 30.3717L69.4387 32.4772C68.8852 31.8654 68.2068 31.3885 67.4035 31.0465C66.618 30.7046 65.6986 30.5337 64.6453 30.5337C63.7169 30.5337 62.8689 30.6956 62.1013 31.0195C61.3336 31.3435 60.6642 31.8114 60.0929 32.4232C59.5395 33.0171 59.111 33.7279 58.8075 34.5557C58.504 35.3836 58.3523 36.2923 58.3523 37.2821C58.3523 38.2719 58.504 39.1807 58.8075 40.0085C59.111 40.8363 59.5395 41.5561 60.0929 42.168C60.6642 42.7619 61.3336 43.2208 62.1013 43.5447C62.8689 43.8686 63.7169 44.0306 64.6453 44.0306C65.7878 44.0306 66.7519 43.8596 67.5374 43.5177C68.3407 43.1578 69.0191 42.6719 69.5725 42.06L71.6613 44.1656C70.8044 45.0474 69.7957 45.7402 68.6353 46.2441C67.4749 46.748 66.1449 46.9999 64.6453 46.9999Z" fill="white"/>
<path d="M134.19 22.7054C132.905 22.7054 131.745 22.4175 130.709 21.8416C129.692 21.2478 128.879 20.4379 128.272 19.4122C127.683 18.3864 127.389 17.2347 127.389 15.957C127.389 14.6793 127.683 13.5365 128.272 12.5287C128.861 11.503 129.656 10.6932 130.656 10.0993C131.673 9.50543 132.798 9.2085 134.03 9.2085C135.226 9.2085 136.279 9.48743 137.19 10.0453C138.118 10.6032 138.841 11.368 139.359 12.3398C139.894 13.3116 140.162 14.4183 140.162 15.66C140.162 15.876 140.144 16.1009 140.109 16.3349C140.091 16.5508 140.055 16.7938 140.001 17.0637H129.451V14.6343H138.475L137.377 15.606C137.341 14.8142 137.19 14.1484 136.922 13.6085C136.654 13.0686 136.27 12.6547 135.77 12.3668C135.288 12.0788 134.69 11.9349 133.976 11.9349C133.226 11.9349 132.575 12.0968 132.021 12.4208C131.468 12.7447 131.039 13.2036 130.736 13.7975C130.433 14.3733 130.281 15.0662 130.281 15.876C130.281 16.6858 130.441 17.3966 130.763 18.0085C131.084 18.6204 131.539 19.0972 132.128 19.4392C132.718 19.7631 133.396 19.9251 134.164 19.9251C134.824 19.9251 135.431 19.8081 135.985 19.5741C136.556 19.3402 137.038 18.9983 137.431 18.5484L139.305 20.4649C138.68 21.2028 137.922 21.7606 137.029 22.1386C136.136 22.5165 135.19 22.7054 134.19 22.7054Z" fill="white"/>
<path d="M121.994 22.4356V3H124.94V22.4356H121.994Z" fill="white"/>
<path d="M111.948 28.1042C110.591 28.1042 109.404 27.8523 108.386 27.3484C107.368 26.8625 106.547 26.1696 105.922 25.2698L107.85 23.3263C108.368 23.9741 108.957 24.46 109.618 24.784C110.278 25.1079 111.073 25.2698 112.001 25.2698C113.162 25.2698 114.081 24.9639 114.759 24.3521C115.438 23.7582 115.777 22.9394 115.777 21.8956V18.7103L116.286 15.849L115.777 12.9606V9.47843H118.723V21.8956C118.723 23.1373 118.437 24.2171 117.866 25.1349C117.294 26.0707 116.5 26.7995 115.482 27.3214C114.465 27.8433 113.287 28.1042 111.948 28.1042ZM111.814 22.1656C110.671 22.1656 109.636 21.8866 108.707 21.3287C107.797 20.7529 107.074 19.97 106.538 18.9803C106.021 17.9905 105.762 16.8838 105.762 15.66C105.762 14.4363 106.021 13.3386 106.538 12.3668C107.074 11.395 107.797 10.6302 108.707 10.0723C109.636 9.49643 110.671 9.2085 111.814 9.2085C112.831 9.2085 113.724 9.41545 114.492 9.82936C115.259 10.2433 115.857 10.8191 116.286 11.557C116.714 12.2768 116.928 13.1226 116.928 14.0944V17.2797C116.928 18.2334 116.705 19.0793 116.259 19.8171C115.831 20.5549 115.232 21.1308 114.465 21.5447C113.697 21.9586 112.813 22.1656 111.814 22.1656ZM112.403 19.3582C113.117 19.3582 113.742 19.2052 114.277 18.8993C114.813 18.5934 115.224 18.1705 115.509 17.6306C115.813 17.0727 115.964 16.4249 115.964 15.687C115.964 14.9492 115.813 14.3103 115.509 13.7705C115.224 13.2126 114.813 12.7807 114.277 12.4748C113.742 12.1688 113.117 12.0159 112.403 12.0159C111.689 12.0159 111.055 12.1688 110.502 12.4748C109.966 12.7807 109.546 13.2126 109.243 13.7705C108.939 14.3103 108.788 14.9492 108.788 15.687C108.788 16.4069 108.939 17.0457 109.243 17.6036C109.546 18.1615 109.966 18.5934 110.502 18.8993C111.055 19.2052 111.689 19.3582 112.403 19.3582Z" fill="white"/>
<path d="M97.3933 22.7054C96.1437 22.7054 95.01 22.4085 93.9924 21.8146C92.9748 21.2028 92.1626 20.384 91.5556 19.3582C90.9664 18.3324 90.6719 17.1897 90.6719 15.93C90.6719 14.6703 90.9664 13.5365 91.5556 12.5287C92.1626 11.521 92.9748 10.7202 93.9924 10.1263C95.01 9.51443 96.1437 9.2085 97.3933 9.2085C98.6609 9.2085 99.8034 9.50543 100.821 10.0993C101.839 10.6932 102.642 11.503 103.231 12.5287C103.838 13.5365 104.142 14.6703 104.142 15.93C104.142 17.1897 103.838 18.3324 103.231 19.3582C102.642 20.384 101.839 21.2028 100.821 21.8146C99.8034 22.4085 98.6609 22.7054 97.3933 22.7054ZM97.3933 19.8441C98.1253 19.8441 98.768 19.6821 99.3214 19.3582C99.8927 19.0163 100.33 18.5484 100.634 17.9545C100.955 17.3606 101.116 16.6858 101.116 15.93C101.116 15.1741 100.955 14.5083 100.634 13.9324C100.312 13.3566 99.8748 12.9067 99.3214 12.5827C98.768 12.2408 98.1253 12.0698 97.3933 12.0698C96.6792 12.0698 96.0365 12.2408 95.4653 12.5827C94.9118 12.9067 94.4745 13.3566 94.1531 13.9324C93.8496 14.5083 93.6979 15.1741 93.6979 15.93C93.6979 16.6858 93.8496 17.3606 94.1531 17.9545C94.4745 18.5484 94.9118 19.0163 95.4653 19.3582C96.0365 19.6821 96.6792 19.8441 97.3933 19.8441Z" fill="white"/>
<path d="M82.3054 22.7054C81.0558 22.7054 79.9221 22.4085 78.9045 21.8146C77.887 21.2028 77.0747 20.384 76.4677 19.3582C75.8786 18.3324 75.584 17.1897 75.584 15.93C75.584 14.6703 75.8786 13.5365 76.4677 12.5287C77.0747 11.521 77.887 10.7202 78.9045 10.1263C79.9221 9.51443 81.0558 9.2085 82.3054 9.2085C83.573 9.2085 84.7155 9.50543 85.7331 10.0993C86.7507 10.6932 87.5541 11.503 88.1432 12.5287C88.7502 13.5365 89.0537 14.6703 89.0537 15.93C89.0537 17.1897 88.7502 18.3324 88.1432 19.3582C87.5541 20.384 86.7507 21.2028 85.7331 21.8146C84.7155 22.4085 83.573 22.7054 82.3054 22.7054ZM82.3054 19.8441C83.0374 19.8441 83.6801 19.6821 84.2335 19.3582C84.8048 19.0163 85.2422 18.5484 85.5457 17.9545C85.867 17.3606 86.0277 16.6858 86.0277 15.93C86.0277 15.1741 85.867 14.5083 85.5457 13.9324C85.2243 13.3566 84.7869 12.9067 84.2335 12.5827C83.6801 12.2408 83.0374 12.0698 82.3054 12.0698C81.5913 12.0698 80.9487 12.2408 80.3774 12.5827C79.8239 12.9067 79.3866 13.3566 79.0652 13.9324C78.7617 14.5083 78.61 15.1741 78.61 15.93C78.61 16.6858 78.7617 17.3606 79.0652 17.9545C79.3866 18.5484 79.8239 19.0163 80.3774 19.3582C80.9487 19.6821 81.5913 19.8441 82.3054 19.8441Z" fill="white"/>
<path d="M64.5917 22.7055C63.3063 22.7055 62.0924 22.4535 60.9498 21.9497C59.8072 21.4458 58.8075 20.7529 57.9506 19.8711C57.0937 18.9713 56.4153 17.9366 55.9154 16.7668C55.4334 15.5791 55.1924 14.3104 55.1924 12.9607C55.1924 11.611 55.4334 10.3513 55.9154 9.18155C56.4153 8.01182 57.0937 6.98605 57.9506 6.10425C58.8254 5.20446 59.8429 4.51162 61.0034 4.02573C62.1816 3.52184 63.4491 3.2699 64.8059 3.2699C66.2877 3.2699 67.6623 3.55783 68.9299 4.1337C70.1974 4.70957 71.2596 5.52838 72.1165 6.59014L70.0278 8.69566C69.4744 7.90384 68.7335 7.30098 67.8052 6.88707C66.8768 6.45517 65.8771 6.23922 64.8059 6.23922C63.5206 6.23922 62.3869 6.52716 61.405 7.10303C60.441 7.6609 59.6912 8.44372 59.1556 9.45149C58.6201 10.4593 58.3523 11.629 58.3523 12.9607C58.3523 14.2924 58.6201 15.4711 59.1556 16.4969C59.7091 17.5047 60.4499 18.2965 61.3783 18.8724C62.3066 19.4482 63.3599 19.7362 64.5381 19.7362C65.7878 19.7362 66.859 19.5112 67.7516 19.0613C68.6621 18.5934 69.3583 17.9096 69.8403 17.0098C70.3223 16.092 70.5634 14.9672 70.5634 13.6355L72.4914 15.0392H64.4846V12.2049H73.75V12.6368C73.75 14.8863 73.3483 16.7578 72.545 18.2515C71.7595 19.7452 70.6794 20.8609 69.3048 21.5987C67.9301 22.3366 66.3591 22.7055 64.5917 22.7055Z" fill="white"/>
<path opacity="0.6" d="M29.5234 40.9659L37.1342 33.2939H29.5234V40.9659Z" fill="white"/>
<path d="M37.1342 16.2451H29.5234V33.2938H37.1342V16.2451Z" fill="white"/>
<path d="M29.5242 33.2939H12.6113V40.9659H29.5242V33.2939Z" fill="white"/>
<path opacity="0.6" d="M5 33.2939V38.4086C5 39.8215 6.13528 40.9659 7.53693 40.9659H12.6108V33.2939H5Z" fill="white"/>
<path opacity="0.6" d="M37.1342 16.2452V11.1305C37.1342 9.71764 35.9989 8.57324 34.5973 8.57324H29.5234V16.2452H37.1342Z" fill="white"/>
<path d="M29.5236 8.57336H7.53693C6.13528 8.57336 5 9.71776 5 11.1307V33.294H12.6108V16.2453H29.5236V8.57336Z" fill="white"/>
<path d="M16.0801 29.4707C15.448 29.0402 15.0104 28.4115 14.7715 27.5804L16.2387 26.9709C16.3719 27.4824 16.6044 27.8787 16.9363 28.16C17.2661 28.4413 17.6678 28.5799 18.1371 28.5799C18.617 28.5799 19.0293 28.4328 19.3739 28.1387C19.7185 27.8446 19.8919 27.4696 19.8919 27.0156C19.8919 26.5511 19.71 26.1717 19.3464 25.8776C18.9828 25.5836 18.5261 25.4365 17.9807 25.4365H17.1329V23.9725H17.894C18.3634 23.9725 18.7587 23.8446 19.08 23.5889C19.4014 23.3331 19.5621 22.9836 19.5621 22.5382C19.5621 22.1418 19.4183 21.8264 19.1308 21.5899C18.8433 21.3533 18.4796 21.234 18.0378 21.234C17.6065 21.234 17.264 21.3491 17.0103 21.5814C16.7568 21.8143 16.5662 22.1084 16.4564 22.4359L15.004 21.8264C15.1964 21.2766 15.5495 20.7907 16.0674 20.3709C16.5854 19.9511 17.2471 19.7401 18.0505 19.7401C18.6445 19.7401 19.1794 19.8552 19.653 20.0875C20.1265 20.3198 20.4986 20.6416 20.7671 21.0507C21.0356 21.462 21.1688 21.9223 21.1688 22.4338C21.1688 22.9559 21.044 23.3971 20.7946 23.7593C20.5451 24.1216 20.2386 24.3987 19.8749 24.5926V24.68C20.3445 24.8751 20.7523 25.1956 21.0546 25.607C21.3612 26.0226 21.5155 26.5191 21.5155 27.0988C21.5155 27.6784 21.3696 28.1963 21.0779 28.6502C20.7861 29.1041 20.3823 29.4621 19.8707 29.7221C19.357 29.9821 18.7798 30.1143 18.1393 30.1143C17.3972 30.1164 16.7122 29.9011 16.0801 29.4707ZM25.0926 22.1312L23.4816 23.3054L22.6761 22.0737L25.5661 19.9724H26.6739V29.8841H25.0926V22.1312Z" fill="white"/>
</svg>
