<svg width="170" height="50" viewBox="0 0 170 50" fill="none" xmlns="http://www.w3.org/2000/svg">
<path d="M64.4437 17.5796C63.8385 17.7935 63.2246 18.4181 63.0603 18.9914C62.922 19.4791 62.9825 20.3604 63.1814 20.7368C63.3802 21.1133 63.8385 21.5497 64.2362 21.7379C64.7118 21.9604 65.6196 22.0032 66.147 21.832C67.6601 21.3358 68.2135 19.3422 67.1587 18.1871C66.5275 17.5026 65.3948 17.2459 64.4437 17.5796Z" fill="white"/>
<path d="M87.0107 28.1978V37.7806H88.9043H90.8065L90.8411 33.8191C90.8757 29.6266 90.8843 29.4897 91.3166 28.6683C91.5414 28.2149 92.1899 27.633 92.7 27.402C93.3053 27.1282 94.5849 27.1368 95.1556 27.4106C95.683 27.6673 96.1067 28.1464 96.3574 28.7625C96.5649 29.2673 96.5649 29.2844 96.5909 33.5197L96.6168 37.7806H98.519H100.421L100.395 32.9721C100.361 28.6427 100.343 28.0951 100.205 27.5988C99.6257 25.5539 98.2337 24.202 96.3055 23.7913C94.533 23.4234 92.4061 23.9026 91.2301 24.9379L90.8151 25.3058V21.9603V18.6149H88.9129H87.0107V28.1978Z" fill="white"/>
<path d="M161.195 28.1978V37.7806H163.098H165V28.1978V18.6149H163.098H161.195V28.1978Z" fill="white"/>
<path d="M44.4443 19.7015C44.4097 19.7272 44.3838 23.8084 44.3838 28.771V37.7806H46.3724H48.3611V34.1015V30.4224H52.2087H56.0563V34.1015V37.7806H58.045H60.0336V28.7111V19.6416L58.0709 19.6587L56.0996 19.6844L56.0736 23.2523L56.0563 26.8288H52.2087H48.3611V23.2352V19.6416H46.433C45.3695 19.6416 44.4703 19.6673 44.4443 19.7015Z" fill="white"/>
<path d="M103.758 19.7015C103.723 19.7272 103.697 23.8084 103.697 28.771V37.7806H109.966H116.234V36.0694V34.3582H111.955H107.675V26.9999V19.6416H105.746C104.683 19.6416 103.784 19.6673 103.758 19.7015Z" fill="white"/>
<path d="M74.5594 23.7913C71.5246 24.4673 69.5964 26.7518 69.3976 29.9175C69.2679 32.0138 69.9423 33.9047 71.3084 35.2566C72.5535 36.4886 74.0752 37.0961 75.9515 37.0961C77.4819 37.0961 78.6578 36.694 79.6435 35.8469L80.0931 35.4534V35.8042C80.0931 37.0534 79.704 38.2341 79.0988 38.833C77.7326 40.1592 74.3087 40.0223 72.1125 38.5336C71.8272 38.3453 71.5938 38.2084 71.5851 38.2255C71.5678 38.2427 71.222 38.8929 70.8069 39.6801L70.0547 41.109L70.5908 41.4683C72.0434 42.4437 74.2049 42.9999 76.5135 42.9999C80.1968 42.9999 82.5832 41.5197 83.4652 38.679C83.8715 37.3614 83.8975 36.8737 83.8975 30.14V23.8341H82.0817H80.266V24.7068V25.571L79.7299 25.0576C79.0815 24.4501 78.6059 24.1678 77.8018 23.9197C77.015 23.6715 75.3808 23.6116 74.5594 23.7913ZM78.2255 27.325C78.9172 27.6501 79.4706 28.1721 79.7991 28.848C80.0326 29.3186 80.0499 29.4213 80.0499 30.3796C80.0499 31.3721 80.0412 31.432 79.7732 31.971C79.436 32.6469 78.8913 33.1774 78.2082 33.4854C77.8191 33.6566 77.5424 33.7165 76.9285 33.7421C75.9861 33.7849 75.3463 33.6309 74.6805 33.1945C74.1531 32.8523 73.8591 32.4929 73.5392 31.8084C73.3317 31.3721 73.3057 31.2266 73.3057 30.3796C73.3057 29.5239 73.3317 29.387 73.5565 28.9079C73.8159 28.3432 74.4643 27.6587 75.0004 27.3763C75.5105 27.1111 76.1244 26.9999 76.9112 27.0341C77.5251 27.0598 77.7586 27.1111 78.2255 27.325Z" fill="white"/>
<path d="M122.287 23.7912C120.895 24.0736 119.875 24.5955 118.881 25.5538C117.264 27.0853 116.477 29.3356 116.745 31.68C116.961 33.5196 117.506 34.6746 118.742 35.8982C119.659 36.8137 120.385 37.25 121.647 37.6351C123.731 38.2853 126.446 38.0372 128.098 37.0447C128.685 36.6939 129.55 35.9324 129.55 35.7698C129.55 35.6843 128.27 34.1442 127.639 33.4682C127.596 33.4254 127.423 33.5196 127.233 33.6907C126.368 34.4693 125.512 34.7345 124.068 34.6832C123.212 34.6575 123.048 34.6233 122.529 34.3837C121.734 34.0158 121.198 33.5024 120.852 32.7752C120.688 32.45 120.558 32.1335 120.558 32.0736C120.558 31.988 121.552 31.9623 125.53 31.9623H130.501V30.9014C130.501 30.2939 130.441 29.5324 130.363 29.1303C129.732 25.819 127.051 23.6372 123.653 23.6714C123.212 23.6714 122.598 23.7313 122.287 23.7912ZM125.089 27.0254C125.945 27.419 126.697 28.3773 126.844 29.2671L126.896 29.5666H123.714H120.532L120.584 29.2671C120.765 28.1549 121.673 27.1709 122.797 26.8543C123.42 26.6832 124.509 26.7602 125.089 27.0254Z" fill="white"/>
<path d="M150.82 23.7914C149.394 24.0738 148.408 24.5957 147.353 25.631C145.909 27.0513 145.269 28.6428 145.261 30.8503C145.261 33.0235 145.961 34.7176 147.422 36.0695C148.633 37.1904 149.964 37.7551 151.875 37.9604C154.141 38.2086 156.466 37.4898 157.807 36.138L158.17 35.7615L157.253 34.692C156.752 34.1102 156.285 33.5797 156.224 33.5112C156.121 33.4086 156.051 33.4342 155.766 33.6909C154.893 34.4695 154.037 34.7348 152.593 34.6834C151.745 34.6492 151.573 34.615 151.062 34.384C150.743 34.2385 150.31 33.9561 150.103 33.7679C149.722 33.4171 149.247 32.6471 149.143 32.1936L149.091 31.9626H154.045H159.008L159.06 31.338C159.086 31.0043 159.069 30.3711 159.026 29.9519C158.688 26.6578 156.674 24.3647 153.604 23.7829C152.826 23.6374 151.581 23.6374 150.82 23.7914ZM153.596 27.0171C154.486 27.4192 155.1 28.1551 155.36 29.1476L155.472 29.5668H152.273H149.065L149.117 29.2674C149.299 28.1636 150.293 27.1112 151.4 26.8289C152.005 26.6834 153.06 26.769 153.596 27.0171Z" fill="white"/>
<path d="M63.4053 30.8074V37.7806H65.3075H67.2097V30.8074V23.8341H65.3075H63.4053V30.8074Z" fill="white"/>
<path d="M130.501 23.9111C130.501 23.971 135.36 36.3004 135.922 37.6694C135.957 37.755 136.441 37.7806 137.937 37.7806H139.908L140.436 36.4715C143.453 28.9079 145.373 24.0395 145.373 23.9453C145.373 23.7913 141.888 23.7828 141.767 23.9368C141.715 23.9967 140.868 26.1015 139.874 28.5999C138.888 31.1068 138.049 33.1603 138.023 33.1603C137.997 33.1603 137.167 31.0726 136.19 28.5143L134.409 23.8769L132.455 23.8512C131.262 23.8427 130.501 23.8598 130.501 23.9111Z" fill="white"/>
<path d="M15.2459 43H10.4472V15.2781H5L12.8465 7L20.6931 15.2781H15.2459V43Z" fill="white"/>
<path d="M10.4473 15.278H15.246V19.4491L10.4473 15.278Z" fill="white"/>
<path d="M25.816 42.9999H21.0173V26.7646H15.5701L23.4166 18.4866L31.2632 26.7646H25.816V42.9999Z" fill="white"/>
<path d="M21.0176 26.7646H25.8163V30.9358L21.0176 26.7646Z" fill="white"/>
<path d="M36.3213 43H31.5226V15.2781H26.0754L33.922 7L41.7685 15.2781H36.3213V43Z" fill="white"/>
<path d="M31.5227 15.278H36.3214V19.4491L31.5227 15.278Z" fill="white"/>
</svg>
