<svg width="170" height="50" viewBox="0 0 170 50" fill="none" xmlns="http://www.w3.org/2000/svg">
<path fill-rule="evenodd" clip-rule="evenodd" d="M78.7219 20.6C74.6806 20.6 71.2847 17.7955 70.3219 14H60.3811C58.2612 14 56.4521 15.555 56.1037 17.6766L55.7471 19.8467C55.4088 21.9071 54.3814 23.7003 52.9286 25C54.3814 26.2997 55.4088 28.0929 55.7471 30.1533L56.1037 32.3234C56.4521 34.445 58.2612 36 60.3811 36H61.6488C62.6115 32.2045 66.0074 29.4 70.0487 29.4C74.8389 29.4 78.7219 33.3399 78.7219 38.2C78.7219 43.0602 74.8389 47 70.0487 47C66.0074 47 62.6115 44.1954 61.6488 40.4H60.3811C56.1413 40.4 52.5232 37.29 51.8261 33.0467L51.4694 30.8766C51.121 28.755 49.3119 27.2 47.1921 27.2H43.756C42.7933 30.9955 39.3974 33.8 35.3561 33.8C31.3147 33.8 27.919 30.9955 26.9562 27.2H22.0731C21.1103 30.9955 17.7145 33.8 13.6732 33.8C8.88312 33.8 5 29.8601 5 25C5 20.1399 8.88312 16.2 13.6732 16.2C17.7145 16.2 21.1103 19.0045 22.0731 22.8H26.9562C27.919 19.0045 31.3147 16.2 35.3561 16.2C39.3974 16.2 42.7933 19.0045 43.756 22.8H47.1921C49.3119 22.8 51.121 21.245 51.4694 19.1234L51.8261 16.9533C52.5232 12.71 56.1413 9.6 60.3811 9.6H70.3219C71.2847 5.8045 74.6806 3 78.7219 3C83.512 3 87.3951 6.93991 87.3951 11.8C87.3951 16.6601 83.512 20.6 78.7219 20.6ZM78.7219 16.2C81.1168 16.2 83.0585 14.23 83.0585 11.8C83.0585 9.36995 81.1168 7.4 78.7219 7.4C76.327 7.4 74.3853 9.36995 74.3853 11.8C74.3853 14.23 76.327 16.2 78.7219 16.2ZM13.6732 29.4C16.0682 29.4 18.0097 27.43 18.0097 25C18.0097 22.57 16.0682 20.6 13.6732 20.6C11.2781 20.6 9.33658 22.57 9.33658 25C9.33658 27.43 11.2781 29.4 13.6732 29.4ZM39.6927 25C39.6927 27.43 37.7511 29.4 35.3561 29.4C32.9611 29.4 31.0195 27.43 31.0195 25C31.0195 22.57 32.9611 20.6 35.3561 20.6C37.7511 20.6 39.6927 22.57 39.6927 25ZM74.3853 38.2C74.3853 40.6299 72.4436 42.6 70.0487 42.6C67.6539 42.6 65.7122 40.6299 65.7122 38.2C65.7122 35.77 67.6539 33.8 70.0487 33.8C72.4436 33.8 74.3853 35.77 74.3853 38.2Z" fill="white"/>
<path fill-rule="evenodd" clip-rule="evenodd" d="M139.44 22.0254V21.8157C140.953 21.0469 142.466 19.7189 142.466 17.0979C142.466 13.3236 139.406 11.052 135.176 11.052C130.843 11.052 127.748 13.4633 127.748 17.1677C127.748 19.6839 129.192 21.0469 130.774 21.8157V22.0254C129.021 22.6544 126.923 24.5416 126.923 27.6868C126.923 31.496 130.018 34.152 135.142 34.152C140.265 34.152 143.257 31.496 143.257 27.6868C143.257 24.5416 141.194 22.6894 139.44 22.0254ZM135.142 14.2672C136.861 14.2672 138.133 15.3855 138.133 17.2726C138.133 19.1597 136.827 20.278 135.142 20.278C133.457 20.278 132.047 19.1597 132.047 17.2726C132.047 15.3505 133.388 14.2672 135.142 14.2672ZM135.142 30.7971C133.147 30.7971 131.531 29.5041 131.531 27.3024C131.531 25.3104 132.872 23.8077 135.107 23.8077C137.308 23.8077 138.649 25.2754 138.649 27.3723C138.649 29.5041 137.102 30.7971 135.142 30.7971Z" fill="white"/>
<path d="M148.562 33.8027H152.964V24.3321C152.964 21.2218 154.821 19.8588 156.919 19.8588C158.982 19.8588 160.598 21.2567 160.598 24.1224V33.8027H165V23.2138C165 18.6357 162.386 15.9797 158.295 15.9797C155.715 15.9797 154.271 17.0281 153.239 18.3911H152.964L152.586 16.3292H148.562V33.8027Z" fill="white"/>
<path d="M109.599 33.8027H105.197V16.3292H109.221L109.599 18.3911H109.874C110.906 17.0281 112.35 15.9797 114.929 15.9797C119.021 15.9797 121.635 18.6357 121.635 23.2138V33.8027H117.233V24.1224C117.233 21.2567 115.617 19.8588 113.553 19.8588C111.456 19.8588 109.599 21.2218 109.599 24.3321V33.8027Z" fill="white"/>
</svg>
