<svg width="170" height="50" viewBox="0 0 170 50" fill="none" xmlns="http://www.w3.org/2000/svg">
<path d="M61.8197 11.186C55.0637 11.186 49.5361 16.8496 49.5361 23.7717C49.5361 30.6939 55.0637 36.3574 61.8197 36.3574C68.5756 36.3574 74.1032 30.7288 74.1032 23.7717C74.1032 16.8146 68.6097 11.186 61.8197 11.186ZM61.8197 31.8476C57.6228 31.8476 54.2448 28.3166 54.2448 23.7717C54.2448 19.2269 57.6228 15.6959 61.8197 15.6959C66.0165 15.6959 69.3945 19.2269 69.3945 23.7717C69.3945 28.3166 66.0165 31.8476 61.8197 31.8476Z" fill="white"/>
<path d="M86.5229 18.1782C84.3051 18.1782 82.1555 19.0872 81.0295 20.6254V18.5278H76.5938V43H81.0295V34.1551C82.1555 35.5885 84.2368 36.3576 86.5229 36.3576C91.2998 36.3576 95.0531 32.512 95.0531 27.2679C95.0531 22.0239 91.2998 18.1782 86.5229 18.1782ZM85.7723 32.4071C83.2473 32.4071 80.9954 30.3794 80.9954 27.2679C80.9954 24.1564 83.2473 22.1287 85.7723 22.1287C88.2972 22.1287 90.5491 24.1564 90.5491 27.2679C90.5491 30.3794 88.2972 32.4071 85.7723 32.4071Z" fill="white"/>
<path d="M105.495 18.1782C100.65 18.1782 96.8281 22.0588 96.8281 27.2679C96.8281 32.477 100.172 36.3576 105.631 36.3576C110.101 36.3576 112.967 33.5957 113.854 30.4843H109.521C108.975 31.7778 107.44 32.6868 105.597 32.6868C103.311 32.6868 101.571 31.0436 101.161 28.7013H114.059V26.9183C114.059 22.1637 110.818 18.1782 105.495 18.1782ZM101.196 25.4849C101.673 23.2824 103.448 21.8491 105.597 21.8491C107.883 21.8491 109.623 23.3873 109.828 25.4849H101.196Z" fill="white"/>
<path d="M125.865 18.1782C123.886 18.1782 121.804 19.0872 120.849 20.5905V18.5278H116.413V36.008H120.849V26.6037C120.849 23.8768 122.282 22.0938 124.602 22.0938C126.752 22.0938 127.912 23.7719 127.912 26.1142V36.008H132.348V25.38C132.348 21.045 129.754 18.1782 125.865 18.1782Z" fill="white"/>
<path d="M143.709 11.5364L134.053 36.0086H138.796L140.843 30.6597H151.83L153.877 36.0086H158.688L149.1 11.5364H143.709ZM142.378 26.6043L146.336 16.3609L150.26 26.6043H142.378Z" fill="white"/>
<path d="M165 11.5364H160.496V36.0086H165V11.5364Z" fill="white"/>
<path d="M17.653 19.0809V15.9279C17.653 15.6623 17.7512 15.4631 17.9799 15.3305L24.2249 11.6797C25.075 11.1819 26.0886 10.9497 27.1346 10.9497C31.058 10.9497 33.543 14.0363 33.543 17.3219C33.543 17.5542 33.543 17.8198 33.5102 18.0853L27.0365 14.2353C26.6442 14.003 26.2517 14.003 25.8595 14.2353L17.653 19.0809ZM32.2351 31.3611V23.8269C32.2351 23.3621 32.0387 23.0303 31.6465 22.798L23.4401 17.9524L26.1211 16.3924C26.3499 16.2598 26.5461 16.2598 26.7749 16.3924L33.0198 20.0432C34.8182 21.1054 36.0278 23.3621 36.0278 25.5525C36.0278 28.0748 34.5566 30.3981 32.2351 31.3608V31.3611ZM15.724 24.7232L13.043 23.1302C12.8142 22.9976 12.7161 22.7983 12.7161 22.5328V15.2312C12.7161 11.68 15.3971 8.99143 19.0263 8.99143C20.3997 8.99143 21.6745 9.45626 22.7537 10.2859L16.3128 14.0697C15.9206 14.3019 15.7243 14.6338 15.7243 15.0985V24.7235L15.724 24.7232ZM21.4948 28.1084L17.653 25.918V21.2717L21.4948 19.0812L25.3363 21.2717V25.918L21.4948 28.1084ZM23.9632 38.1982C22.5899 38.1982 21.3151 37.7334 20.2359 36.9037L26.6767 33.12C27.069 32.8878 27.2653 32.5559 27.2653 32.0911V22.4662L29.9791 24.0592C30.2079 24.1918 30.3061 24.391 30.3061 24.6565V31.9582C30.3061 35.5094 27.5922 38.1979 23.9632 38.1979V38.1982ZM16.2144 30.797L9.96944 27.1461C8.17107 26.084 6.9615 23.8273 6.9615 21.6368C6.9615 19.0812 8.4655 16.7912 10.7867 15.8286V23.3958C10.7867 23.8605 10.983 24.1924 11.3753 24.4246L19.5492 29.237L16.8682 30.797C16.6395 30.9296 16.4432 30.9296 16.2144 30.797ZM15.855 36.24C12.1604 36.24 9.4466 33.4189 9.4466 29.934C9.4466 29.6685 9.47937 29.4029 9.51187 29.1374L15.9528 32.9211C16.345 33.1534 16.7376 33.1534 17.1298 32.9211L25.3363 28.1088V31.2617C25.3363 31.5274 25.2382 31.7266 25.0093 31.8592L18.7644 35.51C17.9143 36.0078 16.9007 36.24 15.8546 36.24H15.855ZM23.9632 40.1894C27.9194 40.1894 31.2215 37.3352 31.9737 33.5515C35.6356 32.5889 37.9896 29.104 37.9896 25.5529C37.9896 23.2295 37.0089 20.9728 35.2433 19.3464C35.4067 18.6494 35.5049 17.9524 35.5049 17.2557C35.5049 12.5097 31.7121 8.95816 27.3309 8.95816C26.4483 8.95816 25.5982 9.09076 24.7481 9.38964C23.2766 7.92924 21.2495 7 19.0263 7C15.0702 7 11.7682 9.85413 11.0159 13.6378C7.35406 14.6004 5 18.0853 5 21.6365C5 23.9599 5.98075 26.2166 7.74635 27.8429C7.58288 28.5399 7.48475 29.237 7.48475 29.9337C7.48475 34.6797 11.2775 38.2312 15.6586 38.2312C16.5413 38.2312 17.3914 38.0986 18.2415 37.7997C19.7127 39.2601 21.7398 40.1894 23.9632 40.1894Z" fill="white"/>
</svg>
